/* XPM */
static char * floor_xpm[] = {
"64 64 85 1",
" 	c #514047",
".	c #77514C",
"+	c #3D253B",
"@	c #8D5D57",
"#	c #9D7D81",
"$	c #A38385",
"%	c #A68689",
"&	c #B99F9E",
"*	c #B19797",
"=	c #C29F9C",
"-	c #CCA8A3",
";	c #D0ADA8",
">	c #EBD0C5",
",	c #E1C3BA",
"'	c #C9A6A1",
")	c #C7A39F",
"!	c #543A4B",
"~	c #7A5D68",
"{	c #C8A5A1",
"]	c #D3B2AB",
"^	c #D8B8B1",
"/	c #D7BCB5",
"(	c #E5C8BF",
"_	c #D2B2AA",
":	c #5A3F50",
"<	c #DFC5BC",
"[	c #E1C4BB",
"}	c #573D4E",
"|	c #563D4F",
"1	c #937479",
"2	c #D4B9B3",
"3	c #59413E",
"4	c #664A59",
"5	c #674C5A",
"6	c #6F5662",
"7	c #C2A7A4",
"8	c #6B5360",
"9	c #654653",
"0	c #A17877",
"a	c #AB8481",
"b	c #A47B7A",
"c	c #CFAFAA",
"d	c #9A7273",
"e	c #CDADA6",
"f	c #DFC1B8",
"g	c #90767D",
"h	c #C5A9A4",
"i	c #D6B7AF",
"j	c #B6918D",
"k	c #AE8784",
"l	c #B38D8A",
"m	c #AD8684",
"n	c #A67F7F",
"o	c #A88C8D",
"p	c #DEBFB6",
"q	c #C19E98",
"r	c #BC9894",
"s	c #40273D",
"t	c #957579",
"u	c #5B4151",
"v	c #A8888A",
"w	c #E7CBC0",
"x	c #4B3144",
"y	c #D6B5AE",
"z	c #513647",
"A	c #B89594",
"B	c #7D636C",
"C	c #876A72",
"D	c #B69B9A",
"E	c #6D515E",
"F	c #765965",
"G	c #442B3F",
"H	c #51384A",
"I	c #D2B4AE",
"J	c #886E76",
"K	c #684955",
"L	c #4D3244",
"M	c #836972",
"N	c #79575F",
"O	c #805C63",
"P	c #5E4655",
"Q	c #A0878A",
"R	c #896469",
"S	c #5A3D4C",
"T	c #583B4B",
"    ....................            ....................        ",
"    ....................            ....................        ",
"    .............++++++++++++++++++++++++++++++.........        ",
"    .............++++++++++++++++++++++++++++++.........        ",
".................++++++++++++++++++++++++++++++.........@@@@    ",
".................++++++++++++++++++++++++++++++.........@@@@    ",
".............++++#$$$$$$$$$$$%&&&&&&&&&&&&*$$$#++++.....@@@@    ",
".............++++=-----------;>>>>>>>>>>>>,--'=++++.....@@@@    ",
".............++++=-----------;>>>>>>>>>>>>,---=++++.....@@@@    ",
".............++++=-----------;>>>>>>>>>>>>,---)++++.....@@@@    ",
"............!~~~~{-------]^^^/>>>>>>>>>>>>(^^^_++++.....@@@@    ",
".........+++:------------^>>>>>>>>>>>>>>>>>>>><++++.....@@@@    ",
".........+++:------------^>>>>>>>>>>>>>>>>>>>><++++.....@@@@    ",
".........+++:------------^>>>>>>>>>>>>>>>>>>>><++++.....@@@@    ",
".........+++:------------^>>>>>>>>>>>>>>>>>>>><++++.....@@@@    ",
".........+++:------------^>>>>>>>>>>>>>>>>>>>><++++.....@@@@    ",
".........+++:------------^>>>>>>>>>>>>>>>>>>>>[++++.....@@@@    ",
".........+++:------------^>>>>>>>>>>>>>>>>>>>><++++.....@@@@    ",
".........+++:------------^>>>>>>>>>>>>>>>>>>>><++++.....@@@@    ",
".........+++:------------#}}|}||||/>>>>>>>&||}}++++.....@@@@    ",
".........+++:------------1++++++++2>>>>>>>*++++++++.@@@@@@@@    ",
".........+++:------------1++++++++2>>>>>>>*++++++++.@@@@@@@@    ",
".........+++:------------1++++++++2>>>>>>>*++++++++.@@@@@@@@    ",
".........+++:------------1++++++++2>>>>>>>*++++++++.@@@@@@@@    ",
".........+++:------------1++++++++2>>>>>>>*++++++++@@@@@3333    ",
".........+++:------------1++++++++2>>>>>>>*++++++++@@@@@3333    ",
".........+++:------------1++++++++2>>>>>>>*++++++++@@@@@3333    ",
".........+++}$$$$'-------$44456666/>>>>>>>76668++++@@@@@3333    ",
".............++++=-----------;>>>>>>>>>>>>>>>><++++33333        ",
".............++++=-----------;>>>>>>>>>>>>>>>><++++33333        ",
".............++++=-----------;>>>>>>>>>>>>>>>><++++33333        ",
".............++++=-----------;>>>>>>>>>>>>>>>><++++33333        ",
".................++++++++9000a>>>>a00bc>>>,---=++++.....        ",
".................++++++++9000a>>>>a00de>>>,---=++++.....        ",
".................++++++++9000a>>>>a000e>>>f---=++++.....        ",
".................++++++++9000a>>>>a000e>>>[---=++++.....        ",
".................++++g&&&hiii]jjjjb000kjjjlmmmn++++.....@@@@    ",
".................++++*>>>>>>>[0000000000000000d++++.....@@@@    ",
".................++++*>>>>>>>[000000000000000bd++++.....@@@@    ",
".................++++*>>>>>>>[000000000000000dd++++.....@@@@    ",
".................++++oppppfpp^q=qqqqqq=q=qrllla++++.....@@@@    ",
".................+++st-------;>>>>>>>>>>>>,---=++++.....@@@@    ",
".................++++#-------;>>>>>>>>>>>>[---)++++.....@@@@    ",
".................++++#-------;>>>>>>>>>>>>[---=++++.....@@@@    ",
".................u||}vec;;;;;]wwww(((wwww(f;]e{xxxx.....@@@@    ",
".............++++[>>>>>>>>>>>w------------y>>>(0000z+++.@@@@    ",
".............++++<>>>>>>>>>>>w------------y>>>w0000z+++.@@@@    ",
".............++++<>>>>>>>>>>>w------------y>>>w0000z+++.@@@@    ",
".............++++<>>>>>>>>>>>w------------y>>>wb000z+++.@@@@    ",
".........+++:AAAAe;ecB}}}C;;;]wwwwww(wwwwwD}}}ud000z+++.@@@@    ",
".........+++:--------E+++F---;>>>>>>>>>>>>*+++G0000z+++.@@@@    ",
".........+++:--------E+++F---;>>>>>>>>>>>>*+++G0000z+++.@@@@    ",
".........+++:--------E+++F---e>>>>>>>>>>>>*+++G0000z+++@@@@@    ",
"............!~~~~~~~~H+++BpfpIJJJJJJJJkqq=t+++sKKKKL@@@@@@@@    ",
".............++++++++++++M>>>2++++++++N000~++++++++.@@@@@@@@    ",
".............++++++++++++M>>>2++++++++N000O++++++++.@@@@@@@@    ",
"3333@@@@@@@@@++++++++++++M>>>2++++++++N000O++++++++@@@@@3333    ",
"3333@@@@@@@@@++++++++P666Q>>>2++++++++N000RSSST++++@@@@@3333    ",
"3333@@@@@@@@@@@@@++++*>>>>>>>2++++++++N0000000d++++@@@@@3333    ",
"3333@@@@@@@@@@@@@++++*>>>>>>>2++++++++N0000000d++++@@@@@3333    ",
"    3333333333333++++*>>>>>>>2++++++++N0000000d++++33333        ",
"    3333333333333++++*>>>>>>>2++++++++N0000000d++++33333        ",
"    33333333333333333333            33333333333333333333        ",
"    33333333333333333333            33333333333333333333        "};
