/* XPM */
static char *collectible[] = {
/* columns rows colors chars-per-pixel */
"64 64 9 1 ",
"  c black",
". c #663931",
"X c #59413E",
"o c #514047",
"O c #77514C",
"+ c #8D5D57",
"@ c #D18C47",
"# c #D9A066",
"$ c #DDD540",
/* pixels */
"ooooOOOOOOOOOOOOOOOOOOOOooooooooooooOOOOOOOOOOOOOOOOOOOOoooooooo",
"ooooOOOOOOOOOOOOOOOOOOOOooooooooooooOOOOOOOOOOOOOOOOOOOOoooooooo",
"ooooOOOOOOOOOOOOOOOOOOOOooooooooooooOOOOOOOOOOOOOOOOOOOOoooooooo",
"ooooOOOOOOOOOOOOOOOOOOOOooooooooooooOOOOOOOOOOOOOOOOOOOOoooooooo",
"OOOOOOOOOOOOOOOOOOOOOOOO++++ooooOOOOOOOOOOOOOOOOOOOOOOOO++++oooo",
"OOOOOOOOOOOOOOOOOOOOOOOO++++ooooOOOOOOOOOOOOOOOOOOOOOOOO++++oooo",
"OOOOOOOOOOOOOOOOOOOOOOOO++++ooooOOOOOOOOOOOOOOOOOOOOOOOO++++oooo",
"OOOOOOOOOOOOOOOOOOOOOOOO++++ooooOOOOOOOOOOOOOOOOOOOOOOOO++++oooo",
"OOOOOOOOOOOOOOOOOOOOOOOO++++ooooOOOOOOOOOOOOOOOOOOOOOOOO++++oooo",
"OOOOOOOOOOOOOOOOOOOOOOOO++++ooooOOOOOOOOOOOOOOOOOOOOOOOO++++oooo",
"OOOOOOOOOOOOOOOOOOOOOOOO++++ooooOOOOOOOOOOOOOOOOOOOOOOOO++++oooo",
"OOOOOOOOOOOOOOOOOOOOOOOO++++ooooOOOOOOOOOOOOOOOOOOOOOOOO++++oooo",
"OOOOOOOOOOOOOOOOOOOOOOOO++++ooooOOOOOOOOOOOOOOOOOOOOOOOO++++oooo",
"OOOOOOOOOOOOOOOOOOOOOOOO++++ooooOOOOOOOOOOOOOOOOOOOOOOOO++++oooo",
"OOOOOOOOOOOOOOOOOOOOOOOO++++ooooOOOOOOOOOOOOOOOOOOOOOOOO++++oooo",
"OOOOOOOOOOOOOOOOOOOOOOOO++++ooooOOOOOOOOOOOOOOOOOOOOOOOO++++oooo",
"OOOOOOOOOOOOOOOOOOOOOOOO++++ooooOOOOOOOOOOOOOOOOOOOOOOOO++++oooo",
"OOOOOOOOOOOOOOOOOOOOOOOO++++ooooOOOOOOOOOOOOOOOOOOOOOOOO++++oooo",
"OOOOOOOOOOOOOOOOOOOOOOOO++++ooooOOOOOOOOOOOOOOOOOOOOOOOO++++oooo",
"OOOOOOOOOOOOOOOOOOOOOOOO++++ooooOOOOOOOOOOOOOOOOOOOOOOOO++++oooo",
"OOOOOOOOOOOOOOOOOOOOOOOO++++ooooOOOOOOOOOOOOOOOOOOOO++++++++oooo",
"OOOOOOOOOOOOOOOOOOOOOOOO++++ooooOOOOOOOOOOOOOOOOOOOO++++++++oooo",
"OOOOOOOOOOOOOOOOOOOOOOOO++++ooooOOOOOOOOOOOOOOOOOOOO++++++++oooo",
"OOOOOOOOOOOOOOOOOOOOOOOO++++ooooOOOOOOOOOOOOOOOOOOOO++++++++oooo",
"OOOOOOOOOOOOOOOOOOOOOOOO++++            ++++++++++++++++XXXXoooo",
"OOOOOOOOOOOOOOOOOOOOOOOO++++            ++++++++++++++++XXXXoooo",
"OOOOOOOOOOOOOOOOOOOOOOOO++++            ++++++++++++++++XXXXoooo",
"OOOOOOOOOOOOOOOOOOOOOOOO++++            ++++++++++++++++XXXXoooo",
"OOOOOOOOOOOOOOOOOOOOOOOO    ....@@@@####    XXXXXXXXXXXXoooooooo",
"OOOOOOOOOOOOOOOOOOOOOOOO    ....@@@@####    XXXXXXXXXXXXoooooooo",
"OOOOOOOOOOOOOOOOOOOOOOOO    ....@@@@####    XXXXXXXXXXXXoooooooo",
"OOOOOOOOOOOOOOOOOOOOOOOO    ....@@@@####    XXXXXXXXXXXXoooooooo",
"OOOOOOOOOOOOOOOOOOOO    @@@@@@@@....    OOOOOOOOOOOOOOOOoooooooo",
"OOOOOOOOOOOOOOOOOOOO    @@@@@@@@....    OOOOOOOOOOOOOOOOoooooooo",
"OOOOOOOOOOOOOOOOOOOO    @@@@@@@@....    OOOOOOOOOOOOOOOOoooooooo",
"OOOOOOOOOOOOOOOOOOOO    @@@@@@@@....    OOOOOOOOOOOOOOOOoooooooo",
"OOOOOOOOOOOO        $$$$    ############        OOOOOOOO++++oooo",
"OOOOOOOOOOOO        $$$$    ############        OOOOOOOO++++oooo",
"OOOOOOOOOOOO        $$$$    ############        OOOOOOOO++++oooo",
"OOOOOOOOOOOO        $$$$    ############        OOOOOOOO++++oooo",
"OOOOOOOO    $$$$        @@@@########@@@@    $$$$    OOOO++++oooo",
"OOOOOOOO    $$$$        @@@@########@@@@    $$$$    OOOO++++oooo",
"OOOOOOOO    $$$$        @@@@########@@@@    $$$$    OOOO++++oooo",
"OOOOOOOO    $$$$        @@@@########@@@@    $$$$    OOOO++++oooo",
"OOOO    $$$$    $$$$        @@@@@@@@$$$$        OOOOOOOO++++oooo",
"OOOO    $$$$    $$$$        @@@@@@@@$$$$        OOOOOOOO++++oooo",
"OOOO    $$$$    $$$$        @@@@@@@@$$$$        OOOOOOOO++++oooo",
"OOOO    $$$$    $$$$        @@@@@@@@$$$$        OOOOOOOO++++oooo",
"OOOOOOOO                                OOOOOOOOOOOOOOOO++++oooo",
"OOOOOOOO                                OOOOOOOOOOOOOOOO++++oooo",
"OOOOOOOO                                OOOOOOOOOOOOOOOO++++oooo",
"OOOOOOOO                                OOOOOOOOOOOOOOOO++++oooo",
"OOOOOOOOOOOOOOOOOOOO++++++++ooooOOOOOOOOOOOOOOOOOOOO++++++++oooo",
"OOOOOOOOOOOOOOOOOOOO++++++++ooooOOOOOOOOOOOOOOOOOOOO++++++++oooo",
"OOOOOOOOOOOOOOOOOOOO++++++++ooooOOOOOOOOOOOOOOOOOOOO++++++++oooo",
"OOOOOOOOOOOOOOOOOOOO++++++++ooooOOOOOOOOOOOOOOOOOOOO++++++++oooo",
"XXXX++++++++++++++++++++XXXXooooXXXX++++++++++++++++++++XXXXoooo",
"XXXX++++++++++++++++++++XXXXooooXXXX++++++++++++++++++++XXXXoooo",
"XXXX++++++++++++++++++++XXXXooooXXXX++++++++++++++++++++XXXXoooo",
"XXXX++++++++++++++++++++XXXXooooXXXX++++++++++++++++++++XXXXoooo",
"ooooXXXXXXXXXXXXXXXXXXXXooooooooooooXXXXXXXXXXXXXXXXXXXXoooooooo",
"ooooXXXXXXXXXXXXXXXXXXXXooooooooooooXXXXXXXXXXXXXXXXXXXXoooooooo",
"ooooXXXXXXXXXXXXXXXXXXXXooooooooooooXXXXXXXXXXXXXXXXXXXXoooooooo",
"ooooXXXXXXXXXXXXXXXXXXXXooooooooooooXXXXXXXXXXXXXXXXXXXXoooooooo"
};
