/* XPM */
static char * door_xpm[] = {
"64 64 14 1",
" 	c #514047",
".	c #77514C",
"+	c #8D5D57",
"@	c #8895AF",
"#	c #434F65",
"$	c #A6B0C4",
"%	c #6F7F9F",
"&	c #412320",
"*	c #59302C",
"=	c #6D3B36",
"-	c #5C322D",
";	c #8C8C8C",
">	c #ADADAD",
",	c #9A544C",
"    ....................            ....................        ",
"    ....................            ....................        ",
"    ....................            ....................        ",
"    ....................            ....................        ",
"........................++++    ........................++++    ",
"........................++++    ........................++++    ",
"........................++++    ........................++++    ",
"........................++++    ........................++++    ",
"........................++@@@@@@@@@@@@..................++++    ",
"........................++@@@@@@@@@@@@..................++++    ",
"........................++@@@@@@@@@@@@..................++++    ",
"........................++@@@@@@@@@@@@..................++++    ",
"..............@@@@@@@@@@##@@@@@@@@@@@@##@@@@@@@@@@......++++    ",
"..............@@@@@@@@@@##@@@@@@@@@@@@##@@@@@@@@@@......++++    ",
"..............@@@@@@@@@@##$$$$$$$$$$$$##@@@@@@@@@@......++++    ",
"..............@@@@@@@@@@##$$$$$$$$$$$$##@@@@@@@@@@......++++    ",
"##@@@@@@@@@@##@@@@@@@@@@##%%%%%%%%%%%%##@@@@@@@@@@##@@@@@@@@@@##",
"##@@@@@@@@@@##@@@@@@@@@@##%%%%%%%%%%%%##@@@@@@@@@@##@@@@@@@@@@##",
"##@@@@@@@@@@##$$$$$$$$$$##%%%%%%%%%%%%##$$$$$$$$$$##@@@@@@@@@@##",
"##@@@@@@@@@@##$$$$$$$$$$##%%%%%%%%%%%%##$$$$$$$$$$##@@@@@@@@@@##",
"##@@@@@@@@@@##%%%%%%%%%%##%%%%%%%%%%%%##%%%%%%%%%%##@@@@@@@@@@##",
"##@@@@@@@@@@##%%%%%%%%%%##%%%%%%%%%%%%##%%%%%%%%%%##@@@@@@@@@@##",
"##$$$$$$$$$$##%%%%%%%%%%##%%%%%%%%%%%%##%%%%%%%%%%##$$$$$$$$$$##",
"##$$$$$$$$$$##%%%%%%%%%%##%%%%%%%%%%%%##%%%%%%%%%%##$$$$$$$$$$##",
"##%%%%%%%%%%##%%%%%%%%%%&&&&&&&&&&&&&&&&%%%%%%%%%%##%%%%%%%%%%##",
"##%%%%%%%%%%##%%%%%%%%%%&&&&&&&&&&&&&&&&%%%%%%%%%%##%%%%%%%%%%##",
"##%%%%%%%%%%&&&&&&&&&&&&&&&&&&&&&&&&&&&&&&&&&&&&&&&&%%%%%%%%%%##",
"##%%%%%%%%%%&&&&&&&&&&&&&&&&&&&&&&&&&&&&&&&&&&&&&&&&%%%%%%%%%%##",
"##%%%%%%%%%%&&&&&&&&&&&&&&&&&&&&&&&&&&&&&&&&&&&&&&&&%%%%%%%%%%##",
"##%%%%%%%%%%&&&&&&&&&&&&&&&&&&&&&&&&&&&&&&&&&&&&&&&&%%%%%%%%%%##",
"############&&&&&&&&&&&&**&&********&&**&&&&&&&&&&&&############",
"############&&&&&&&&&&&&**&&********&&**&&&&&&&&&&&&############",
"##$$$$$$$$$$******&&******&&********&&******&&******$$$$$$$$$$##",
"##$$$$$$$$$$******&&******&&********&&******&&******$$$$$$$$$$##",
"##%%%%%%%%%%******&&======--========--======&&******%%%%%%%%%%##",
"##%%%%%%%%%%******&&======--========--======&&******%%%%%%%%%%##",
"##%%%%%%%%%%======--======--========--======--======%%%%%%%%%%##",
"##%%%%%%%%%%======--======--========--======--======%%%%%%%%%%##",
"##%%%%%%%%%%;;;;>>--======--========--======--======%%%%%%%%%%##",
"##%%%%%%%%%%;;;;>>--======--========--======--======%%%%%%%%%%##",
"##%%%%%%%%%%;;>>>>--======--========--======--======%%%%%%%%%%##",
"##%%%%%%%%%%;;>>>>--======--========--======--======%%%%%%%%%%##",
"############======--======--========--======--======############",
"############======--======--========--======--======############",
"##$$$$$$$$$$======--======--========--======--==>>==$$$$$$$$$$##",
"##$$$$$$$$$$======--======--========--======--==>>==$$$$$$$$$$##",
"##%%%%%%%%%%======--======--========--======--==>>==%%%%%%%%%%##",
"##%%%%%%%%%%======--======--========--======--==>>==%%%%%%%%%%##",
"##%%%%%%%%%%======--======--========--======--==>>==%%%%%%%%%%##",
"##%%%%%%%%%%======--======--========--======--==>>==%%%%%%%%%%##",
"##%%%%%%%%%%======--======--========--======--==>>==%%%%%%%%%%##",
"##%%%%%%%%%%======--======--========--======--==>>==%%%%%%%%%%##",
"##%%%%%%%%%%======--======--========--======--==>>==%%%%%%%%%%##",
"##%%%%%%%%%%======--======--========--======--==>>==%%%%%%%%%%##",
"############======--======--========--======--======############",
"############======--======--========--======--======############",
"##$$$$$$$$$$;;;;>>--======--========--======--======$$$$$$$$$$##",
"##$$$$$$$$$$;;;;>>--======--========--======--======$$$$$$$$$$##",
"##%%%%%%%%%%;;>>>>--======--========--======--======%%%%%%%%%%##",
"##%%%%%%%%%%;;>>>>--======--========--======--======%%%%%%%%%%##",
"##%%%%%%%%%%======--======--========--======--======%%%%%%%%%%##",
"##%%%%%%%%%%======--======--========--======--======%%%%%%%%%%##",
"##%%%%%%%%%%,,,,,,--,,,,,,--,,,,,,,,--,,,,,,--,,,,,,%%%%%%%%%%##",
"##%%%%%%%%%%,,,,,,--,,,,,,--,,,,,,,,--,,,,,,--,,,,,,%%%%%%%%%%##"};
