/* XPM */
static char * coin2_xpm[] = {
"64 64 53 1",
" 	c #514047",
".	c #77514C",
"+	c #8D5D57",
"@	c #14182E",
"#	c #303238",
"$	c #797452",
"%	c #36373A",
"&	c #FFEE83",
"*	c #343032",
"=	c #F2BD4A",
"-	c #332E31",
";	c #F0B541",
">	c #504F44",
",	c #575546",
"'	c #6D6346",
")	c #FBDE70",
"!	c #FDE578",
"~	c #6F6B4F",
"{	c #BCB16B",
"]	c #F6CD5D",
"^	c #B49449",
"/	c #F4C554",
"(	c #B1883C",
"_	c #F6CA59",
":	c #FDE67A",
"<	c #C5BA6E",
"[	c #59413E",
"}	c #554C3C",
"|	c #F2BC49",
"1	c #534533",
"2	c #D47E2E",
"3	c #CF752B",
"4	c #49332D",
"5	c #4F3D31",
"6	c #E29A38",
"7	c #DD9034",
"8	c #4D3A30",
"9	c #E49D39",
"0	c #D88731",
"a	c #E7A33B",
"b	c #E8A53C",
"c	c #D47F2F",
"d	c #2F252E",
"e	c #B98C3B",
"f	c #A3612D",
"g	c #9A5A2C",
"h	c #AA7B37",
"i	c #44302D",
"j	c #614530",
"k	c #5D3C2D",
"l	c #EBAC3E",
"m	c #2A232E",
"n	c #64402D",
"    ....................            ....................        ",
"    ....................            ....................        ",
"    ....................            ....................        ",
"    ....................            ....................        ",
"........................++++    ........................++++    ",
"........................++++    ........................++++    ",
"........................++++    ........................++++    ",
"........................+@@@@@@@@@@@@@@.................++++    ",
"........................+@@@@@@@@@@@@@@.................++++    ",
"........................+@@@@@@@@@@@@@@.................++++    ",
"........................#$$$$$$$$$$$$$$#................++++    ",
".....................@@@%&&&&&&&&&&&&&&%@@@.............++++    ",
".....................@@@%&&&&&&&&&&&&&&%@@@.............++++    ",
".....................@@@%&&&&&&&&&&&&&&%@@@.............++++    ",
".....................@@@*=======&&&&&&&%@@@.............++++    ",
".....................@@@-;;;;;;;&&&&&&&%@@@.............++++    ",
".....................@@@-;;;;;;;&&&&&&&%@@@.............++++    ",
".....................>,,';;;;;;;)))!&&&~,,>.............++++    ",
"..................@@@{&&!;;;;;;;;;;]&&&&&&{@@@..........++++    ",
"..................@@@{&&!;;;;;;;;;;]&&&&&&{@@@..........++++    ",
"..................@@@{&&!;;;;;;;;;;]&&&&&&{@@@......++++++++    ",
"..................@@@^///;;;;;;;;;;]&&&&&&{@@@......++++++++    ",
"..................@@@(;;;;;;;;;;;;;]&&&&&&{@@@......++++++++    ",
"..................@@@(;;;;;;;;;;;;;]&&&&&&{@@@......++++++++    ",
"..................%%%^;;;;;;;;;;;;;_!:!&&&<%%%++++++++++[[[[    ",
"..............@@@,&:&/;;;;;;;;;;;;;;;;;:&&&&&&,@@@++++++[[[[    ",
"..............@@@,&&&/;;;;;;;;;;;;;;;;;:&&&&&&,@@@++++++[[[[    ",
"..............@@@,&&&/;;;;;;;;;;;;;;;;;:&&&&&&,@@@++++++[[[[    ",
"..............@@@}]]]|;;;;;;;;;;;;;;;;;:&&!]]]}@@@[[[[[[        ",
"..............@@@1;;;;;;;;;;;;;;;;;;;;;!&&);;;1@@@[[[[[[        ",
"..............@@@1;;;;;;;;;;;;;;;;;;;;;!&&);;;1@@@[[[[[[        ",
"..............@@@1;;;;;;;;;;;;;;;;;;;;;!&&);;;1@@@[[[[[[        ",
"..............@@@1;;;;;;;;;;;;;;;;;;;;;23333334@@@......        ",
"..............@@@1;;;;;;;;;;;;;;;;;;;;;23333334@@@......        ",
"..............@@@1;;;;;;;;;;;;;;;;;;;;;23333334@@@......        ",
"..............@@@5666;;;;;;;;;;;;;;;;;;23327778@@@......        ",
"..............@@@43339;;;;;;;;;;;;;;;;;2330;;;1@@@......++++    ",
"..............@@@4333a;;;;;;;;;;;;;;;;;2330;;;1@@@......++++    ",
"..............@@@4333b;;;;;;;;;;;;;;;;;c330;;;1@@@......++++    ",
"..................ddde;;;;;;;;;;;;;9222333f---..........++++    ",
"..................@@@(;;;;;;;;;;;;;6333333g@@@..........++++    ",
"..................@@@(;;;;;;;;;;;;;6333333g@@@..........++++    ",
"..................@@@hbab;;;;;;;;;;6333333g@@@..........++++    ",
"..................@@@g332;;;;;;;;;;6333333g@@@..........++++    ",
"..................@@@g332;;;;;;;;;;6333333g@@@..........++++    ",
"..................@@@g332;;;;;;;;;;6333333g@@@..........++++    ",
".....................i44j;;;;;;;000c333k44i.............++++    ",
".....................@@@-;;;;;;;3333333d@@@.............++++    ",
".....................@@@-;;;;;;;3333333d@@@.............++++    ",
".....................@@@-lllllll3333333d@@@.............++++    ",
".....................@@@d33333333333333d@@@.............++++    ",
".....................@@@d33333333333333d@@@.............++++    ",
"....................+@@@d33333333333333d@@@.........++++++++    ",
"....................++++mnnnnnnnnnnnnnnm............++++++++    ",
"....................+++++@@@@@@@@@@@@@@.............++++++++    ",
"....................+++++@@@@@@@@@@@@@@.............++++++++    ",
"[[[[++++++++++++++++++++[@@@@@@@@@@@@@@+++++++++++++++++[[[[    ",
"[[[[++++++++++++++++++++[[[[    [[[[++++++++++++++++++++[[[[    ",
"[[[[++++++++++++++++++++[[[[    [[[[++++++++++++++++++++[[[[    ",
"[[[[++++++++++++++++++++[[[[    [[[[++++++++++++++++++++[[[[    ",
"    [[[[[[[[[[[[[[[[[[[[            [[[[[[[[[[[[[[[[[[[[        ",
"    [[[[[[[[[[[[[[[[[[[[            [[[[[[[[[[[[[[[[[[[[        ",
"    [[[[[[[[[[[[[[[[[[[[            [[[[[[[[[[[[[[[[[[[[        ",
"    [[[[[[[[[[[[[[[[[[[[            [[[[[[[[[[[[[[[[[[[[        "};
