/* XPM */
static char * coin6_xpm[] = {
"64 64 56 1",
" 	c #514047",
".	c #77514C",
"+	c #8D5D57",
"@	c #14182E",
"#	c #303238",
"$	c #797452",
"%	c #36373A",
"&	c #FFEE83",
"*	c #F2BD4A",
"=	c #343032",
"-	c #F0B541",
";	c #332E31",
">	c #504F44",
",	c #575546",
"'	c #6F6B4F",
")	c #FDE578",
"!	c #FBDE70",
"~	c #6D6346",
"{	c #BCB16B",
"]	c #F6CD5D",
"^	c #FFED82",
"/	c #F4C351",
"(	c #F4C554",
"_	c #B49449",
":	c #B1883C",
"<	c #C5BA6E",
"[	c #BB913F",
"}	c #59413E",
"|	c #FDE67A",
"1	c #554C3C",
"2	c #534533",
"3	c #49332D",
"4	c #CF752B",
"5	c #D47E2E",
"6	c #D47F2F",
"7	c #4D3A30",
"8	c #DD9034",
"9	c #ECAD3E",
"0	c #E29A38",
"a	c #4F3D31",
"b	c #D88731",
"c	c #E7A33B",
"d	c #A3612D",
"e	c #D0762B",
"f	c #E49D39",
"g	c #B98C3B",
"h	c #2F252E",
"i	c #9A5A2C",
"j	c #E8A53C",
"k	c #AA7B37",
"l	c #44302D",
"m	c #5D3C2D",
"n	c #614530",
"o	c #EBAC3E",
"p	c #2A232E",
"q	c #64402D",
"    ....................            ....................        ",
"    ....................            ....................        ",
"    ....................            ....................        ",
"    ....................            ....................        ",
"........................++++    ........................++++    ",
"........................++++    ........................++++    ",
"........................++++    ........................++++    ",
"........................+@@@@@@@@@@@@@@.................++++    ",
"........................+@@@@@@@@@@@@@@.................++++    ",
"........................+@@@@@@@@@@@@@@.................++++    ",
"........................#$$$$$$$$$$$$$$#................++++    ",
".....................@@@%&&&&&&&&&&&&&&%@@@.............++++    ",
".....................@@@%&&&&&&&&&&&&&&%@@@.............++++    ",
".....................@@@%&&&&&&&&&&&&&&%@@@.............++++    ",
".....................@@@%&&&&&&&*******=@@@.............++++    ",
".....................@@@%&&&&&&&-------;@@@.............++++    ",
".....................@@@%&&&&&&&-------;@@@.............++++    ",
".....................>,,'&&&)!!!-------~,,,.............++++    ",
"..................@@@{&&&&&&]----------)&^{@@@..........++++    ",
"..................@@@{&&&&&&]----------)&&{@@@..........++++    ",
"..................@@@{&&&&&&]----------)&&{@@@......++++++++    ",
"..................@@@{&&&&&&]----------/((_@@@......++++++++    ",
"..................@@@{&&&&&&]-------------:@@@......++++++++    ",
"..................@@@{&&&&&&]-------------:@@@......++++++++    ",
"..................%%%<&&&)))]-------------[%%%++++++++++}}}}    ",
"..............@@@,&&&&&&)-----------------(&&&,@@@++++++}}}}    ",
"..............@@@,&&&&&&)-----------------(&&&,@@@++++++}}}}    ",
"..............@@@,&&&&&&|-----------------(&&&,@@@++++++}}}}    ",
"..............@@@1]]])&&|-----------------*]]]1@@@}}}}}}        ",
"..............@@@2---!&&|---------------------2@@@}}}}}}        ",
"..............@@@2---!&&|---------------------2@@@}}}}}}        ",
"..............@@@2---!&&)---------------------2@@@}}}}}}        ",
"..............@@@34444445---------------------2@@@......        ",
"..............@@@34444446---------------------2@@@......        ",
"..............@@@34444445---------------------2@@@......        ",
"..............@@@78885445-----------------9000a@@@......        ",
"..............@@@2---b445-----------------c4443@@@......++++    ",
"..............@@@2---b445-----------------c4443@@@......++++    ",
"..............@@@2---b445-----------------c4443@@@......++++    ",
"..................;;;d44e555f-------------ghhh..........++++    ",
"..................@@@i4444440-------------:@@@..........++++    ",
"..................@@@i4444440-------------:@@@..........++++    ",
"..................@@@i4444440----------jcck@@@..........++++    ",
"..................@@@i4444440----------544i@@@..........++++    ",
"..................@@@i4444440----------544i@@@..........++++    ",
"..................@@@i4444440----------544i@@@..........++++    ",
".....................l33m4446bbb-------n33l.............++++    ",
".....................@@@h4444444-------;@@@.............++++    ",
".....................@@@h4444444-------;@@@.............++++    ",
".....................@@@h4444444ooooooo;@@@.............++++    ",
".....................@@@h44444444444444h@@@.............++++    ",
".....................@@@h44444444444444h@@@.............++++    ",
"....................+@@@h44444444444444h@@@.........++++++++    ",
"....................++++pqqqqqqqqqqqqqqp............++++++++    ",
"....................+++++@@@@@@@@@@@@@@.............++++++++    ",
"....................+++++@@@@@@@@@@@@@@.............++++++++    ",
"}}}}++++++++++++++++++++}@@@@@@@@@@@@@@+++++++++++++++++}}}}    ",
"}}}}++++++++++++++++++++}}}}    }}}}++++++++++++++++++++}}}}    ",
"}}}}++++++++++++++++++++}}}}    }}}}++++++++++++++++++++}}}}    ",
"}}}}++++++++++++++++++++}}}}    }}}}++++++++++++++++++++}}}}    ",
"    }}}}}}}}}}}}}}}}}}}}            }}}}}}}}}}}}}}}}}}}}        ",
"    }}}}}}}}}}}}}}}}}}}}            }}}}}}}}}}}}}}}}}}}}        ",
"    }}}}}}}}}}}}}}}}}}}}            }}}}}}}}}}}}}}}}}}}}        ",
"    }}}}}}}}}}}}}}}}}}}}            }}}}}}}}}}}}}}}}}}}}        "};
