/* XPM */
static char * coin1_xpm[] = {
"64 64 45 1",
" 	c #514047",
".	c #77514C",
"+	c #8D5D57",
"@	c #14182E",
"#	c #303238",
"$	c #797452",
"%	c #36373A",
"&	c #FFEE83",
"*	c #545245",
"=	c #DDCF77",
"-	c #D4AD4E",
";	c #D19F3E",
">	c #D5A340",
",	c #F2BD4A",
"'	c #575546",
")	c #F4C554",
"!	c #F0B541",
"~	c #867C52",
"{	c #FBDE70",
"]	c #F3C14E",
"^	c #59413E",
"/	c #756642",
"(	c #F6CD5D",
"_	c #F1B845",
":	c #725B36",
"<	c #6C5032",
"[	c #E29A38",
"}	c #EEB140",
"|	c #64402D",
"1	c #CF752B",
"2	c #EBAC3E",
"3	c #2A232E",
"4	c #2F252E",
"5	c #D4A03E",
"6	c #C88F39",
"7	c #E7A33B",
"8	c #E9A83D",
"9	c #B4682B",
"0	c #D88731",
"a	c #47312D",
"b	c #49332D",
"c	c #724B2E",
"d	c #DC8E34",
"e	c #D47E2E",
"f	c #BC712E",
"    ....................            ....................        ",
"    ....................            ....................        ",
"    ....................            ....................        ",
"    ....................            ....................        ",
"........................++++    ........................++++    ",
"........................++++    ........................++++    ",
"........................++++    ........................++++    ",
"........................+@@@@@@@@@@@@@@.................++++    ",
"........................+@@@@@@@@@@@@@@.................++++    ",
"........................+@@@@@@@@@@@@@@.................++++    ",
"........................#$$$$$$$$$$$$$$#................++++    ",
"..................@@@@@@%&&&&&&&&&&&&&&%@@@@@@..........++++    ",
"..................@@@@@@%&&&&&&&&&&&&&&%@@@@@@..........++++    ",
"..................@@@@@@%&&&&&&&&&&&&&&%@@@@@@..........++++    ",
"..............@@@*===-;;>,,,,,,,,,,,,,,>;;-===*@@@......++++    ",
"..............@@@'&&&)!!!!!!!!!!!!!!!!!!!!)&&&'@@@......++++    ",
"..............@@@'&&&)!!!!!!!!!!!!!!!!!!!!)&&&'@@@......++++    ",
"..............*''~{{{]!!!!!!!!!!!!!!!!!!!!]{{{~''*......++++    ",
"...........@@@=&&{!!!!!!!!!!!!!!!!!!!!!!!!!!!!{&&=@@@...++++    ",
"...........@@@=&&{!!!!!!!!!!!!!!!!!!!!!!!!!!!!{&&=@@@...++++    ",
"...........@@@=&&{!!!!!!!!!!!!!!!!!!!!!!!!!!!!{&&=@@@+++++++    ",
"...........@@@-))]!!!!!!!!!!!!!!!!!!!!!!!!!!!!]))-@@@+++++++    ",
"...........@@@;!!!!!!!!!!!!!!!!!!!!!!!!!!!!!!!!!!;@@@+++++++    ",
"...........@@@;!!!!!!!!!!!!!!!!!!!!!!!!!!!!!!!!!!;@@@+++++++    ",
"..........#%%%>!!!!!!!!!!!!!!!!!!!!!!!!!!!!!!!!!!>%%%#++^^^^    ",
".......@@@$&&&,!!!!!!!!!!!!!!!!!!!!!!!!!!!!!!!!!!,&&&$@@@^^^    ",
".......@@@$&&&,!!!!!!!!!!!!!!!!!!!!!!!!!!!!!!!!!!,&&&$@@@^^^    ",
".......@@@$&&&,!!!!!!!!!!!!!!!!!!!!!!!!!!!!!!!!!!,&&&$@@@^^^    ",
".......@@@/(((_!!!!!!!!!!!!!!!!!!!!!!!!!!!!!!!!!!_(((/@@@       ",
".......@@@:!!!!!!!!!!!!!!!!!!!!!!!!!!!!!!!!!!!!!!!!!!:@@@       ",
".......@@@:!!!!!!!!!!!!!!!!!!!!!!!!!!!!!!!!!!!!!!!!!!:@@@       ",
".......@@@:!!!!!!!!!!!!!!!!!!!!!!!!!!!!!!!!!!!!!!!!!!:@@@       ",
".......@@@:!!!!!!!!!!!!!!!!!!!!!!!!!!!!!!!!!!!!!!!!!!:@@@       ",
".......@@@:!!!!!!!!!!!!!!!!!!!!!!!!!!!!!!!!!!!!!!!!!!:@@@       ",
".......@@@:!!!!!!!!!!!!!!!!!!!!!!!!!!!!!!!!!!!!!!!!!!:@@@       ",
".......@@@<[[[}!!!!!!!!!!!!!!!!!!!!!!!!!!!!!!!!!!}[[[<@@@       ",
".......@@@|1112!!!!!!!!!!!!!!!!!!!!!!!!!!!!!!!!!!2111|@@@+++    ",
".......@@@|1112!!!!!!!!!!!!!!!!!!!!!!!!!!!!!!!!!!2111|@@@+++    ",
".......@@@|1112!!!!!!!!!!!!!!!!!!!!!!!!!!!!!!!!!!2111|@@@+++    ",
"..........34445!!!!!!!!!!!!!!!!!!!!!!!!!!!!!!!!!!54443..++++    ",
"...........@@@;!!!!!!!!!!!!!!!!!!!!!!!!!!!!!!!!!!;@@@...++++    ",
"...........@@@;!!!!!!!!!!!!!!!!!!!!!!!!!!!!!!!!!!;@@@...++++    ",
"...........@@@6778!!!!!!!!!!!!!!!!!!!!!!!!!!!!8776@@@...++++    ",
"...........@@@9110!!!!!!!!!!!!!!!!!!!!!!!!!!!!0119@@@...++++    ",
"...........@@@9110!!!!!!!!!!!!!!!!!!!!!!!!!!!!0119@@@...++++    ",
"...........@@@9110!!!!!!!!!!!!!!!!!!!!!!!!!!!!0119@@@...++++    ",
"..............abbc000000d!!!!!!!!!!!!!!d000000cbba......++++    ",
"..............@@@b111111e!!!!!!!!!!!!!!e111111b@@@......++++    ",
"..............@@@b111111e!!!!!!!!!!!!!!e111111b@@@......++++    ",
"..............@@@a999999f22222222222222f999999a@@@......++++    ",
"..................@@@@@@4111111111111114@@@@@@..........++++    ",
"..................@@@@@@4111111111111114@@@@@@..........++++    ",
"..................@@@@@@4111111111111114@@@@@@......++++++++    ",
"....................++++3||||||||||||||3............++++++++    ",
"....................+++++@@@@@@@@@@@@@@.............++++++++    ",
"....................+++++@@@@@@@@@@@@@@.............++++++++    ",
"^^^^++++++++++++++++++++^@@@@@@@@@@@@@@+++++++++++++++++^^^^    ",
"^^^^++++++++++++++++++++^^^^    ^^^^++++++++++++++++++++^^^^    ",
"^^^^++++++++++++++++++++^^^^    ^^^^++++++++++++++++++++^^^^    ",
"^^^^++++++++++++++++++++^^^^    ^^^^++++++++++++++++++++^^^^    ",
"    ^^^^^^^^^^^^^^^^^^^^            ^^^^^^^^^^^^^^^^^^^^        ",
"    ^^^^^^^^^^^^^^^^^^^^            ^^^^^^^^^^^^^^^^^^^^        ",
"    ^^^^^^^^^^^^^^^^^^^^            ^^^^^^^^^^^^^^^^^^^^        ",
"    ^^^^^^^^^^^^^^^^^^^^            ^^^^^^^^^^^^^^^^^^^^        "};
