/* XPM */
static char * coin3_xpm[] = {
"64 64 48 1",
" 	c #514047",
".	c #77514C",
"+	c #8D5D57",
"@	c #14182E",
"#	c #605D4A",
"$	c #797452",
"%	c #9A925F",
"&	c #FFEE83",
"*	c #332E31",
"=	c #D19F3E",
"-	c #EBCC66",
";	c #F0B541",
">	c #F9D667",
",	c #F6CC5C",
"'	c #FBDE70",
")	c #FADD6F",
"!	c #F4C554",
"~	c #343133",
"{	c #36373A",
"]	c #4E4233",
"^	c #F9D96B",
"/	c #F2BD4A",
"(	c #514A3C",
"_	c #343539",
":	c #59413E",
"<	c #B1883C",
"[	c #BCB16B",
"}	c #E4A951",
"|	c #ECB956",
"1	c #B69A50",
"2	c #CF752B",
"3	c #DD9034",
"4	c #9A5A2C",
"5	c #D88731",
"6	c #A46E33",
"7	c #D1792C",
"8	c #D47E2E",
"9	c #4A3A30",
"0	c #2F252E",
"a	c #D37D2E",
"b	c #E39B38",
"c	c #322D31",
"d	c #D08733",
"e	c #C46F2B",
"f	c #B4682B",
"g	c #7F4D2C",
"h	c #51362D",
"i	c #64402D",
"    ....................            ....................        ",
"    ....................            ....................        ",
"    ....................            ....................        ",
"    ....................            ....................        ",
"........................++++    ........................++++    ",
"........................++++    ........................++++    ",
"........................++++    ........................++++    ",
"........................++++@@@@@@@@....................++++    ",
"........................++++@@@@@@@@....................++++    ",
"........................++++@@@@@@@@....................++++    ",
"........................++++#$$$$$$#....................++++    ",
"........................+@@@%&&&&&&%@@@.................++++    ",
"........................+@@@%&&&&&&%@@@.................++++    ",
"........................+@@@%&&&&&&%@@@.................++++    ",
".....................@@@*===-&&&&&&-===*@@@.............++++    ",
".....................@@@*;;;>&&&&&&>;;;*@@@.............++++    ",
".....................@@@*;;;>&&&&&&>;;;*@@@.............++++    ",
".....................@@@*;;;,'''&&&)!!!~@@@.............++++    ",
".....................@@@*;;;;;;;&&&&&&&{@@@.............++++    ",
".....................@@@*;;;;;;;&&&&&&&{@@@.............++++    ",
".....................@@@*;;;;;;;&&&&&&&{@@@.........++++++++    ",
".....................@@@*;;;;;;;&&&)!!!~@@@.........++++++++    ",
".....................@@@*;;;;;;;&&&>;;;*@@@.........++++++++    ",
".....................@@@*;;;;;;;&&&>;;;~@@@.........++++++++    ",
".....................***];;;;;;;&&&^///({{_+++++++++++++::::    ",
"..................@@@<;;;;;;;;;;&&&&&&&&&&[@@@++++++++++::::    ",
"..................@@@<;;;;;;;;;;&&&&&&&&&&[@@@++++++++++::::    ",
"..................@@@<;;;;;;;;;;&&&&&&&&&&[@@@++++++++++::::    ",
"..................@@@<;;;;;;;;;;}}}|,,,,,,1@@@::::::::::        ",
"..................@@@<;;;;;;;;;;2223;;;;;;<@@@::::::::::        ",
"..................@@@<;;;;;;;;;;2223;;;;;;<@@@::::::::::        ",
"..................@@@<;;;;;;;;;;2223;;;;;;<@@@::::::::::        ",
"..................@@@<;;;;;;;;;;22222222224@@@..........        ",
"..................@@@<;;;;;;;;;;22222222224@@@..........        ",
"..................@@@<;;;;;;;;;;22222222224@@@..........        ",
"..................@@@<;;;;;;;;;;22253333336@@@..........        ",
"..................@@@<;;;;;;;;;;2223;;;;;;<@@@..........++++    ",
"..................@@@<;;;;;;;;;;2223;;;;;;<@@@..........++++    ",
"..................@@@<;;;;;;;;;;2223;;;;;;<@@@..........++++    ",
".....................***];;;;;;;22278889***.............++++    ",
".....................@@@*;;;;;;;22222220@@@.............++++    ",
".....................@@@*;;;;;;;22222220@@@.............++++    ",
".....................@@@*;;;;;;;222a5550@@@.............++++    ",
".....................@@@*;;;;;;;2223;;;*@@@.............++++    ",
".....................@@@*;;;;;;;2223;;;*@@@.............++++    ",
".....................@@@*;;;;;;;2223;;;*@@@.............++++    ",
".....................@@@*;;;b555222a555c@@@.............++++    ",
".....................@@@*;;;322222222220@@@.............++++    ",
".....................@@@*;;;322222222220@@@.............++++    ",
".....................@@@*===d222222efff0@@@.............++++    ",
"........................+@@@g222222g@@@.................++++    ",
"........................+@@@g222222g@@@.................++++    ",
"....................+++++@@@g222222g@@@.............++++++++    ",
"....................++++++++hiiiiiih................++++++++    ",
"....................++++++++@@@@@@@@................++++++++    ",
"....................++++++++@@@@@@@@................++++++++    ",
"::::++++++++++++++++++++::::@@@@@@@@++++++++++++++++++++::::    ",
"::::++++++++++++++++++++::::    ::::++++++++++++++++++++::::    ",
"::::++++++++++++++++++++::::    ::::++++++++++++++++++++::::    ",
"::::++++++++++++++++++++::::    ::::++++++++++++++++++++::::    ",
"    ::::::::::::::::::::            ::::::::::::::::::::        ",
"    ::::::::::::::::::::            ::::::::::::::::::::        ",
"    ::::::::::::::::::::            ::::::::::::::::::::        ",
"    ::::::::::::::::::::            ::::::::::::::::::::        "};
