/* XPM */
static char * coin5_xpm[] = {
"64 64 46 1",
" 	c #514047",
".	c #77514C",
"+	c #8D5D57",
"@	c #14182E",
"#	c #605D4A",
"$	c #797452",
"%	c #9A925F",
"&	c #FFEE83",
"*	c #332E31",
"=	c #D19F3E",
"-	c #EBCC66",
";	c #F0B541",
">	c #F9D667",
",	c #343133",
"'	c #F4C554",
")	c #FADD6F",
"!	c #FBDE70",
"~	c #F6CC5C",
"{	c #36373A",
"]	c #514A3C",
"^	c #F2BD4A",
"/	c #4E4233",
"(	c #59413E",
"_	c #BCB16B",
":	c #B1883C",
"<	c #B69A50",
"[	c #ECB956",
"}	c #E4A951",
"|	c #DD9034",
"1	c #CF752B",
"2	c #9A5A2C",
"3	c #A46E33",
"4	c #D5812F",
"5	c #4A3A30",
"6	c #D37D2E",
"7	c #D1792C",
"8	c #322D31",
"9	c #2E252E",
"0	c #30282E",
"a	c #D88731",
"b	c #E39B38",
"c	c #B4682B",
"d	c #D08733",
"e	c #7F4D2C",
"f	c #51362D",
"g	c #64402D",
"    ....................            ....................        ",
"    ....................            ....................        ",
"    ....................            ....................        ",
"    ....................            ....................        ",
"........................++++    ........................++++    ",
"........................++++    ........................++++    ",
"........................++++    ........................++++    ",
"........................++++@@@@@@@@....................++++    ",
"........................++++@@@@@@@@....................++++    ",
"........................++++@@@@@@@@....................++++    ",
"........................++++#$$$$$$#....................++++    ",
"........................+@@@%&&&&&&%@@@.................++++    ",
"........................+@@@%&&&&&&%@@@.................++++    ",
"........................+@@@%&&&&&&%@@@.................++++    ",
".....................@@@*===-&&&&&&-===*@@@.............++++    ",
".....................@@@*;;;>&&&&&&>;;;*@@@.............++++    ",
".....................@@@*;;;>&&&&&&>;;;*@@@.............++++    ",
".....................@@@,''')&&&!!!~;;;*@@@.............++++    ",
".....................@@@{&&&&&&&;;;;;;;*@@@.............++++    ",
".....................@@@{&&&&&&&;;;;;;;*@@@.............++++    ",
".....................@@@{&&&&&&&;;;;;;;*@@@.........++++++++    ",
".....................@@@,''')&&&;;;;;;;*@@@.........++++++++    ",
".....................@@@*;;;>&&&;;;;;;;*@@@.........++++++++    ",
".....................@@@*;;;>&&&;;;;;;;*@@@.........++++++++    ",
".....................{{{]^^^>&&&;;;;;;;/***+++++++++++++((((    ",
"..................@@@_&&&&&&&&&&;;;;;;;;;;:@@@++++++++++((((    ",
"..................@@@_&&&&&&&&&&;;;;;;;;;;:@@@++++++++++((((    ",
"..................@@@_&&&&&&&&&&;;;;;;;;;;:@@@++++++++++((((    ",
"..................@@@<~~~~~>[}}};;;;;;;;;;:@@@((((((((((        ",
"..................@@@:;;;;;;|111;;;;;;;;;;:@@@((((((((((        ",
"..................@@@:;;;;;;|111;;;;;;;;;;:@@@((((((((((        ",
"..................@@@:;;;;;;|111;;;;;;;;;;:@@@((((((((((        ",
"..................@@@21111111111;;;;;;;;;;:@@@..........        ",
"..................@@@21111111111;;;;;;;;;;:@@@..........        ",
"..................@@@21111111111;;;;;;;;;;:@@@..........        ",
"..................@@@3||||||4111;;;;;;;;;;:@@@..........        ",
"..................@@@:;;;;;;|111;;;;;;;;;;:@@@..........++++    ",
"..................@@@:;;;;;;|111;;;;;;;;;;:@@@..........++++    ",
"..................@@@:;;;;;;|111;;;;;;;;;;:@@@..........++++    ",
".....................**,56647111;;;;;;;/**8.............++++    ",
".....................@@@91111111;;;;;;;*@@@.............++++    ",
".....................@@@91111111;;;;;;;*@@@.............++++    ",
".....................@@@0aaa6111;;;;;;;*@@@.............++++    ",
".....................@@@*;;;|111;;;;;;;*@@@.............++++    ",
".....................@@@*;;;|111;;;;;;;*@@@.............++++    ",
".....................@@@*;;;|111;;;;;;;*@@@.............++++    ",
".....................@@@9aaa7111aaab;;;*@@@.............++++    ",
".....................@@@91111111111|;;;*@@@.............++++    ",
".....................@@@91111111111|;;;*@@@.............++++    ",
".....................@@@9cccc111111d===*@@@.............++++    ",
"........................+@@@2111111e@@@.................++++    ",
"........................+@@@e111111e@@@.................++++    ",
"....................+++++@@@e111111e@@@.............++++++++    ",
"....................++++++++fggggggf................++++++++    ",
"....................++++++++@@@@@@@@................++++++++    ",
"....................++++++++@@@@@@@@................++++++++    ",
"((((++++++++++++++++++++((((@@@@@@@@++++++++++++++++++++((((    ",
"((((++++++++++++++++++++((((    ((((++++++++++++++++++++((((    ",
"((((++++++++++++++++++++((((    ((((++++++++++++++++++++((((    ",
"((((++++++++++++++++++++((((    ((((++++++++++++++++++++((((    ",
"    ((((((((((((((((((((            ((((((((((((((((((((        ",
"    ((((((((((((((((((((            ((((((((((((((((((((        ",
"    ((((((((((((((((((((            ((((((((((((((((((((        ",
"    ((((((((((((((((((((            ((((((((((((((((((((        "};
