/* XPM */
static char * coin4_xpm[] = {
"64 64 27 1",
" 	c #514047",
".	c #77514C",
"+	c #8D5D57",
"@	c #14182E",
"#	c #605D4A",
"$	c #797452",
"%	c #9A925F",
"&	c #FFEE83",
"*	c #93763E",
"=	c #F2BD4A",
"-	c #927239",
";	c #F0B541",
">	c #947B44",
",	c #F4C554",
"'	c #59413E",
")	c #958049",
"!	c #F6CD5D",
"~	c #7F4D2C",
"{	c #CF752B",
"]	c #875D32",
"^	c #DD9034",
"/	c #82522E",
"(	c #D47E2E",
"_	c #845830",
":	c #D88731",
"<	c #5B4B34",
"[	c #725B36",
"    ....................            ....................        ",
"    ....................            ....................        ",
"    ....................            ....................        ",
"    ....................            ....................        ",
"........................++++    ........................++++    ",
"........................++++    ........................++++    ",
"........................++++    ........................++++    ",
"........................++++@@@@@@@@....................++++    ",
"........................++++@@@@@@@@....................++++    ",
"........................++++@@@@@@@@....................++++    ",
"........................++++#$$$$$$#....................++++    ",
"........................+@@@%&&&&&&%@@@.................++++    ",
"........................+@@@%&&&&&&%@@@.................++++    ",
"........................+@@@%&&&&&&%@@@.................++++    ",
"........................+@@@*======*@@@.................++++    ",
"........................+@@@-;;;;;;-@@@.................++++    ",
"........................+@@@-;;;;;;-@@@.................++++    ",
"........................+@@@>,,,,,,>@@@.................++++    ",
"........................+@@@%&&&&&&%@@@.................++++    ",
"........................+@@@%&&&&&&%@@@.................++++    ",
"........................+@@@%&&&&&&%@@@.............++++++++    ",
"........................+@@@>,,,,,,>@@@.............++++++++    ",
"........................+@@@-;;;;;;-@@@.............++++++++    ",
"........................+@@@-;;;;;;-@@@.............++++++++    ",
"........................+@@@*======*@@@+++++++++++++++++''''    ",
"........................+@@@%&&&&&&%@@@+++++++++++++++++''''    ",
"........................+@@@%&&&&&&%@@@+++++++++++++++++''''    ",
"........................+@@@%&&&&&&%@@@+++++++++++++++++''''    ",
"........................+@@@)!!!!!!)@@@'''''''''''''''''        ",
"........................+@@@-;;;;;;-@@@'''''''''''''''''        ",
"........................+@@@-;;;;;;-@@@'''''''''''''''''        ",
"........................+@@@-;;;;;;-@@@'''''''''''''''''        ",
"........................+@@@~{{{{{{~@@@.................        ",
"........................+@@@~{{{{{{~@@@.................        ",
"........................+@@@~{{{{{{~@@@.................        ",
"........................+@@@]^^^^^^]@@@.................        ",
"........................+@@@-;;;;;;-@@@.................++++    ",
"........................+@@@-;;;;;;-@@@.................++++    ",
"........................+@@@-;;;;;;-@@@.................++++    ",
"........................+@@@/((((((/@@@.................++++    ",
"........................+@@@~{{{{{{~@@@.................++++    ",
"........................+@@@~{{{{{{~@@@.................++++    ",
"........................+@@@_::::::_@@@.................++++    ",
"........................+@@@-;;;;;;-@@@.................++++    ",
"........................+@@@-;;;;;;-@@@.................++++    ",
"........................+@@@-;;;;;;-@@@.................++++    ",
"........................+@@@_::::::_@@@.................++++    ",
"........................+@@@~{{{{{{~@@@.................++++    ",
"........................+@@@~{{{{{{~@@@.................++++    ",
"........................+@@@/((((((/@@@.................++++    ",
"........................+@@@-;;;;;;-@@@.................++++    ",
"........................+@@@-;;;;;;-@@@.................++++    ",
"....................+++++@@@-;;;;;;-@@@.............++++++++    ",
"....................++++++++<[[[[[[<................++++++++    ",
"....................++++++++@@@@@@@@................++++++++    ",
"....................++++++++@@@@@@@@................++++++++    ",
"''''++++++++++++++++++++''''@@@@@@@@++++++++++++++++++++''''    ",
"''''++++++++++++++++++++''''    ''''++++++++++++++++++++''''    ",
"''''++++++++++++++++++++''''    ''''++++++++++++++++++++''''    ",
"''''++++++++++++++++++++''''    ''''++++++++++++++++++++''''    ",
"    ''''''''''''''''''''            ''''''''''''''''''''        ",
"    ''''''''''''''''''''            ''''''''''''''''''''        ",
"    ''''''''''''''''''''            ''''''''''''''''''''        ",
"    ''''''''''''''''''''            ''''''''''''''''''''        "};
