/* XPM */
static char * IDLE2_L_xpm[] = {
"64 64 197 2",
"  	c #514047",
". 	c #77514C",
"+ 	c #8D5D57",
"@ 	c #131313",
"# 	c #55331E",
"$ 	c #7C4526",
"% 	c #764225",
"& 	c #663922",
"* 	c #E07438",
"= 	c #D26C35",
"- 	c #452B1C",
"; 	c #A3572D",
"> 	c #BB6331",
", 	c #DC7237",
"' 	c #824827",
") 	c #A6582D",
"! 	c #ABACAD",
"~ 	c #DDDDDD",
"{ 	c #8A95AB",
"] 	c #838CA1",
"^ 	c #79839A",
"/ 	c #787B88",
"( 	c #865251",
"_ 	c #9A3021",
": 	c #B94829",
"< 	c #C94B26",
"[ 	c #CD522A",
"} 	c #1A1A1C",
"| 	c #C6C5C9",
"1 	c #FFFFFF",
"2 	c #9DABC0",
"3 	c #92A1B9",
"4 	c #8593AC",
"5 	c #657392",
"6 	c #775261",
"7 	c #8A2721",
"8 	c #8E251D",
"9 	c #B63C22",
"0 	c #C64524",
"a 	c #191514",
"b 	c #949698",
"c 	c #D5DAE4",
"d 	c #C7CFDD",
"e 	c #7F8DA8",
"f 	c #7D454D",
"g 	c #353637",
"h 	c #414346",
"i 	c #F4F5F8",
"j 	c #9AA8BE",
"k 	c #6E7C9A",
"l 	c #795157",
"m 	c #853738",
"n 	c #AE3A24",
"o 	c #717171",
"p 	c #DDE2EA",
"q 	c #BBC4D4",
"r 	c #7785A2",
"s 	c #6B6B6B",
"t 	c #9E9FA1",
"u 	c #E9ECF2",
"v 	c #494949",
"w 	c #8C2924",
"x 	c #94291E",
"y 	c #34383E",
"z 	c #B5BECD",
"A 	c #878E99",
"B 	c #45484D",
"C 	c #8C929E",
"D 	c #6A6978",
"E 	c #5A5F66",
"F 	c #972A1E",
"G 	c #BD552B",
"H 	c #303339",
"I 	c #5F6877",
"J 	c #D25A2D",
"K 	c #5E3620",
"L 	c #8B98AC",
"M 	c #6A7896",
"N 	c #697694",
"O 	c #221717",
"P 	c #2C1715",
"Q 	c #7C221C",
"R 	c #72211B",
"S 	c #353A47",
"T 	c #8E9BB3",
"U 	c #7E8CA6",
"V 	c #626E8C",
"W 	c #17181B",
"X 	c #87241C",
"Y 	c #5A6474",
"Z 	c #262931",
"` 	c #391917",
" .	c #6B7386",
"..	c #49505A",
"+.	c #8897B0",
"@.	c #596584",
"#.	c #525D75",
"$.	c #26282E",
"%.	c #671F1A",
"&.	c #474B55",
"*.	c #343946",
"=.	c #491C18",
"-.	c #59413E",
";.	c #3B414A",
">.	c #727E94",
",.	c #808FA9",
"'.	c #434A5C",
").	c #2D313B",
"!.	c #5C1E19",
"~.	c #6A4A3E",
"{.	c #A66A5A",
"].	c #A75F5B",
"^.	c #9C5853",
"/.	c #502F38",
"(.	c #854928",
"_.	c #A02F1F",
":.	c #962F24",
"<.	c #564259",
"[.	c #655267",
"}.	c #8F838D",
"|.	c #837F90",
"1.	c #872824",
"2.	c #424C6E",
"3.	c #566283",
"4.	c #676B87",
"5.	c #AEB9CC",
"6.	c #5E6A89",
"7.	c #222325",
"8.	c #4E2827",
"9.	c #8E322D",
"0.	c #62708F",
"a.	c #7987A2",
"b.	c #482522",
"c.	c #5D2C28",
"d.	c #724D54",
"e.	c #4A5576",
"f.	c #542926",
"g.	c #ABB6C9",
"h.	c #4A5476",
"i.	c #3D2022",
"j.	c #391F21",
"k.	c #4D3D44",
"l.	c #525E7E",
"m.	c #3E4764",
"n.	c #2E3445",
"o.	c #21242A",
"p.	c #717F9C",
"q.	c #363D57",
"r.	c #2A2D35",
"s.	c #1E2129",
"t.	c #48333A",
"u.	c #4E597A",
"v.	c #363C5C",
"w.	c #2A2F4E",
"x.	c #909FB7",
"y.	c #933422",
"z.	c #FAC226",
"A.	c #BA9423",
"B.	c #2B2C2D",
"C.	c #6C3630",
"D.	c #593849",
"E.	c #964634",
"F.	c #C6971F",
"G.	c #4F5156",
"H.	c #B6B7B9",
"I.	c #CFD6E2",
"J.	c #9BA1AB",
"K.	c #FFA214",
"L.	c #E58516",
"M.	c #6D3640",
"N.	c #1E2024",
"O.	c #A1AEC3",
"P.	c #A73D1B",
"Q.	c #50382A",
"R.	c #512F13",
"S.	c #FA9714",
"T.	c #ED7614",
"U.	c #C6885B",
"V.	c #CE7531",
"W.	c #1F1913",
"X.	c #E1E5ED",
"Y.	c #B6C0D1",
"Z.	c #5C6169",
"`.	c #56595E",
" +	c #595A5F",
".+	c #906E68",
"++	c #C67A68",
"@+	c #B87067",
"#+	c #A46767",
"$+	c #E49628",
"%+	c #73615B",
"&+	c #643813",
"*+	c #D79634",
"=+	c #BDADB6",
"-+	c #C4A9AB",
";+	c #1C1D20",
">+	c #49526B",
"        . . . . . . . . . . . . . . . . . . . .                         . . . . . . . . . . . . . . . . . . . .                 ",
"        . . . . . . . . . . . . . . . . . . . .                         . . . . . . . . . . . . . . . . . . . .                 ",
"        . . . . . . . . . . . . . . . . . . . .                         . . . . . . . . . . . . . . . . . . . .                 ",
"        . . . . . . . . . . . . . . . . . . . .                         . . . . . . . . . . . . . . . . . . . .                 ",
". . . . . . . . . . . . . . . . . . . . . . . . + + + +         . . . . . @ @ @ @ @ @ @ . . . . . . . . . . . . + + + +         ",
". . . . . . . . . . . . . . . . . . . . . . . . + + + +         . . . @ # $ $ $ $ $ $ % @ . . . . . . . . . . . + + + +         ",
". . . . . . . . . . . . . . . . . . . . . . . . + + + +         . . . @ & * * * * * * = @ @ . . . . . . . . . . + + + +         ",
". . . . . . . . . . . . . . . . . . . . . . . . + + + +   @ @ @ @ @ - ; > * * * * * * , ; ' @ . . . . . . . . . + + + +         ",
". . . . . . . . . . . . . . . . . . . . . . . . + + + +   @ @ @ @ @ - * * * * * * * * * * ) @ @ . . . . . . . . + + + +         ",
". . . . . . . . . . . . . . . . . . . . . . . . + + + + @ ! ~ { ] ] ^ / ( _ _ _ : < < [ * ) @ @ . . . . . . . . + + + +         ",
". . . . . . . . . . . . . . . . . . . . . . . . + + + } } | 1 2 3 3 4 5 6 7 8 8 9 0 0 < * ) a a . . . . . . . . + + + +         ",
". . . . . . . . . . . . . . . . . . . . . . . . + + @ b 1 c d d d 3 3 3 e 5 f 8 9 0 0 0 0 [ * ' @ . . . . . . . + + + +         ",
". . . . . . . . . . . . . . . . . . . . . . . . + g h ! i c d d d 2 j 3 4 k l m n 9 0 0 0 [ * ' @ . . . . . . . + + + +         ",
". . . . . . . . . . . . . . . . . . . . . . . . @ o 1 p d d d d d d q 3 3 3 r 5 m 8 0 0 0 [ * ' @ . . . . . . . + + + +         ",
". . . . . . . . . . . . . . . . . . . . . . . g s t u c d d d d d d q 3 3 3 r 5 l f n 9 0 [ * ' @ . . . . . . . + + + +         ",
". . . . . . . . . . . . . . . . . . . . . . @ v 1 u d d d d d d d d q 3 3 3 r 5 5 5 w x 0 [ * ' @ . . . . . . . + + + +         ",
". . . . . . . . . . . . . . . . . . . . . . @ v 1 u d d d d d d d d q 3 3 3 r 5 5 5 w x 0 [ * ' @ . . . . . . . + + + +         ",
". . . . . . . . . . . . . . . . . . . . . . @ v 1 u d d d d d d d d q 3 3 3 r 5 5 5 w x 0 [ * ' @ . . . . . . . + + + +         ",
". . . . . . . . . . . . . . . . . . . . . . @ y z A B C d D B q q B E 3 3 3 r 5 5 5 w 8 F n [ G ) # @ . . @ @ . + + + +         ",
". . . . . . . . . . . . . . . . . . . . . . @ H 3 I @ / d h @ z z @ y 3 3 3 r 5 5 5 w 8 8 F 0 J * K @ . . @ @ . + + + +         ",
". . . . . . . . . . . . . . . . . . . . . . @ H 3 I @ / d h @ L L @ y 3 4 M N 5 5 5 O P 8 8 x : * K @ @ @ Q R @ @ + + +         ",
". . . . . . . . . . . . . . . . . . . . . . @ H 3 I @ / d h @ 4 { } S T U 5 5 5 V V W O X X 8 : , & a a a X Q @ @ + + +         ",
". . . . . . . . . . . . . . . . . . . . . . @ H 3 I @ Y 3 y @ 4 3 3 4 5 5 5 5 5 Z @ . . @ ` 8 8 8 8 8 8 8 8 Q @ @ + + +         ",
". . . . . . . . . . . . . . . . . . . . . . @ H ^ Y H  .3 ..H L 3 +.e 5 5 5 @.#.$.@ . . @ ` R Q 8 8 8 Q R R %.@ @ + + +         ",
". . . . . . . . . . . . . . . . . . . . . . . . @ &.3 3 3 3 3 3 T 5 5 5 5 5 *.@ + + + + + + @ =.8 8 8 P @ @ @ + -.-.-.-.        ",
". . . . . . . . . . . . . . . . . . . . . . . . @ ;.I >.,.,.,.,.e 5 5 5 Y '.).@ + + + + + + @ ` !.!.!.P @ @ @ + -.-.-.-.        ",
". . . . . . . . . . . . . . . . . . . . . . . . + + @ '.5 5 5 5 5 5 5 5 '.@ + + + + + + + + + + @ @ @ + + + + + -.-.-.-.        ",
". . . . . . . . . . . . . . . . . . . . . . . . + + @ ~.{.].^.^.^.f f f /.@ + + + + + + + + + + + + + + + + + + -.-.-.-.        ",
". . . . . . . . . . . . . . . . . . . . . . . . + + @ (.* [ 0 0 0 8 8 8 !.@ -.-.-.-.-.-.-.-.-.-.-.-.-.-.-.-.-.-.                ",
". . . . . . . . . . . . . . . . . . . . . . . . @ K ) G [ < 0 _.:.<.[.}.|.>.;.@ -.-.-.-.-.-.-.-.-.-.-.-.-.-.-.-.                ",
". . . . . . . . . . . . . . . . . . . . . . . . @ & * J 0 0 0 x 1.2.3.3 3 3 &.@ -.-.-.-.-.-.-.-.-.-.-.-.-.-.-.-.                ",
". . . . . . . . . . . . . . . . . . @ @ @ @ @ @ @ =.F x x x x D 4.2.V d 5.3 ^ 6.$.@ -.-.-.-.-.-.-.-.-.-.-.-.-.-.                ",
". . . . . . . . . . . . . . . . . . a a a a a } 7.8.9.9.9.9.9.4.0.2.V q 5.j a.5 Z @ . . . . . . . . . . . . . .                 ",
". . . . . . . . . . . . . . . . @ @ b.c.c.c.c.d.d z 3 3 3 3 3 N 0.2.e.5 +.d +.5 Z @ . . . . . . . . . . . . . .                 ",
". . . . . . . . . . . . . . . . @ @ b.c.f.f.f.d.q g.3 3 3 3 3 N 0.2.h.6.U 5.,.5 Z @ . . . . . . . . . . . . . .                 ",
". . . . . . . . . . . . . . . . @ @ b.c.i.j.j.k.3 3 3 3 3 3 3 N 0.2.2.2.l.5 5 5 Z @ . . . . . . . . . . . . . .                 ",
". . . . . . . . . . . . . . . . @ @ b.c.i.j.j.k.3 3 3 3 3 4 e N 0.2.m.n.m.3.3.3.o.@ . . . . . . . . . . . . . . + + + +         ",
". . . . . . . . . . . . . . . . @ @ b.c.i.j.j.k.3 3 3 3 3 p.5 5 0.2.q.@ r.2.2.2.s.@ . . . . . . . . . . . . . . + + + +         ",
". . . . . . . . . . . . . . . . @ @ b.c.i.j.j.t.r r r r r M 5 l.u.2.q.@ ;.p.V 3.o.@ . . . . . . . . . . . . . . + + + +         ",
". . . . . . . . . . . . . . . . @ @ b.c.i.j.j.t.5 5 5 5 5 5 5 2.2.2.q.@ ..3 r 5 Z @ . . . . . . . . . . . . . . + + + +         ",
". . . . . . . . . . . . . . . . @ @ b.c./ ^ ^  .v.m.e.e.e.e.e.2.2.2.q.@ ..3 r 5 Z @ . . . . . . . . . . . . . . + + + +         ",
". . . . . . . . . . . . . . . . @ @ b.c.{ 3 3 a.w.v.2.2.2.2.2.2.2.2.q.@ ..3 r 5 Z @ . . . . . . . . . . . . . . + + + +         ",
". . . . . . . @ @ @ @ @ @ @ @ @ @ @ b.c.{ x.N @.w./.7 7 7 7 7 7 y.z.A.@ ..3 r 5 Z @ . . . . . . . . . . . . . . + + + +         ",
". . . . . . . B.B.B.$.7.7.7.7.7.7.7./.C.{ x.M 6.v.D.9.9.9.9.9.9.E.z.F.O G.+.p.V $.@ . . . . . . . . . . . . . . + + + +         ",
". . . . . @ @ H.1 I.d 3 3 3 3 3 3 3 3 3 3 3 3 3 3 3 3 3 3 3 3 3 J.K.L.8 M.2.2.2.N.@ . . . . . . . . . . . . . . + + + +         ",
". . . . . . @ b H.c c O.2 3 3 3 3 3 3 3 3 3 3 3 3 3 3 3 3 3 3 3 J.K.L.P.( @.l.u.Q.R.. . . . . . . . . . . . . . + + + +         ",
". . . . . . . @ @ ~ 1 d q 3 3 3 3 3 3 3 3 3 3 3 3 3 3 3 3 3 3 3 J.K.S.T.U.3 r 5 V.T.W.@ . . . . . . . . . . . . + + + +         ",
". . . . . . . . @ }.b X.p d d d Y.g.g.g.g.g.g.g.g.g.g.g.g.g.g.g.H.K.S.T.U.3 r 5 V.T.W.@ . . . . . . . . . . . . + + + +         ",
". . . . . . . . . @ } 1 1 1 1 1 X.d d d d d d d d d d d d d d d | K.S.T.U.3 r 5 V.T.W.@ . . . . . . . . . . . . + + + +         ",
". . . . . . . . . . . s s s s s Z.`.`.`.`. +.+.+++@+#+}.{ { { ++++K.$+.+%+B S n.# &+. . . . . . . . . . . . . . + + + +         ",
". . . . . . . . . . . @ @ @ @ @ @ @ @ @ @ a c.C.0 n 8 6 5 5 5 : < K.*+5 '.@ @ @ @ @ . . . . . . . . . . . . . . + + + +         ",
". . . . . . . . . . . . . . . . . . . . . . O ` F ].=+] 5 5 5 =+-+P.E.5 '.@ @ . . . . . . . . . . . . . . . . . + + + +         ",
". . . . . . . . . . . . . . . . . . . . + + @ P 8 #+d +.5 5 5 q | 8 m 5 '.@ . . . . . . . . . . . . . . + + + + + + + +         ",
". . . . . . . . . . . . . . . . . . . . + + + + a a } S 2.2.2.;+;+2.2.2.l.0.*.@ . . . . . . . . . . . . + + + + + + + +         ",
". . . . . . . . . . . . . . . . . . . . + + + + @ @ @ S u.h.h.} } l.l.u.@.5 *.@ . . . . . . . . . . . . + + + + + + + +         ",
". . . . . . . . . . . . . . . . . . . . + + + + + + @ Y 3 p.5 } 7.d q 3 e 5 *.@ . . . . . . . . . . . . + + + + + + + +         ",
"-.-.-.-.+ + + + + + + + + + + + + + + + + + + + -.-.@ >+a.V @.} } C C a.M @.n.@ + + + + + + + + + + + + + + + + -.-.-.-.        ",
"-.-.-.-.+ + + + + + + + + + + + + + + + + + + + -.-.@ n.2.2.2.W @ @ s.2.2.2.r.@ + + + + + + + + + + + + + + + + -.-.-.-.        ",
"-.-.-.-.+ + + + + + + + + + + + + + + + + + + + -.-.@ '.N @.3.} @ @ r.N 6.l.).@ + + + + + + + + + + + + + + + + -.-.-.-.        ",
"-.-.-.-.+ + + + + + + + + + + + + + + + + + + + -.-.@ Y 3 p.5 } @ @ y 3 e 5 *.@ + + + + + + + + + + + + + + + + -.-.-.-.        ",
"        -.-.-.-.-.-.-.-.-.-.-.-.-.-.-.-.-.-.-.-.@ G.A ^ r N 5 } } A A ^ k 5 *.@ -.-.-.-.-.-.-.-.-.-.-.-.-.-.-.-.                ",
"        -.-.-.-.-.-.-.-.-.-.-.-.-.-.-.-.-.-.-.-.@ E d +.5 5 5 } 7.d 5.5 5 5 *.@ -.-.-.-.-.-.-.-.-.-.-.-.-.-.-.-.                ",
"        -.-.-.-.-.-.-.-.-.-.-.-.-.-.-.-.-.-.-.-.  B.H B.o.o.o.    H r.o.o.o.N.-.-.-.-.-.-.-.-.-.-.-.-.-.-.-.-.-.                ",
"        -.-.-.-.-.-.-.-.-.-.-.-.-.-.-.-.-.-.-.-.    @ @ @ @ @     @ @ @ @ @ -.-.-.-.-.-.-.-.-.-.-.-.-.-.-.-.-.-.                "};
