/* XPM */
static char * IDLE2_xpm[] = {
"64 64 197 2",
"  	c #514047",
". 	c #77514C",
"+ 	c #131313",
"@ 	c #8D5D57",
"# 	c #764225",
"$ 	c #7C4526",
"% 	c #55331E",
"& 	c #D26C35",
"* 	c #E07438",
"= 	c #663922",
"- 	c #824827",
"; 	c #A3572D",
"> 	c #DC7237",
", 	c #BB6331",
"' 	c #452B1C",
") 	c #A6582D",
"! 	c #CD522A",
"~ 	c #C94B26",
"{ 	c #B94829",
"] 	c #9A3021",
"^ 	c #865251",
"/ 	c #787B88",
"( 	c #79839A",
"_ 	c #838CA1",
": 	c #8A95AB",
"< 	c #DDDDDD",
"[ 	c #ABACAD",
"} 	c #191514",
"| 	c #C64524",
"1 	c #B63C22",
"2 	c #8E251D",
"3 	c #8A2721",
"4 	c #775261",
"5 	c #657392",
"6 	c #8593AC",
"7 	c #92A1B9",
"8 	c #9DABC0",
"9 	c #FFFFFF",
"0 	c #C6C5C9",
"a 	c #1A1A1C",
"b 	c #7D454D",
"c 	c #7F8DA8",
"d 	c #C7CFDD",
"e 	c #D5DAE4",
"f 	c #949698",
"g 	c #AE3A24",
"h 	c #853738",
"i 	c #795157",
"j 	c #6E7C9A",
"k 	c #9AA8BE",
"l 	c #F4F5F8",
"m 	c #414346",
"n 	c #353637",
"o 	c #7785A2",
"p 	c #BBC4D4",
"q 	c #DDE2EA",
"r 	c #717171",
"s 	c #E9ECF2",
"t 	c #9E9FA1",
"u 	c #6B6B6B",
"v 	c #94291E",
"w 	c #8C2924",
"x 	c #494949",
"y 	c #BD552B",
"z 	c #972A1E",
"A 	c #5A5F66",
"B 	c #45484D",
"C 	c #6A6978",
"D 	c #8C929E",
"E 	c #878E99",
"F 	c #B5BECD",
"G 	c #34383E",
"H 	c #5E3620",
"I 	c #D25A2D",
"J 	c #5F6877",
"K 	c #303339",
"L 	c #72211B",
"M 	c #7C221C",
"N 	c #2C1715",
"O 	c #221717",
"P 	c #697694",
"Q 	c #6A7896",
"R 	c #8B98AC",
"S 	c #87241C",
"T 	c #17181B",
"U 	c #626E8C",
"V 	c #7E8CA6",
"W 	c #8E9BB3",
"X 	c #353A47",
"Y 	c #391917",
"Z 	c #262931",
"` 	c #5A6474",
" .	c #671F1A",
"..	c #26282E",
"+.	c #525D75",
"@.	c #596584",
"#.	c #8897B0",
"$.	c #49505A",
"%.	c #6B7386",
"&.	c #491C18",
"*.	c #343946",
"=.	c #474B55",
"-.	c #59413E",
";.	c #5C1E19",
">.	c #2D313B",
",.	c #434A5C",
"'.	c #808FA9",
").	c #727E94",
"!.	c #3B414A",
"~.	c #502F38",
"{.	c #9C5853",
"].	c #A75F5B",
"^.	c #A66A5A",
"/.	c #6A4A3E",
"(.	c #854928",
"_.	c #837F90",
":.	c #8F838D",
"<.	c #655267",
"[.	c #564259",
"}.	c #962F24",
"|.	c #A02F1F",
"1.	c #566283",
"2.	c #424C6E",
"3.	c #872824",
"4.	c #5E6A89",
"5.	c #AEB9CC",
"6.	c #676B87",
"7.	c #7987A2",
"8.	c #62708F",
"9.	c #8E322D",
"0.	c #4E2827",
"a.	c #222325",
"b.	c #4A5576",
"c.	c #724D54",
"d.	c #5D2C28",
"e.	c #482522",
"f.	c #4A5476",
"g.	c #ABB6C9",
"h.	c #542926",
"i.	c #525E7E",
"j.	c #4D3D44",
"k.	c #391F21",
"l.	c #3D2022",
"m.	c #21242A",
"n.	c #3E4764",
"o.	c #2E3445",
"p.	c #1E2129",
"q.	c #2A2D35",
"r.	c #363D57",
"s.	c #717F9C",
"t.	c #4E597A",
"u.	c #48333A",
"v.	c #363C5C",
"w.	c #2A2F4E",
"x.	c #BA9423",
"y.	c #FAC226",
"z.	c #933422",
"A.	c #909FB7",
"B.	c #4F5156",
"C.	c #C6971F",
"D.	c #964634",
"E.	c #593849",
"F.	c #6C3630",
"G.	c #2B2C2D",
"H.	c #1E2024",
"I.	c #6D3640",
"J.	c #E58516",
"K.	c #FFA214",
"L.	c #9BA1AB",
"M.	c #CFD6E2",
"N.	c #B6B7B9",
"O.	c #512F13",
"P.	c #50382A",
"Q.	c #A73D1B",
"R.	c #A1AEC3",
"S.	c #1F1913",
"T.	c #ED7614",
"U.	c #CE7531",
"V.	c #C6885B",
"W.	c #FA9714",
"X.	c #B6C0D1",
"Y.	c #E1E5ED",
"Z.	c #643813",
"`.	c #73615B",
" +	c #906E68",
".+	c #E49628",
"++	c #C67A68",
"@+	c #A46767",
"#+	c #B87067",
"$+	c #595A5F",
"%+	c #56595E",
"&+	c #5C6169",
"*+	c #D79634",
"=+	c #C4A9AB",
"-+	c #BDADB6",
";+	c #1C1D20",
">+	c #49526B",
"        . . . . . . . . . . . . . . . . . . . .                         . . . . . . . . . . . . . . . . . . . .                 ",
"        . . . . . . . . . . . . . . . . . . . .                         . . . . . . . . . . . . . . . . . . . .                 ",
"        . . . . . . . . . . . . . . . . . . . .                         . . . . . . . . . . . . . . . . . . . .                 ",
"        . . . . . . . . . . . . . . . . . . . .                         . . . . . . . . . . . . . . . . . . . .                 ",
". . . . . . . . . . . . . . . . . . . . + + + + + + + @         . . . . . . . . . . . . . . . . . . . . . . . . @ @ @ @         ",
". . . . . . . . . . . . . . . . . . . + # $ $ $ $ $ $ % +       . . . . . . . . . . . . . . . . . . . . . . . . @ @ @ @         ",
". . . . . . . . . . . . . . . . . . + + & * * * * * * = +       . . . . . . . . . . . . . . . . . . . . . . . . @ @ @ @         ",
". . . . . . . . . . . . . . . . . + - ; > * * * * * * , ; ' + + + + + . . . . . . . . . . . . . . . . . . . . . @ @ @ @         ",
". . . . . . . . . . . . . . . . + + ) * * * * * * * * * * ' + + + + + . . . . . . . . . . . . . . . . . . . . . @ @ @ @         ",
". . . . . . . . . . . . . . . . + + ) * ! ~ ~ { ] ] ] ^ / ( _ _ : < [ + . . . . . . . . . . . . . . . . . . . . @ @ @ @         ",
". . . . . . . . . . . . . . . . } } ) * ~ | | 1 2 2 3 4 5 6 7 7 8 9 0 a a . . . . . . . . . . . . . . . . . . . @ @ @ @         ",
". . . . . . . . . . . . . . . + - * ! | | | | 1 2 b 5 c 7 7 7 d d d e 9 f + . . . . . . . . . . . . . . . . . . @ @ @ @         ",
". . . . . . . . . . . . . . . + - * ! | | | 1 g h i j 6 7 k 8 d d d e l [ m n . . . . . . . . . . . . . . . . . @ @ @ @         ",
". . . . . . . . . . . . . . . + - * ! | | | 2 h 5 o 7 7 7 p d d d d d d q 9 r + . . . . . . . . . . . . . . . . @ @ @ @         ",
". . . . . . . . . . . . . . . + - * ! | 1 g b i 5 o 7 7 7 p d d d d d d e s t u n . . . . . . . . . . . . . . . @ @ @ @         ",
". . . . . . . . . . . . . . . + - * ! | v w 5 5 5 o 7 7 7 p d d d d d d d d s 9 x + . . . . . . . . . . . . . . @ @ @ @         ",
". . . . . . . . . . . . . . . + - * ! | v w 5 5 5 o 7 7 7 p d d d d d d d d s 9 x + . . . . . . . . . . . . . . @ @ @ @         ",
". . . . . . . . . . . . . . . + - * ! | v w 5 5 5 o 7 7 7 p d d d d d d d d s 9 x + . . . . . . . . . . . . . . @ @ @ @         ",
". . . . . . . . . + + . . + % ) y ! g z 2 w 5 5 5 o 7 7 7 A B p p B C d D B E F G + . . . . . . . . . . . . . . @ @ @ @         ",
". . . . . . . . . + + . . + H * I | z 2 2 w 5 5 5 o 7 7 7 G + F F + m d / + J 7 K + . . . . . . . . . . . . . . @ @ @ @         ",
". . . . . . . + + L M + + + H * { v 2 2 N O 5 5 5 P Q 6 7 G + R R + m d / + J 7 K + . . . . . . . . . . @ @ @ @ @ @ @ @         ",
". . . . . . . + + M S } } } = > { 2 S S O T U U 5 5 5 V W X a : 6 + m d / + J 7 K + . . . . . . . . . . @ @ @ @ @ @ @ @         ",
". . . . . . . + + M 2 2 2 2 2 2 2 2 Y + . . + Z 5 5 5 5 5 6 7 7 6 + G 7 ` + J 7 K + . . . . . . . . . . @ @ @ @ @ @ @ @         ",
". . . . . . . + +  .L L M 2 2 2 M L Y + . . + ..+.@.5 5 5 c #.7 R K $.7 %.K ` ( K + . . . . . . . . . . @ @ @ @ @ @ @ @         ",
". . . . . . . . . + + + N 2 2 2 &.+ . . . . . . + *.5 5 5 5 5 W 7 7 7 7 7 7 =.+ @ @ @ @ @ @ @ @ @ @ @ @ @ @ @ @ -.-.-.-.        ",
". . . . . . . . . + + + N ;.;.;.Y + . . . . . . + >.,.` 5 5 5 c '.'.'.'.).J !.+ @ @ @ @ @ @ @ @ @ @ @ @ @ @ @ @ -.-.-.-.        ",
". . . . . . . . . . . . . + + + . . . . . . . . @ @ + ,.5 5 5 5 5 5 5 5 ,.+ @ @ @ @ @ @ @ @ @ @ @ @ @ @ @ @ @ @ -.-.-.-.        ",
". . . . . . . . . . . . . . . . . . . . . . . . @ @ + ~.b b b {.{.{.].^./.+ @ @ @ @ @ @ @ @ @ @ @ @ @ @ @ @ @ @ -.-.-.-.        ",
". . . . . . . . . . . . . . . . . . . . . . . . @ @ + ;.2 2 2 | | | ! * (.+ -.-.-.-.-.-.-.-.-.-.-.-.-.-.-.-.-.-.                ",
". . . . . . . . . . . . . . . . . . . . . . . . + !.)._.:.<.[.}.|.| ~ ! y ) H + -.-.-.-.-.-.-.-.-.-.-.-.-.-.-.-.                ",
". . . . . . . . . . . . . . . . . . . . . . . . + =.7 7 7 1.2.3.v | | | I * = + -.-.-.-.-.-.-.-.-.-.-.-.-.-.-.-.                ",
". . . . . . . . . . . . . . . . . . . . . . + ..4.( 7 5.d U 2.6.C v v v v z &.+ + + + + + + -.-.-.-.-.-.-.-.-.-.                ",
". . . . . . . . . . . . . . . . . . . . . . + Z 5 7.k 5.p U 2.8.6.9.9.9.9.9.0.a.a } } } } } . . . . . . . . . .                 ",
". . . . . . . . . . . . . . . . . . . . . . + Z 5 #.d #.5 b.2.8.P 7 7 7 7 7 F d c.d.d.d.d.e.+ + . . . . . . . .                 ",
". . . . . . . . . . . . . . . . . . . . . . + Z 5 '.5.V 4.f.2.8.P 7 7 7 7 7 g.p c.h.h.h.d.e.+ + . . . . . . . .                 ",
". . . . . . . . . . . . . . . . . . . . . . + Z 5 5 5 i.2.2.2.8.P 7 7 7 7 7 7 7 j.k.k.l.d.e.+ + . . . . . . . .                 ",
". . . . . . . . . . . . . . . . . . . . . . + m.1.1.1.n.o.n.2.8.P c 6 7 7 7 7 7 j.k.k.l.d.e.+ + . . . . . . . . @ @ @ @         ",
". . . . . . . . . . . . . . . . . . . . . . + p.2.2.2.q.+ r.2.8.5 5 s.7 7 7 7 7 j.k.k.l.d.e.+ + . . . . . . . . @ @ @ @         ",
". . . . . . . . . . . . . . . . . . . . . . + m.1.U s.!.+ r.2.t.i.5 Q o o o o o u.k.k.l.d.e.+ + . . . . . . . . @ @ @ @         ",
". . . . . . . . . . . . . . . . . . . . . . + Z 5 o 7 $.+ r.2.2.2.5 5 5 5 5 5 5 u.k.k.l.d.e.+ + . . . . . . . . @ @ @ @         ",
". . . . . . . . . . . . . . . . . . . . . . + Z 5 o 7 $.+ r.2.2.2.b.b.b.b.b.n.v.%.( ( / d.e.+ + . . . . . . . . @ @ @ @         ",
". . . . . . . . . . . . . . . . . . . . . . + Z 5 o 7 $.+ r.2.2.2.2.2.2.2.2.v.w.7.7 7 : d.e.+ + . . . . . . . . @ @ @ @         ",
". . . . . . . . . . . . . . . . . . . . . . + Z 5 o 7 $.+ x.y.z.3 3 3 3 3 3 ~.w.@.P A.: d.e.+ + + + + + + + + + + @ @ @         ",
". . . . . . . . . . . . . . . . . . . . . . + ..U s.#.B.O C.y.D.9.9.9.9.9.9.E.v.4.Q A.: F.~.a.a.a.a.a.a.a...G.G.G.@ @ @         ",
". . . . . . . . . . . . . . . . . . . . . . + H.2.2.2.I.2 J.K.L.7 7 7 7 7 7 7 7 7 7 7 7 7 7 7 7 7 7 7 7 7 d M.9 N.+ + @         ",
". . . . . . . . . . . . . . . . . . . . . . O.P.t.i.@.^ Q.J.K.L.7 7 7 7 7 7 7 7 7 7 7 7 7 7 7 7 7 7 7 8 R.e e N.f + @ @         ",
". . . . . . . . . . . . . . . . . . . . + S.T.U.5 o 7 V.T.W.K.L.7 7 7 7 7 7 7 7 7 7 7 7 7 7 7 7 7 7 7 p d 9 < + + @ @ @         ",
". . . . . . . . . . . . . . . . . . . . + S.T.U.5 o 7 V.T.W.K.N.g.g.g.g.g.g.g.g.g.g.g.g.g.g.g.X.d d d q Y.f :.+ @ @ @ @         ",
". . . . . . . . . . . . . . . . . . . . + S.T.U.5 o 7 V.T.W.K.0 d d d d d d d d d d d d d d d Y.9 9 9 9 9 a + . @ @ @ @         ",
". . . . . . . . . . . . . . . . . . . . . . Z.% o.X B `. +.+K.++++: : : :.@+#+++ + +$+%+%+%+%+&+u u u u u . . . @ @ @ @         ",
". . . . . . . . . . . . . . . . . . . . . . + + + + + ,.5 *+K.~ { 5 5 5 4 2 g | F.d.} + + + + + + + + + + . . . @ @ @ @         ",
". . . . . . . . . . . . . . . . . . . . . . . . @ + + ,.5 D.Q.=+-+5 5 5 _ -+].z Y O . . . . . . . . . . . . . . @ @ @ @         ",
". . . . . . . . . . . . . . . . . . . . @ @ @ @ @ @ + ,.5 h 2 0 p 5 5 5 #.d @+2 N + . . . . . . . . . . @ @ @ @ @ @ @ @         ",
". . . . . . . . . . . . . . . . . . . . @ @ @ @ + *.8.i.2.2.2.;+;+2.2.2.X a } } . . . . . . . . . . . . @ @ @ @ @ @ @ @         ",
". . . . . . . . . . . . . . . . . . . . @ @ @ @ + *.5 @.t.i.i.a a f.f.t.X + + + . . . . . . . . . . . . @ @ @ @ @ @ @ @         ",
". . . . . . . . . . . . . . . . . . . . @ @ @ @ + *.5 c 7 p d a.a 5 s.7 ` + . . . . . . . . . . . . . . @ @ @ @ @ @ @ @         ",
"-.-.-.-.@ @ @ @ @ @ @ @ @ @ @ @ @ @ @ @ @ @ @ @ + o.@.Q 7.D D a a @.U 7.>++ @ @ @ @ @ @ @ @ @ @ @ @ @ @ @ @ @ @ -.-.-.-.        ",
"-.-.-.-.@ @ @ @ @ @ @ @ @ @ @ @ @ @ @ @ @ @ @ @ + q.2.2.2.p.+ + T 2.2.2.o.+ @ @ @ @ @ @ @ @ @ @ @ @ @ @ @ @ @ @ -.-.-.-.        ",
"-.-.-.-.@ @ @ @ @ @ @ @ @ @ @ @ @ @ @ @ @ @ @ @ + >.i.4.P q.+ + a 1.@.P ,.+ @ @ @ @ @ @ @ @ @ @ @ @ @ @ @ @ @ @ -.-.-.-.        ",
"-.-.-.-.@ @ @ @ @ @ @ @ @ @ @ @ @ @ @ @ @ @ @ @ + *.5 c 7 G + + a 5 s.7 ` + @ @ @ @ @ @ @ @ @ @ @ @ @ @ @ @ @ @ -.-.-.-.        ",
"        -.-.-.-.-.-.-.-.-.-.-.-.-.-.-.-.-.-.-.-.+ *.5 j ( E E a a 5 P o ( E B.+ -.-.-.-.-.-.-.-.-.-.-.-.-.-.-.-.                ",
"        -.-.-.-.-.-.-.-.-.-.-.-.-.-.-.-.-.-.-.-.+ *.5 5 5 5.d a.a 5 5 5 #.d A + -.-.-.-.-.-.-.-.-.-.-.-.-.-.-.-.                ",
"        -.-.-.-.-.-.-.-.-.-.-.-.-.-.-.-.-.-.-.-.  H.m.m.m.q.K     m.m.m.G.K G.-.-.-.-.-.-.-.-.-.-.-.-.-.-.-.-.-.                ",
"        -.-.-.-.-.-.-.-.-.-.-.-.-.-.-.-.-.-.-.-.    + + + + +     + + + + + -.-.-.-.-.-.-.-.-.-.-.-.-.-.-.-.-.-.                "};
