/* XPM */
static char * IDLE3_L_xpm[] = {
"64 64 191 2",
"  	c #514047",
". 	c #77514C",
"+ 	c #8D5D57",
"@ 	c #131313",
"# 	c #3E271B",
"$ 	c #7C4526",
"% 	c #1F1914",
"& 	c #452B1C",
"* 	c #E07438",
"= 	c #231917",
"- 	c #A5582D",
"; 	c #B45A2E",
"> 	c #96482C",
", 	c #C96934",
"' 	c #8A8A8B",
") 	c #DDDDDD",
"! 	c #9BA1AB",
"~ 	c #808DA1",
"{ 	c #7A849B",
"] 	c #747B8B",
"^ 	c #82656B",
"/ 	c #963225",
"( 	c #B74124",
"_ 	c #C94B26",
": 	c #DE7137",
"< 	c #17181B",
"[ 	c #969697",
"} 	c #FFFFFF",
"| 	c #AFBACC",
"1 	c #92A1B9",
"2 	c #8E9DB5",
"3 	c #657392",
"4 	c #746778",
"5 	c #8A2721",
"6 	c #8E251D",
"7 	c #B03921",
"8 	c #C64524",
"9 	c #191515",
"0 	c #777278",
"a 	c #DDE2EA",
"b 	c #C6CEDD",
"c 	c #99A4B7",
"d 	c #8594AE",
"e 	c #765868",
"f 	c #464749",
"g 	c #F3F4F7",
"h 	c #D6DCE5",
"i 	c #A2AEC2",
"j 	c #8897B0",
"k 	c #6C7B98",
"l 	c #863534",
"m 	c #A63925",
"n 	c #BA3E22",
"o 	c #E9ECF2",
"p 	c #7F8DA8",
"q 	c #7D454C",
"r 	c #6B6B6B",
"s 	c #212224",
"t 	c #853738",
"u 	c #1A1B1C",
"v 	c #B4BDCD",
"w 	c #7E838B",
"x 	c #A2ABBD",
"y 	c #54575C",
"z 	c #4D5056",
"A 	c #9C2D1F",
"B 	c #CA532A",
"C 	c #6A3C23",
"D 	c #758193",
"E 	c #585D65",
"F 	c #60646A",
"G 	c #999AA9",
"H 	c #1E1F21",
"I 	c #94291E",
"J 	c #824727",
"K 	c #1F2124",
"L 	c #6B7997",
"M 	c #687694",
"N 	c #312B31",
"O 	c #221514",
"P 	c #87241C",
"Q 	c #5F6266",
"R 	c #22252B",
"S 	c #636E8B",
"T 	c #26282D",
"U 	c #454B55",
"V 	c #49505A",
"W 	c #343945",
"X 	c #78261C",
"Y 	c #6A697A",
"Z 	c #323438",
"` 	c #5C6573",
" .	c #5B6886",
"..	c #515B73",
"+.	c #6D201A",
"@.	c #2E1715",
"#.	c #424A5C",
"$.	c #421A17",
"%.	c #59413E",
"&.	c #292C33",
"*.	c #808FA9",
"=.	c #5D1E19",
"-.	c #601E19",
";.	c #331816",
">.	c #533C2C",
",.	c #AB745F",
"'.	c #A7675B",
").	c #9C5953",
"!.	c #9B4C49",
"~.	c #613940",
"{.	c #481B17",
"].	c #D1592D",
"^.	c #5B4459",
"/.	c #8F8A97",
"(.	c #868996",
"_.	c #D66130",
":.	c #444866",
"<.	c #4B5576",
"[.	c #454F71",
"}.	c #4C5777",
"|.	c #B6C0D1",
"1.	c #7D8AA4",
"2.	c #3D2628",
"3.	c #8E322D",
"4.	c #BCC6D5",
"5.	c #B4BED0",
"6.	c #363B45",
"7.	c #2E1C1B",
"8.	c #5D2C28",
"9.	c #633735",
"0.	c #717F9C",
"a.	c #262931",
"b.	c #562926",
"c.	c #542926",
"d.	c #553631",
"e.	c #5D6A89",
"f.	c #8994AC",
"g.	c #492524",
"h.	c #391F21",
"i.	c #424C6E",
"j.	c #525E7E",
"k.	c #2E3447",
"l.	c #3F4861",
"m.	c #566283",
"n.	c #7987A2",
"o.	c #3E4665",
"p.	c #282D3B",
"q.	c #1E2129",
"r.	c #7785A2",
"s.	c #3C414D",
"t.	c #6F5B64",
"u.	c #49506C",
"v.	c #363C58",
"w.	c #2D3352",
"x.	c #F2BE24",
"y.	c #B89220",
"z.	c #2C2C2C",
"A.	c #FFC423",
"B.	c #C2961F",
"C.	c #B6B7B9",
"D.	c #CFD6E2",
"E.	c #FFA214",
"F.	c #C27D14",
"G.	c #9DAAC0",
"H.	c #D58614",
"I.	c #512F13",
"J.	c #554643",
"K.	c #FA9714",
"L.	c #ED7614",
"M.	c #C6885B",
"N.	c #CE7531",
"O.	c #E1E5ED",
"P.	c #AAB6C9",
"Q.	c #CCCBCC",
"R.	c #736267",
"S.	c #C67869",
"T.	c #AD6A66",
"U.	c #997882",
"V.	c #B7807A",
"W.	c #643813",
"X.	c #58381E",
"Y.	c #412121",
"Z.	c #A74D41",
"`.	c #98301C",
" +	c #B5A8B2",
".+	c #C7B3B8",
"++	c #8C2C26",
"@+	c #847C79",
"#+	c #67615F",
"$+	c #602C27",
"%+	c #3C4355",
"        . . . . . . . . . . . . . . . . . . . .                         . . . . . . . . . . . . . . . . . . . .                 ",
"        . . . . . . . . . . . . . . . . . . . .                         . . . . . . . . . . . . . . . . . . . .                 ",
"        . . . . . . . . . . . . . . . . . . . .                         . . . . . . . . . . . . . . . . . . . .                 ",
"        . . . . . . . . . . . . . . . . . . . .                         . . . . . . . . . . . . . . . . . . . .                 ",
". . . . . . . . . . . . . . . . . . . . . . . . + + + +         . . . @ @ @ @ @ @ @ . . . . . . . . . . . . . . + + + +         ",
". . . . . . . . . . . . . . . . . . . . . . . . + + + +         . @ # $ $ $ $ $ $ $ % . . . . . . . . . . . . . + + + +         ",
". . . . . . . . . . . . . . . . . . . . . . . . + + + +         . @ & * * * * * * * % @ . . . . . . . . . . . . + + + +         ",
". . . . . . . . . . . . . . . . . . . . . . . . + + + + @ @ @ @ = - ; * * * * * * * - > @ . . . . . . . . . . . + + + +         ",
". . . . . . . . . . . . . . . . . . . . . . . . + + + @ @ @ @ @ = * * * * * * * * * * , @ @ . . . . . . . . . . + + + +         ",
". . . . . . . . . . . . . . . . . . . . . . . . + + @ ' ) ! ~ ~ { ] ^ / / / ( _ _ _ : , @ @ . . . . . . . . . . + + + +         ",
". . . . . . . . . . . . . . . . . . . . . . . . + + < [ } | 1 1 2 3 4 5 6 6 7 8 8 8 : , 9 9 . . . . . . . . . . + + + +         ",
". . . . . . . . . . . . . . . . . . . . . . . . @ 0 } a b b b c 1 1 d 3 e 6 7 8 8 8 8 _ * - @ @ . . . . . . . . + + + +         ",
". . . . . . . . . . . . . . . . . . . . . . . . f ' g h b b b i c 1 j k e l m n 8 8 8 _ * - @ @ . . . . . . . . + + + +         ",
". . . . . . . . . . . . . . . . . . . . . . @ f } o b b b b b b b 1 1 1 p 3 q 6 n 8 8 _ * - @ @ . . . . . . . . + + + +         ",
". . . . . . . . . . . . . . . . . . . . . . r ' o a b b b b b b b 1 1 1 p 3 e q m 7 8 _ * - @ @ . . . . . . . . + + + +         ",
". . . . . . . . . . . . . . . . . . . . @ s } g b b b b b b b b b 1 1 1 p 3 3 3 t 6 8 _ * - @ @ . . . . . . . . + + + +         ",
". . . . . . . . . . . . . . . . . . . . @ s } g b b b b b b b b b 1 1 1 p 3 3 3 t 6 8 _ * - @ @ . . . . . . . . + + + +         ",
". . . . . . . . . . . . . . . . . . . . @ s } g b b b b b b b b b 1 1 1 p 3 3 3 t 6 8 _ * - @ @ . . . . . . . . + + + +         ",
". . . . . . . . . . . . . . . . . . . . @ u v ! f ] b w f x b y z 1 1 1 p 3 3 3 t 6 A m B B - C @ . . . . . . . + + + +         ",
". . . . . . . . . . . . . . . . . . . . @ u 1 D @ E b F @ G b s H 1 1 1 p 3 3 3 t 6 6 I 8 B * J @ . . . . . . . + + + +         ",
". . . . . . . . . . . . . . . . . . . . @ u 1 D @ E b F @ D c K H 1 j L M 3 3 3 N O P 6 I m * J @ . . . + + + + + + + +         ",
". . . . . . . . . . . . . . . . . . . . @ u 1 D @ E b Q @ ] 1 R R 2 d 3 3 3 S S T @ P 6 6 m : J @ . . . + + + + + + + +         ",
". . . . . . . . . . . . . . . . . . . . @ u 1 D @ U 1 V @ ] 1 1 2 3 3 3 3 3 W @ @ @ P 6 6 A 8 X @ . . @ @ + + + + + + +         ",
". . . . . . . . . . . . . . . . . . . . @ u D Y Z E 1 ` Z { 1 j d 3 3 3  ...W @ @ @ +.X 6 A n X @.O . @.@.+ + + + + + +         ",
". . . . . . . . . . . . . . . . . . . . . . @ Z 1 1 1 1 1 1 1 M 3 3 3 3 #.@ + + + + @ O 6 6 6 6 6 $.@ X 6 @ @ + %.%.%.%.        ",
". . . . . . . . . . . . . . . . . . . . . . @ &.` ] p p *.*.*.M 3 3  .#.W @ + + + + @ O =.+.6 6 6 -.$.X 6 @ @ + %.%.%.%.        ",
". . . . . . . . . . . . . . . . . . . . . . . . @ W 3 3 3 3 3 3 3 3 ..@ @ + + + + + + + @ ;.6 6 6 6 6 6 6 @ @ + %.%.%.%.        ",
". . . . . . . . . . . . . . . . . . . . . . . . @ >.,.'.).).).!.q q ~.@ @ + + + + + + + + @.{.{.{.{.{.{.{.+ + + %.%.%.%.        ",
". . . . . . . . . . . . . . . . . . . . . . . . @ C * ].8 8 8 I 6 6 +.@ @ %.%.%.%.%.%.%.%.%.@ @ @ @ @ @ @ %.%.%.                ",
". . . . . . . . . . . . . . . . . . . . . . @ # - ; B _ 8 m A ^.^./.(.] E @ %.%.%.%.%.%.%.%.%.%.%.%.%.%.%.%.%.%.                ",
". . . . . . . . . . . . . . . . . . . . . . @ & * _.8 8 8 A 6 :.<.1 1 1 ` @ %.%.%.%.%.%.%.%.%.%.%.%.%.%.%.%.%.%.                ",
". . . . . . . . . . . . . . . @ @ @ @ @ @ @ @ ;.I I I I I e S [.}.b |.1 1. .W @ %.%.%.%.%.%.%.%.%.%.%.%.%.%.%.%.                ",
". . . . . . . . . . . . . . . 9 9 9 9 9 9 9 s 2.3.3.3.3.3.4 3 [.}.4.5.c d 3 6.u . . . . . . . . . . . . . . . .                 ",
". . . . . . . . . . . . . @ 7.8.8.8.8.8.8.9.b 4.1 1 1 1 1 0.3 [.[.3 1.b c 3 3 3 a.@ . . . . . . . . . . . . . .                 ",
". . . . . . . . . . . . . @ 7.8.b.c.c.c.c.d.4.| 1 1 1 1 1 0.3 [.[.e.k i f.3 3 3 a.@ . . . . . . . . . . . . . .                 ",
". . . . . . . . . . . . . @ 7.8.g.h.h.h.h.2.1 1 1 1 1 1 1 0.3 [.i.i.i.i.j.3 3 3 a.@ . . . . . . . . . . . . . .                 ",
". . . . . . . . . . . . . @ 7.8.g.h.h.h.h.2.1 1 1 1 1 d p k 3 [.i.k.k.k.l.m.m.m.R @ . . . . . . . . . . . . . . + + + +         ",
". . . . . . . . . . . . . @ 7.8.g.h.h.h.h.2.1 1 1 1 1 n.3 3 3 [.o.@ @ @ p.i.i.i.q.@ . . . . . . . . . . . . . . + + + +         ",
". . . . . . . . . . . . . @ 7.8.g.h.h.h.Y Y r.r.r.r.r.k 3 m.j.i.o.@ @ @ s.0.S m.R @ . . . . . . . . . . . . . . + + + +         ",
". . . . . . . . . . . . . @ 7.8.g.h.h.h.f.2 3 3 3 3 3 3 3 <.i.i.o.@ @ @ V 1 r.3 a.@ . . . . . . . . . . . . . . + + + +         ",
". . . . . . . . . . . . . @ 7.8.t.{ { { u.i.3 e.<.<.<.<.<.[.i.i.o.@ @ @ V 1 r.3 a.@ . . . . . . . . . . . . . . + + + +         ",
". . . . . . . . . . . . . @ 7.8.0 1 1 1 v.w.3 e.i.i.i.i.i.i.i.i.o.@ @ @ V 1 r.3 a.@ . . . . . . . . . . . . . . + + + +         ",
". . . . . . . @ @ @ @ @ @ @ 7.8.0 1 { M w.w.3 Y 5 5 5 5 5 5 5 5 / x.y.@ V 1 r.3 a.@ . . . . . . . . . . . . . . + + + +         ",
". . . . . . . z.z.T T s s s 2.9.0 1 r.L l.v.L 4 3.3.3.3.3.3.3.3.3.A.B.@ U j 0.S T @ . . . . . . . . . . . . . . + + + +         ",
". . . . . @ @ C.} D.b 1 1 1 1 1 1 1 1 1 1 1 1 1 1 1 1 1 1 1 1 1 ! E.F.@ p.i.i.i.q.@ . . . . . . . . . . . . . . + + + +         ",
". . . . . . @ [ C.D.h i G.1 1 1 1 1 1 1 1 1 1 1 1 1 1 1 1 1 1 1 ! E.H.I.J.m.j.}.>.I.. . . . . . . . . . . . . . + + + +         ",
". . . . . . . @ @ ) } b 4.1 1 1 1 1 1 1 1 1 1 1 1 1 1 1 1 1 1 1 ! E.K.L.M.1 r.3 N.L.% @ . . . . . . . . . . . . + + + +         ",
". . . . . . . . @ ' [ O.a b b b |.P.P.P.P.P.P.P.P.P.P.P.P.P.P.P.C.E.K.L.M.1 r.3 N.L.% @ . . . . . . . . . . . . + + + +         ",
". . . . . . . . . @ < } } } } } O.b b b b b b b b b b b b b b b Q.E.K.L.M.1 r.3 N.L.% @ . . . . . . . . . . . . + + + +         ",
". . . . . . . . . . . r r r r r Q y R.^ R.R.S.T.'.U.f.f.f.V.S.T.'.E.H.W.>.U 6.W X.W.. . . . . . . . . . . . . . + + + +         ",
". . . . . . . . . . . @ @ @ @ @ @ @ g.8.2.Y.8 n 6 q 3 3 3 Z.8 I `.E.F.@ @ @ @ @ @ @ . . . . . . . . . . . . . . + + + +         ",
". . . . . . . . . . . . . . . . . . = = c.b.A Z. +G 3 3 3  +.+3.++@+#+@ @ . . . . . . . . . . . . . . . . . . . + + + +         ",
". . . . . . . . . . . . . . . . . . @ @ c.$+6 !.b i 3 3 3 | b 3.++3 ..@ @ . . . . . . . . . . . . . . . + + + + + + + +         ",
". . . . . . . . . . . . . . . . . . . . 9 9 @ 9 < p.i.i.i.R < :.i.i.<.S #.@ . . . . . . . . . . . . . . + + + + + + + +         ",
". . . . . . . . . . . . . . . . . . . . @ @ @ @ @ p.}.<.[.R @ }.j.}.m.3 #.@ . . . . . . . . . . . . . . + + + + + + + +         ",
". . . . . . . . . . . . . . . . . . . . + + + + @ U 1 n.3 &.@ v b 1 d 3 #.@ . . . . . . . . . . . . . . + + + + + + + +         ",
"%.%.%.%.+ + + + + + + + + + + + + + + + + + + + @ s.n.3  .a.@ (./.n.0. .%+@ + + + + + + + + + + + + + + + + + + %.%.%.%.        ",
"%.%.%.%.+ + + + + + + + + + + + + + + + + + + + @ p.i.i.i.q.@ @ < i.i.i.k.@ + + + + + + + + + + + + + + + + + + %.%.%.%.        ",
"%.%.%.%.+ + + + + + + + + + + + + + + + + + + + @ W M e.j.T @ @ u M S j.v.@ + + + + + + + + + + + + + + + + + + %.%.%.%.        ",
"%.%.%.%.+ + + + + + + + + + + + + + + + + + + + @ U 1 n.3 &.@ @ H 1 d 3 #.@ + + + + + + + + + + + + + + + + + + %.%.%.%.        ",
"        %.%.%.%.%.%.%.%.%.%.%.%.%.%.%.%.%.%.@ Z (.(.{ k 3 &.@ w (.{ 0.3 #.@ %.%.%.%.%.%.%.%.%.%.%.%.%.%.%.%.%.%.                ",
"        %.%.%.%.%.%.%.%.%.%.%.%.%.%.%.%.%.%.@ 6.b c 3 3 3 &.@ v 4.3 3 3 #.@ %.%.%.%.%.%.%.%.%.%.%.%.%.%.%.%.%.%.                ",
"        %.%.%.%.%.%.%.%.%.%.%.%.%.%.%.%.%.%.%.%.Z &.R R R     Z Z R R R K %.%.%.%.%.%.%.%.%.%.%.%.%.%.%.%.%.%.%.                ",
"        %.%.%.%.%.%.%.%.%.%.%.%.%.%.%.%.%.%.%.%.@ @ @ @ @     @ @ @ @ @ @ %.%.%.%.%.%.%.%.%.%.%.%.%.%.%.%.%.%.%.                "};
