/* XPM */
static char * IDLE1_xpm[] = {
"64 64 196 2",
"  	c #514047",
". 	c #77514C",
"+ 	c #131313",
"@ 	c #54321F",
"# 	c #5C3520",
"$ 	c #48281C",
"% 	c #C66833",
"& 	c #E07438",
"* 	c #693C22",
"= 	c #8D5D57",
"- 	c #7B4525",
"; 	c #D66A34",
"> 	c #A6582D",
", 	c #3C261A",
"' 	c #D0572C",
") 	c #CD532A",
"! 	c #C54F29",
"~ 	c #A63823",
"{ 	c #A9574F",
"] 	c #917173",
"^ 	c #717784",
"/ 	c #6A7588",
"( 	c #B9B9B9",
"_ 	c #949494",
": 	c #CA4B25",
"< 	c #C64524",
"[ 	c #B93E23",
"} 	c #8E251D",
"| 	c #765362",
"1 	c #657392",
"2 	c #8694AD",
"3 	c #92A1B9",
"4 	c #99A5BC",
"5 	c #FFFFFF",
"6 	c #C5C5C9",
"7 	c #8C4E4C",
"8 	c #6A6A85",
"9 	c #77839C",
"0 	c #8D9BB2",
"a 	c #909FB8",
"b 	c #BCC5D4",
"c 	c #C4CBD6",
"d 	c #CED5E1",
"e 	c #D5DBE5",
"f 	c #DDDDDD",
"g 	c #898A8B",
"h 	c #824827",
"i 	c #8A2822",
"j 	c #7E444C",
"k 	c #7F8DA8",
"l 	c #C7CFDD",
"m 	c #9C9C9C",
"n 	c #17181B",
"o 	c #843736",
"p 	c #7785A2",
"q 	c #DFE4EC",
"r 	c #766D73",
"s 	c #F3F3F5",
"t 	c #424346",
"u 	c #94281E",
"v 	c #8C2924",
"w 	c #E9ECF1",
"x 	c #494949",
"y 	c #D25A2D",
"z 	c #B23B23",
"A 	c #90261D",
"B 	c #65696F",
"C 	c #7E838C",
"D 	c #9CA2AD",
"E 	c #3A3D43",
"F 	c #9D2E1E",
"G 	c #34383E",
"H 	c #B8BFCC",
"I 	c #7A7E86",
"J 	c #5F6876",
"K 	c #303339",
"L 	c #973721",
"M 	c #421A17",
"N 	c #341918",
"O 	c #6B7896",
"P 	c #97A3B7",
"Q 	c #70271B",
"R 	c #291815",
"S 	c #591E19",
"T 	c #1C1E22",
"U 	c #2D313B",
"V 	c #697694",
"W 	c #7D8AA2",
"X 	c #8391A6",
"Y 	c #561D18",
"Z 	c #87241C",
"` 	c #262931",
" .	c #626D8B",
"..	c #62708F",
"+.	c #1A1B1C",
"@.	c #8896B0",
"#.	c #361816",
"$.	c #343946",
"%.	c #444A56",
"&.	c #323743",
"*.	c #515C73",
"=.	c #5D6A89",
"-.	c #808DA4",
";.	c #40464E",
">.	c #424A5C",
",.	c #59413E",
"'.	c #4C3B42",
").	c #8C6266",
"!.	c #584752",
"~.	c #884A28",
"{.	c #481B17",
"].	c #5C6572",
"^.	c #6F4C51",
"/.	c #673946",
"(.	c #B15230",
"_.	c #586483",
":.	c #424C6E",
"<.	c #22242A",
"[.	c #AAB5C9",
"}.	c #6C5D73",
"|.	c #735B6D",
"1.	c #B1BCCD",
"2.	c #8A95AB",
"3.	c #6D7C99",
"4.	c #4E5878",
"5.	c #9296AC",
"6.	c #A9AEBA",
"7.	c #572A26",
"8.	c #452421",
"9.	c #495475",
"0.	c #5A2B27",
"a.	c #5D2C28",
"b.	c #482522",
"c.	c #515D7D",
"d.	c #391F21",
"e.	c #3D2022",
"f.	c #454F71",
"g.	c #363D57",
"h.	c #3F4868",
"i.	c #1E2129",
"j.	c #2A2D35",
"k.	c #717F9C",
"l.	c #596585",
"m.	c #49505A",
"n.	c #4B2F3B",
"o.	c #475172",
"p.	c #6B6979",
"q.	c #343B5B",
"r.	c #2A2F4E",
"s.	c #7987A1",
"t.	c #A2842D",
"u.	c #D4AC36",
"v.	c #7D2E30",
"w.	c #4B2F42",
"x.	c #CD982A",
"y.	c #FFC825",
"z.	c #98331E",
"A.	c #E28416",
"B.	c #FFA214",
"C.	c #9B9BA3",
"D.	c #919BB2",
"E.	c #ABABAB",
"F.	c #312727",
"G.	c #783F43",
"H.	c #E2E4E8",
"I.	c #1F1913",
"J.	c #ED7614",
"K.	c #CE7531",
"L.	c #C6885B",
"M.	c #FA9714",
"N.	c #A1AEC3",
"O.	c #894914",
"P.	c #4A5266",
"Q.	c #58606D",
"R.	c #8A6C5B",
"S.	c #AF754E",
"T.	c #EA9623",
"U.	c #C5928C",
"V.	c #A296A4",
"W.	c #A78488",
"X.	c #BC8A87",
"Y.	c #97848A",
"Z.	c #757981",
"`.	c #753227",
" +	c #B8531A",
".+	c #B89497",
"++	c #A5696A",
"@+	c #556079",
"#+	c #4F4864",
"$+	c #2E3445",
"%+	c #252628",
"&+	c #ADB6C7",
"*+	c #878E98",
"=+	c #4F5156",
"-+	c #5B5E64",
";+	c #1E2024",
"        . . . . . . . . . . . . . . . . . . . .                         . . . . . . . . . . . . . . . . . . . .                 ",
"        . . . . . . . . . . . . . . . . . . . .                         . . . . . . . . . . . . . . . . . . . .                 ",
"        . . . . . . . . . . . . . . . . + + + + + + +                   . . . . . . . . . . . . . . . . . . . .                 ",
"        . . . . . . . . . . . . . . . . @ # # # # # # $                 . . . . . . . . . . . . . . . . . . . .                 ",
". . . . . . . . . . . . . . . . . . + + % & & & & & & * +       . . . . . . . . . . . . . . . . . . . . . . . . = = = =         ",
". . . . . . . . . . . . . . . . . + * - ; & & & & & & > - , + + + + . . . . . . . . . . . . . . . . . . . . . . = = = =         ",
". . . . . . . . . . . . . . . . + + > & & & & & & & & & & $ + + + + + . . . . . . . . . . . . . . . . . . . . . = = = =         ",
". . . . . . . . . . . . . . . . + + > & ' ) ) ! ~ ~ ~ { ] ^ / / ^ ( _ + . . . . . . . . . . . . . . . . . . . . = = = =         ",
". . . . . . . . . . . . . . . . + + > & : < < [ } } } | 1 2 3 3 4 5 6 + + . . . . . . . . . . . . . . . . . . . = = = =         ",
". . . . . . . . . . . . . . . + - % ) : < < < [ } 7 8 9 0 a 3 b c d e f g + . . . . . . . . . . . . . . . . . . = = = =         ",
". . . . . . . . . . . . . . . + h & ) < < < < [ i j 1 k 3 3 3 c l l e 5 m n . . . . . . . . . . . . . . . . . . = = = =         ",
". . . . . . . . . . . . . . . + h & ) < < < } o 1 p 3 3 3 b l l l l l l q 5 r + . . . . . . . . . . . . . . . . = = = =         ",
". . . . . . . . . . . . . . . + h & ) < [ [ o j 1 p 3 3 3 b l l l l l l e s g t . . . . . . . . . . . . . . . . = = = =         ",
". . . . . . . . . . . . . . . + h & ) < u v 1 1 1 p 3 3 3 b l l l l l l l l w 5 x + . . . . . . . . . . . . . . = = = =         ",
". . . . . . . . . . . . . . $ # > & ) < u v 1 1 1 p 3 3 3 b l l l l l l l l w 5 x + . . . . . . . . . . . . . . = = = =         ",
". . . . . . . . . . . . . + # & & & ) < u v 1 1 1 p 3 3 3 b l l l l l l l l w 5 x + . . . . . . . . . . . . . . = = = =         ",
". . . . . . . . . . . . . + # & ; y z ~ A v 1 1 1 p 3 3 3 ^ B b b B C l D B D c E + . . . . . . . . . . . . . . = = = =         ",
". . . . . . . . . . . . . + # & y < F } } v 1 1 1 p 3 3 3 G + H H + t l I + J 3 K + . . . . . . . . . . . . . . = = = =         ",
". . . . . . . . . . . . . . , @ L < F } M N 1 1 1 O 9 2 3 G + P P + t l I + J 3 K + . . . . . . . . . . . . . . = = = =         ",
". . . . . . . . . . . . . . . + Q < F } R n 1 1 1 1 1 k 3 G + 2 2 + t l I + J 3 K + . . . . . . . . . . . . . . = = = =         ",
". . . . . . . . . . . . . . . + S u A } R + T U 1 1 1 V O W X 3 2 + G 4 J + J 3 K + . . . . . . . . . . = = = = = = = =         ",
". . . . . . . . . . . . . . . + Y } Z Z R + + `  ...1 1 1 2 0 3 2 +.E 3 J +.J @.K + . . . . . . . . . . = = = = = = = =         ",
". . . . . . . . . . . . . . . + Y } #.+ . . . . + $.1 1 1 1 1 0 3 3 3 3 3 3 %.+ . . . . . . . . . . . . = = = = = = = =         ",
". . . . . . . . . . . . . . . + Y } #.+ . . . . + &.*.=.1 1 1 2 @.@.@.@.-.9 ;.+ . . . . . . . . . . . . = = = = = = = =         ",
". . . . . . . . . . . . . . . + Y } #.+ . . . . = = + >.1 1 1 1 1 1 1 1 >.+ = = = = = = = = = = = = = = = = = = ,.,.,.,.        ",
". . . . . . . . . . . . . . N M Q } #.+ . . . . = = + '.| | | ).).).).] !.+ = = = = = = = = = = = = = = = = = = ,.,.,.,.        ",
". . . . . . . . . . . . . + M } } } #.+ . . . . = = + S } } } < < < ) & ~.+ = = = = = = = = = = = = = = = = = = ,.,.,.,.        ",
". . . . . . . . . . . . . . N {.{.{.R . . . . . + E ].r ] ^./.~ ~ < : y (.~.@ + = = = = = = = = = = = = = = = = ,.,.,.,.        ",
". . . . . . . . . . . . . . . + + + . . . . . . + %.3 3 3 _.:.i u < < < y & * + ,.,.,.,.,.,.,.,.,.,.,.,.,.,.,.,.                ",
". . . . . . . . . . . . . . . . . . . . . . + <.*.V 3 [.b  .:.}.|.F F F F ~ $ + + + + + + + ,.,.,.,.,.,.,.,.,.,.                ",
". . . . . . . . . . . . . . . . . . . . . . + ` 1 p 3 1.l  .:. .8 } } } } } M + + + + + + + ,.,.,.,.,.,.,.,.,.,.                ",
". . . . . . . . . . . . . . . . . . . . . . + ` 1 2.c a 3.4.:...V 5.5.5.5.5.6.H ^.7.7.7.7.8.+ ,.,.,.,.,.,.,.,.,.                ",
". . . . . . . . . . . . . . . . . . . . . . + ` 1 2.b 2...9.:. .V 3 3 3 3 3 1.c ^.0.0.0.a.b.+ + . . . . . . . .                 ",
". . . . . . . . . . . . . . . . . . . . . . + ` 1 1 1 c.:.:.:. .V 3 3 3 3 3 3 3 '.d.d.e.a.b.+ + . . . . . . . .                 ",
". . . . . . . . . . . . . . . . . . . . . . + <.=.=.=.f.g.h.:...V 2 0 3 3 3 3 3 '.d.d.e.a.b.+ + . . . . . . . .                 ",
". . . . . . . . . . . . . . . . . . . . . . + i.:.:.:.j.+ g.:...1 1 k.3 3 3 3 3 '.d.d.e.a.b.+ + . . . . . . . .                 ",
". . . . . . . . . . . . . . . . . . . . . . + <.c.l...$.+ g.:._._.1 3.k k k k k '.d.d.e.a.b.+ + . . . . . . . . = = = =         ",
". . . . . . . . . . . . . . . . . . . . . . + ` 1 p 3 m.+ g.:.:.f.1 1 1 1 1 1 1 n.d.d.e.a.b.+ + . . . . . . . . = = = =         ",
". . . . . . . . . . . . . . . . . . . . . . + ` 1 p 3 m.+ g.:.:.:.c.c.c.c.c.o.:.p.p.p.p.a.b.+ + . . . . . . . . = = = =         ",
". . . . . . . . . . . . . . . . . . . . . . + ` 1 p 3 m.+ g.:.:.:.:.:.:.:.:.q.r.s.3 3 2.a.b.+ + . . . . . . . . = = = =         ",
". . . . . . . . . . . . . . . . . . . . . . + ` 1 p 3 m.+ t.u.o v.v.v.v.v.v.w.r. .3.a 2.a.b.+ + + + + + + + + + + = = =         ",
". . . . . . . . . . . . . . . . . . . . . . + ` 1 p 3 m.+ x.y.z.} } } } } } n.r._.1 a 2.a.b.+ + + + + + + + + + + = = =         ",
". . . . . . . . . . . . . . . . . . . . . . + i.f.f.o./.Z A.B.C.D.D.D.D.D.D.0 0 0 0 3 3 0 0 @.@.0 0 @.0 @.b c s E.+ = =         ",
". . . . . . . . . . . . . . . . . . . . . . R F.o.9.9.G.F A.B.D 3 3 3 3 3 3 3 3 3 3 3 3 3 3 3 3 3 3 3 4 4 d d H.E.+ = =         ",
". . . . . . . . . . . . . . . . . . . . + I.J.K.1 p 3 L.J.M.B.D 3 3 3 3 3 3 3 3 3 3 3 3 3 3 3 3 3 3 3 b l 5 f + + = = =         ",
". . . . . . . . . . . . . . . . . . . . + I.J.K.1 p 3 L.J.M.B.6.N.N.N.N.N.N.N.N.N.N.N.N.N.N.N.[.1.1.1.d e ( E.+ = = = =         ",
". . . . . . . . . . . . . . . . . . . . + I.J.K.1 p 3 L.J.M.B.6 l l l l l l l l l l l l l l l H.5 5 5 5 5 n + . = = = =         ",
". . . . . . . . . . . . . . . . . . . . . I.O.- >.P.Q.R.S.T.B.U.U.4 4 4 V.W.X.U.W.Y.Z.Z.Z.Z.Z.g _ _ _ _ _ n . . = = = =         ",
". . . . . . . . . . . . . . . . . . . . . . + + + + + >.1 x.B.: (.1 1 1 | } z < `.a.+ + + + + + + + + + + . . . = = = =         ",
". . . . . . . . . . . . . . . . . . . . . . . . = + + >.1 >  +U..+1 1 1 g .+{ ~ $ N . . . . . . . . . . . . . . = = = =         ",
". . . . . . . . . . . . . . . . . . . . . . . . = = + >.1 o } 6 b 1 1 1 0 l ++} R + . . . . . . . . . . . . . . = = = =         ",
". . . . . . . . . . . . . . . . . . . . . . . . + &.@+4.9.#+#+G E 9.9.9.>.G F.R . . . . . . . . . . . . . . . . = = = =         ",
". . . . . . . . . . . . . . . . . . . . = = = = + $.1 c.:.:.:.n n :.:.:.$++ + + . . . . . . . . . . . . = = = = = = = =         ",
". . . . . . . . . . . . . . . . . . . . = = = = + $.1 1 1 [.c %++.1 3.a ].+ . . . . . . . . . . . . . . = = = = = = = =         ",
". . . . . . . . . . . . . . . . . . . . = = = = + $.1 V O P &+%++.1 k.3 ].+ . . . . . . . . . . . . . . = = = = = = = =         ",
". . . . . . . . . . . . . . . . . . . . = = = = + $.1 k 3 G + + +.1 k.3 ].+ . . . . . . . . . . . . . . = = = = = = = =         ",
",.,.,.,.= = = = = = = = = = = = = = = = = = = = + $+l.O s.U + + +.l. .s.P.+ = = = = = = = = = = = = = = = = = = ,.,.,.,.        ",
",.,.,.,.= = = = = = = = = = = = = = = = = = = = + j.:.:.:.i.+ + n :.:.:.$++ = = = = = = = = = = = = = = = = = = ,.,.,.,.        ",
",.,.,.,.= = = = = = = = = = = = = = = = = = = = + U c.=.V j.+ + +._.l.V >.+ = = = = = = = = = = = = = = = = = = ,.,.,.,.        ",
",.,.,.,.= = = = = = = = = = = = = = = = = = = = + $.1 k 3 G + + +.1 k.3 ].+ = = = = = = = = = = = = = = = = = = ,.,.,.,.        ",
"        ,.,.,.,.,.,.,.,.,.,.,.,.,.,.,.,.,.,.,.,.+ $.1 3.9 *+*++.+.1 V p 9 *+=++ ,.,.,.,.,.,.,.,.,.,.,.,.,.,.,.,.                ",
"        ,.,.,.,.,.,.,.,.,.,.,.,.,.,.,.,.,.,.,.,.+ $.1 1 1 &+l %++.1 1 1 0 l -++ ,.,.,.,.,.,.,.,.,.,.,.,.,.,.,.,.                ",
"        ,.,.,.,.,.,.,.,.,.,.,.,.,.,.,.,.,.,.,.,.  ;+<.<.<.j.K     <.<.<.` K ` ,.,.,.,.,.,.,.,.,.,.,.,.,.,.,.,.,.                ",
"        ,.,.,.,.,.,.,.,.,.,.,.,.,.,.,.,.,.,.,.,.    + + + + +     + + + + + ,.,.,.,.,.,.,.,.,.,.,.,.,.,.,.,.,.,.                "};
