/* XPM */
static char * IDLE1_L_xpm[] = {
"64 64 196 2",
"  	c #514047",
". 	c #77514C",
"+ 	c #131313",
"@ 	c #48281C",
"# 	c #5C3520",
"$ 	c #54321F",
"% 	c #8D5D57",
"& 	c #693C22",
"* 	c #E07438",
"= 	c #C66833",
"- 	c #3C261A",
"; 	c #7B4525",
"> 	c #A6582D",
", 	c #D66A34",
"' 	c #949494",
") 	c #B9B9B9",
"! 	c #717784",
"~ 	c #6A7588",
"{ 	c #917173",
"] 	c #A9574F",
"^ 	c #A63823",
"/ 	c #C54F29",
"( 	c #CD532A",
"_ 	c #D0572C",
": 	c #C5C5C9",
"< 	c #FFFFFF",
"[ 	c #99A5BC",
"} 	c #92A1B9",
"| 	c #8694AD",
"1 	c #657392",
"2 	c #765362",
"3 	c #8E251D",
"4 	c #B93E23",
"5 	c #C64524",
"6 	c #CA4B25",
"7 	c #898A8B",
"8 	c #DDDDDD",
"9 	c #D5DBE5",
"0 	c #CED5E1",
"a 	c #C4CBD6",
"b 	c #BCC5D4",
"c 	c #909FB8",
"d 	c #8D9BB2",
"e 	c #77839C",
"f 	c #6A6A85",
"g 	c #8C4E4C",
"h 	c #17181B",
"i 	c #9C9C9C",
"j 	c #C7CFDD",
"k 	c #7F8DA8",
"l 	c #7E444C",
"m 	c #8A2822",
"n 	c #824827",
"o 	c #766D73",
"p 	c #DFE4EC",
"q 	c #7785A2",
"r 	c #843736",
"s 	c #424346",
"t 	c #F3F3F5",
"u 	c #494949",
"v 	c #E9ECF1",
"w 	c #8C2924",
"x 	c #94281E",
"y 	c #3A3D43",
"z 	c #9CA2AD",
"A 	c #65696F",
"B 	c #7E838C",
"C 	c #90261D",
"D 	c #B23B23",
"E 	c #D25A2D",
"F 	c #303339",
"G 	c #5F6876",
"H 	c #7A7E86",
"I 	c #B8BFCC",
"J 	c #34383E",
"K 	c #9D2E1E",
"L 	c #97A3B7",
"M 	c #6B7896",
"N 	c #341918",
"O 	c #421A17",
"P 	c #973721",
"Q 	c #291815",
"R 	c #70271B",
"S 	c #8391A6",
"T 	c #7D8AA2",
"U 	c #697694",
"V 	c #2D313B",
"W 	c #1C1E22",
"X 	c #591E19",
"Y 	c #8896B0",
"Z 	c #1A1B1C",
"` 	c #62708F",
" .	c #626D8B",
"..	c #262931",
"+.	c #87241C",
"@.	c #561D18",
"#.	c #444A56",
"$.	c #343946",
"%.	c #361816",
"&.	c #40464E",
"*.	c #808DA4",
"=.	c #5D6A89",
"-.	c #515C73",
";.	c #323743",
">.	c #424A5C",
",.	c #59413E",
"'.	c #584752",
").	c #8C6266",
"!.	c #4C3B42",
"~.	c #884A28",
"{.	c #B15230",
"].	c #673946",
"^.	c #6F4C51",
"/.	c #5C6572",
"(.	c #481B17",
"_.	c #424C6E",
":.	c #586483",
"<.	c #735B6D",
"[.	c #6C5D73",
"}.	c #AAB5C9",
"|.	c #22242A",
"1.	c #B1BCCD",
"2.	c #452421",
"3.	c #572A26",
"4.	c #A9AEBA",
"5.	c #9296AC",
"6.	c #4E5878",
"7.	c #6D7C99",
"8.	c #8A95AB",
"9.	c #482522",
"0.	c #5D2C28",
"a.	c #5A2B27",
"b.	c #495475",
"c.	c #3D2022",
"d.	c #391F21",
"e.	c #515D7D",
"f.	c #3F4868",
"g.	c #363D57",
"h.	c #454F71",
"i.	c #717F9C",
"j.	c #2A2D35",
"k.	c #1E2129",
"l.	c #596585",
"m.	c #4B2F3B",
"n.	c #49505A",
"o.	c #6B6979",
"p.	c #475172",
"q.	c #7987A1",
"r.	c #2A2F4E",
"s.	c #343B5B",
"t.	c #4B2F42",
"u.	c #7D2E30",
"v.	c #D4AC36",
"w.	c #A2842D",
"x.	c #98331E",
"y.	c #FFC825",
"z.	c #CD982A",
"A.	c #ABABAB",
"B.	c #919BB2",
"C.	c #9B9BA3",
"D.	c #FFA214",
"E.	c #E28416",
"F.	c #E2E4E8",
"G.	c #783F43",
"H.	c #312727",
"I.	c #FA9714",
"J.	c #ED7614",
"K.	c #C6885B",
"L.	c #CE7531",
"M.	c #1F1913",
"N.	c #A1AEC3",
"O.	c #757981",
"P.	c #97848A",
"Q.	c #A78488",
"R.	c #C5928C",
"S.	c #BC8A87",
"T.	c #A296A4",
"U.	c #EA9623",
"V.	c #AF754E",
"W.	c #8A6C5B",
"X.	c #58606D",
"Y.	c #4A5266",
"Z.	c #894914",
"`.	c #753227",
" +	c #B89497",
".+	c #B8531A",
"++	c #A5696A",
"@+	c #4F4864",
"#+	c #556079",
"$+	c #2E3445",
"%+	c #252628",
"&+	c #ADB6C7",
"*+	c #4F5156",
"=+	c #878E98",
"-+	c #5B5E64",
";+	c #1E2024",
"        . . . . . . . . . . . . . . . . . . . .                         . . . . . . . . . . . . . . . . . . . .                 ",
"        . . . . . . . . . . . . . . . . . . . .                         . . . . . . . . . . . . . . . . . . . .                 ",
"        . . . . . . . . . . . . . . . . . . . .                         . + + + + + + + . . . . . . . . . . . .                 ",
"        . . . . . . . . . . . . . . . . . . . .                         @ # # # # # # $ . . . . . . . . . . . .                 ",
". . . . . . . . . . . . . . . . . . . . . . . . % % % %         . . . + & * * * * * * = + + . . . . . . . . . . % % % %         ",
". . . . . . . . . . . . . . . . . . . . . . . . % % % %     + + + + - ; > * * * * * * , ; & + . . . . . . . . . % % % %         ",
". . . . . . . . . . . . . . . . . . . . . . . . % % % %   + + + + + @ * * * * * * * * * * > + + . . . . . . . . % % % %         ",
". . . . . . . . . . . . . . . . . . . . . . . . % % % % + ' ) ! ~ ~ ! { ] ^ ^ ^ / ( ( _ * > + + . . . . . . . . % % % %         ",
". . . . . . . . . . . . . . . . . . . . . . . . % % % + + : < [ } } | 1 2 3 3 3 4 5 5 6 * > + + . . . . . . . . % % % %         ",
". . . . . . . . . . . . . . . . . . . . . . . . % % + 7 8 9 0 a b } c d e f g 3 4 5 5 5 6 ( = ; + . . . . . . . % % % %         ",
". . . . . . . . . . . . . . . . . . . . . . . . % % h i < 9 j j a } } } k 1 l m 4 5 5 5 5 ( * n + . . . . . . . % % % %         ",
". . . . . . . . . . . . . . . . . . . . . . . . + o < p j j j j j j b } } } q 1 r 3 5 5 5 ( * n + . . . . . . . % % % %         ",
". . . . . . . . . . . . . . . . . . . . . . . . s 7 t 9 j j j j j j b } } } q 1 l r 4 4 5 ( * n + . . . . . . . % % % %         ",
". . . . . . . . . . . . . . . . . . . . . . + u < v j j j j j j j j b } } } q 1 1 1 w x 5 ( * n + . . . . . . . % % % %         ",
". . . . . . . . . . . . . . . . . . . . . . + u < v j j j j j j j j b } } } q 1 1 1 w x 5 ( * > # @ . . . . . . % % % %         ",
". . . . . . . . . . . . . . . . . . . . . . + u < v j j j j j j j j b } } } q 1 1 1 w x 5 ( * * * # + . . . . . % % % %         ",
". . . . . . . . . . . . . . . . . . . . . . + y a z A z j B A b b A ! } } } q 1 1 1 w C ^ D E , * # + . . . . . % % % %         ",
". . . . . . . . . . . . . . . . . . . . . . + F } G + H j s + I I + J } } } q 1 1 1 w 3 3 K 5 E * # + . . . . . % % % %         ",
". . . . . . . . . . . . . . . . . . . . . . + F } G + H j s + L L + J } | e M 1 1 1 N O 3 K 5 P $ - . . . . . . % % % %         ",
". . . . . . . . . . . . . . . . . . . . . . + F } G + H j s + | | + J } k 1 1 1 1 1 h Q 3 K 5 R + . . . . . . . % % % %         ",
". . . . . . . . . . . . . . . . . . . . . . + F } G + G [ J + | } S T M U 1 1 1 V W + Q 3 C x X + . . . % % % % % % % %         ",
". . . . . . . . . . . . . . . . . . . . . . + F Y G Z G } y Z | } d | 1 1 1 `  ...+ + Q +.+.3 @.+ . . . % % % % % % % %         ",
". . . . . . . . . . . . . . . . . . . . . . . . + #.} } } } } } d 1 1 1 1 1 $.+ . . . . + %.3 @.+ . . . % % % % % % % %         ",
". . . . . . . . . . . . . . . . . . . . . . . . + &.e *.Y Y Y Y | 1 1 1 =.-.;.+ . . . . + %.3 @.+ . . . % % % % % % % %         ",
". . . . . . . . . . . . . . . . . . . . . . . . % % + >.1 1 1 1 1 1 1 1 >.+ % % % % % % + %.3 @.+ % % % % % % % ,.,.,.,.        ",
". . . . . . . . . . . . . . . . . . . . . . . . % % + '.{ ).).).).2 2 2 !.+ % % % % % % + %.3 R O N % % % % % % ,.,.,.,.        ",
". . . . . . . . . . . . . . . . . . . . . . . . % % + ~.* ( 5 5 5 3 3 3 X + % % % % % % + %.3 3 3 O + % % % % % ,.,.,.,.        ",
". . . . . . . . . . . . . . . . . . . . . . . . + $ ~.{.E 6 5 ^ ^ ].^.{ o /.y + % % % % % Q (.(.(.N % % % % % % ,.,.,.,.        ",
". . . . . . . . . . . . . . . . . . . . . . . . + & * E 5 5 5 x m _.:.} } } #.+ ,.,.,.,.,.,.+ + + ,.,.,.,.,.,.,.                ",
". . . . . . . . . . . . . . . . . . + + + + + + + @ ^ K K K K <.[._. .b }.} U -.|.+ ,.,.,.,.,.,.,.,.,.,.,.,.,.,.                ",
". . . . . . . . . . . . . . . . . . + + + + + + + O 3 3 3 3 3 f  ._. .j 1.} q 1 ..+ ,.,.,.,.,.,.,.,.,.,.,.,.,.,.                ",
". . . . . . . . . . . . . . . . . + 2.3.3.3.3.^.I 4.5.5.5.5.5.U ` _.6.7.c a 8.1 ..+ ,.,.,.,.,.,.,.,.,.,.,.,.,.,.                ",
". . . . . . . . . . . . . . . . + + 9.0.a.a.a.^.a 1.} } } } } U  ._.b.` 8.b 8.1 ..+ . . . . . . . . . . . . . .                 ",
". . . . . . . . . . . . . . . . + + 9.0.c.d.d.!.} } } } } } } U  ._._._.e.1 1 1 ..+ . . . . . . . . . . . . . .                 ",
". . . . . . . . . . . . . . . . + + 9.0.c.d.d.!.} } } } } d | U ` _.f.g.h.=.=.=.|.+ . . . . . . . . . . . . . .                 ",
". . . . . . . . . . . . . . . . + + 9.0.c.d.d.!.} } } } } i.1 1 ` _.g.+ j._._._.k.+ . . . . . . . . . . . . . .                 ",
". . . . . . . . . . . . . . . . + + 9.0.c.d.d.!.k k k k k 7.1 :.:._.g.+ $.` l.e.|.+ . . . . . . . . . . . . . . % % % %         ",
". . . . . . . . . . . . . . . . + + 9.0.c.d.d.m.1 1 1 1 1 1 1 h._._.g.+ n.} q 1 ..+ . . . . . . . . . . . . . . % % % %         ",
". . . . . . . . . . . . . . . . + + 9.0.o.o.o.o._.p.e.e.e.e.e._._._.g.+ n.} q 1 ..+ . . . . . . . . . . . . . . % % % %         ",
". . . . . . . . . . . . . . . . + + 9.0.8.} } q.r.s._._._._._._._._.g.+ n.} q 1 ..+ . . . . . . . . . . . . . . % % % %         ",
". . . . . . . + + + + + + + + + + + 9.0.8.c 7. .r.t.u.u.u.u.u.u.r v.w.+ n.} q 1 ..+ . . . . . . . . . . . . . . % % % %         ",
". . . . . . . + + + + + + + + + + + 9.0.8.c 1 :.r.m.3 3 3 3 3 3 x.y.z.+ n.} q 1 ..+ . . . . . . . . . . . . . . % % % %         ",
". . . . . . + A.t a b Y d Y d d Y Y d d } } d d d d B.B.B.B.B.B.C.D.E.+.].p.h.h.k.+ . . . . . . . . . . . . . . % % % %         ",
". . . . . . + A.F.0 0 [ [ } } } } } } } } } } } } } } } } } } } z D.E.K G.b.b.p.H.Q . . . . . . . . . . . . . . % % % %         ",
". . . . . . . + + 8 < j b } } } } } } } } } } } } } } } } } } } z D.I.J.K.} q 1 L.J.M.+ . . . . . . . . . . . . % % % %         ",
". . . . . . . . + A.) 9 0 1.1.1.}.N.N.N.N.N.N.N.N.N.N.N.N.N.N.N.4.D.I.J.K.} q 1 L.J.M.+ . . . . . . . . . . . . % % % %         ",
". . . . . . . . . + h < < < < < F.j j j j j j j j j j j j j j j : D.I.J.K.} q 1 L.J.M.+ . . . . . . . . . . . . % % % %         ",
". . . . . . . . . . h ' ' ' ' ' 7 O.O.O.O.O.P.Q.R.S.Q.T.[ [ [ R.R.D.U.V.W.X.Y.>.; Z.M.. . . . . . . . . . . . . % % % %         ",
". . . . . . . . . . . + + + + + + + + + + + 0.`.5 D 3 2 1 1 1 {.6 D.z.1 >.+ + + + + . . . . . . . . . . . . . . % % % %         ",
". . . . . . . . . . . . . . . . . . . . . . N @ ^ ]  +7 1 1 1  +R..+> 1 >.+ + . . . . . . . . . . . . . . . . . % % % %         ",
". . . . . . . . . . . . . . . . . . . . . . + Q 3 ++j d 1 1 1 b : 3 r 1 >.+ . . . . . . . . . . . . . . . . . . % % % %         ",
". . . . . . . . . . . . . . . . . . . . . . . . Q H.J >.b.b.b.y J @+@+b.6.#+;.+ . . . . . . . . . . . . . . . . % % % %         ",
". . . . . . . . . . . . . . . . . . . . % % % % + + + $+_._._.h h _._._.e.1 $.+ . . . . . . . . . . . . % % % % % % % %         ",
". . . . . . . . . . . . . . . . . . . . % % % % % % + /.c 7.1 Z %+a }.1 1 1 $.+ . . . . . . . . . . . . % % % % % % % %         ",
". . . . . . . . . . . . . . . . . . . . % % % % % % + /.} i.1 Z %+&+L M U 1 $.+ . . . . . . . . . . . . % % % % % % % %         ",
". . . . . . . . . . . . . . . . . . . . % % % % % % + /.} i.1 Z + + J } k 1 $.+ . . . . . . . . . . . . % % % % % % % %         ",
",.,.,.,.% % % % % % % % % % % % % % % % % % % % ,.,.+ Y.q. .l.Z + + V q.M l.$++ % % % % % % % % % % % % % % % % ,.,.,.,.        ",
",.,.,.,.% % % % % % % % % % % % % % % % % % % % ,.,.+ $+_._._.h + + k._._._.j.+ % % % % % % % % % % % % % % % % ,.,.,.,.        ",
",.,.,.,.% % % % % % % % % % % % % % % % % % % % ,.,.+ >.U l.:.Z + + j.U =.e.V + % % % % % % % % % % % % % % % % ,.,.,.,.        ",
",.,.,.,.% % % % % % % % % % % % % % % % % % % % ,.,.+ /.} i.1 Z + + J } k 1 $.+ % % % % % % % % % % % % % % % % ,.,.,.,.        ",
"        ,.,.,.,.,.,.,.,.,.,.,.,.,.,.,.,.,.,.,.,.+ *+=+e q U 1 Z Z =+=+e 7.1 $.+ ,.,.,.,.,.,.,.,.,.,.,.,.,.,.,.,.                ",
"        ,.,.,.,.,.,.,.,.,.,.,.,.,.,.,.,.,.,.,.,.+ -+j d 1 1 1 Z %+j &+1 1 1 $.+ ,.,.,.,.,.,.,.,.,.,.,.,.,.,.,.,.                ",
"        ,.,.,.,.,.,.,.,.,.,.,.,.,.,.,.,.,.,.,.,.  ..F ..|.|.|.    F j.|.|.|.;+,.,.,.,.,.,.,.,.,.,.,.,.,.,.,.,.,.                ",
"        ,.,.,.,.,.,.,.,.,.,.,.,.,.,.,.,.,.,.,.,.    + + + + +     + + + + + ,.,.,.,.,.,.,.,.,.,.,.,.,.,.,.,.,.,.                "};
