/* XPM */
static char * IDLE3_xpm[] = {
"64 64 191 2",
"  	c #514047",
". 	c #77514C",
"+ 	c #131313",
"@ 	c #8D5D57",
"# 	c #1F1914",
"$ 	c #7C4526",
"% 	c #3E271B",
"& 	c #E07438",
"* 	c #452B1C",
"= 	c #96482C",
"- 	c #A5582D",
"; 	c #B45A2E",
"> 	c #231917",
", 	c #C96934",
"' 	c #DE7137",
") 	c #C94B26",
"! 	c #B74124",
"~ 	c #963225",
"{ 	c #82656B",
"] 	c #747B8B",
"^ 	c #7A849B",
"/ 	c #808DA1",
"( 	c #9BA1AB",
"_ 	c #DDDDDD",
": 	c #8A8A8B",
"< 	c #191515",
"[ 	c #C64524",
"} 	c #B03921",
"| 	c #8E251D",
"1 	c #8A2721",
"2 	c #746778",
"3 	c #657392",
"4 	c #8E9DB5",
"5 	c #92A1B9",
"6 	c #AFBACC",
"7 	c #FFFFFF",
"8 	c #969697",
"9 	c #17181B",
"0 	c #765868",
"a 	c #8594AE",
"b 	c #99A4B7",
"c 	c #C6CEDD",
"d 	c #DDE2EA",
"e 	c #777278",
"f 	c #BA3E22",
"g 	c #A63925",
"h 	c #863534",
"i 	c #6C7B98",
"j 	c #8897B0",
"k 	c #A2AEC2",
"l 	c #D6DCE5",
"m 	c #F3F4F7",
"n 	c #464749",
"o 	c #7D454C",
"p 	c #7F8DA8",
"q 	c #E9ECF2",
"r 	c #6B6B6B",
"s 	c #853738",
"t 	c #212224",
"u 	c #6A3C23",
"v 	c #CA532A",
"w 	c #9C2D1F",
"x 	c #4D5056",
"y 	c #54575C",
"z 	c #A2ABBD",
"A 	c #7E838B",
"B 	c #B4BDCD",
"C 	c #1A1B1C",
"D 	c #824727",
"E 	c #94291E",
"F 	c #1E1F21",
"G 	c #999AA9",
"H 	c #60646A",
"I 	c #585D65",
"J 	c #758193",
"K 	c #87241C",
"L 	c #221514",
"M 	c #312B31",
"N 	c #687694",
"O 	c #6B7997",
"P 	c #1F2124",
"Q 	c #26282D",
"R 	c #636E8B",
"S 	c #22252B",
"T 	c #5F6266",
"U 	c #78261C",
"V 	c #343945",
"W 	c #49505A",
"X 	c #454B55",
"Y 	c #2E1715",
"Z 	c #6D201A",
"` 	c #515B73",
" .	c #5B6886",
"..	c #323438",
"+.	c #5C6573",
"@.	c #6A697A",
"#.	c #421A17",
"$.	c #424A5C",
"%.	c #59413E",
"&.	c #601E19",
"*.	c #5D1E19",
"=.	c #808FA9",
"-.	c #292C33",
";.	c #331816",
">.	c #481B17",
",.	c #613940",
"'.	c #9B4C49",
").	c #9C5953",
"!.	c #A7675B",
"~.	c #AB745F",
"{.	c #533C2C",
"].	c #D1592D",
"^.	c #868996",
"/.	c #8F8A97",
"(.	c #5B4459",
"_.	c #4B5576",
":.	c #444866",
"<.	c #D66130",
"[.	c #7D8AA4",
"}.	c #B6C0D1",
"|.	c #4C5777",
"1.	c #454F71",
"2.	c #363B45",
"3.	c #B4BED0",
"4.	c #BCC6D5",
"5.	c #8E322D",
"6.	c #3D2628",
"7.	c #262931",
"8.	c #717F9C",
"9.	c #633735",
"0.	c #5D2C28",
"a.	c #2E1C1B",
"b.	c #8994AC",
"c.	c #5D6A89",
"d.	c #553631",
"e.	c #542926",
"f.	c #562926",
"g.	c #525E7E",
"h.	c #424C6E",
"i.	c #391F21",
"j.	c #492524",
"k.	c #566283",
"l.	c #3F4861",
"m.	c #2E3447",
"n.	c #1E2129",
"o.	c #282D3B",
"p.	c #3E4665",
"q.	c #7987A2",
"r.	c #3C414D",
"s.	c #7785A2",
"t.	c #49506C",
"u.	c #6F5B64",
"v.	c #2D3352",
"w.	c #363C58",
"x.	c #B89220",
"y.	c #F2BE24",
"z.	c #C2961F",
"A.	c #FFC423",
"B.	c #2C2C2C",
"C.	c #C27D14",
"D.	c #FFA214",
"E.	c #CFD6E2",
"F.	c #B6B7B9",
"G.	c #512F13",
"H.	c #554643",
"I.	c #D58614",
"J.	c #9DAAC0",
"K.	c #ED7614",
"L.	c #CE7531",
"M.	c #C6885B",
"N.	c #FA9714",
"O.	c #AAB6C9",
"P.	c #E1E5ED",
"Q.	c #CCCBCC",
"R.	c #643813",
"S.	c #58381E",
"T.	c #AD6A66",
"U.	c #C67869",
"V.	c #B7807A",
"W.	c #997882",
"X.	c #736267",
"Y.	c #98301C",
"Z.	c #A74D41",
"`.	c #412121",
" +	c #67615F",
".+	c #847C79",
"++	c #8C2C26",
"@+	c #C7B3B8",
"#+	c #B5A8B2",
"$+	c #602C27",
"%+	c #3C4355",
"        . . . . . . . . . . . . . . . . . . . .                         . . . . . . . . . . . . . . . . . . . .                 ",
"        . . . . . . . . . . . . . . . . . . . .                         . . . . . . . . . . . . . . . . . . . .                 ",
"        . . . . . . . . . . . . . . . . . . . .                         . . . . . . . . . . . . . . . . . . . .                 ",
"        . . . . . . . . . . . . . . . . . . . .                         . . . . . . . . . . . . . . . . . . . .                 ",
". . . . . . . . . . . . . . . . . . . . . . + + + + + + +       . . . . . . . . . . . . . . . . . . . . . . . . @ @ @ @         ",
". . . . . . . . . . . . . . . . . . . . . # $ $ $ $ $ $ $ % +   . . . . . . . . . . . . . . . . . . . . . . . . @ @ @ @         ",
". . . . . . . . . . . . . . . . . . . . + # & & & & & & & * +   . . . . . . . . . . . . . . . . . . . . . . . . @ @ @ @         ",
". . . . . . . . . . . . . . . . . . . + = - & & & & & & & ; - > + + + + . . . . . . . . . . . . . . . . . . . . @ @ @ @         ",
". . . . . . . . . . . . . . . . . . + + , & & & & & & & & & & > + + + + + . . . . . . . . . . . . . . . . . . . @ @ @ @         ",
". . . . . . . . . . . . . . . . . . + + , ' ) ) ) ! ~ ~ ~ { ] ^ / / ( _ : + . . . . . . . . . . . . . . . . . . @ @ @ @         ",
". . . . . . . . . . . . . . . . . . < < , ' [ [ [ } | | 1 2 3 4 5 5 6 7 8 9 . . . . . . . . . . . . . . . . . . @ @ @ @         ",
". . . . . . . . . . . . . . . . + + - & ) [ [ [ [ } | 0 3 a 5 5 b c c c d 7 e + . . . . . . . . . . . . . . . . @ @ @ @         ",
". . . . . . . . . . . . . . . . + + - & ) [ [ [ f g h 0 i j 5 b k c c c l m : n . . . . . . . . . . . . . . . . @ @ @ @         ",
". . . . . . . . . . . . . . . . + + - & ) [ [ f | o 3 p 5 5 5 c c c c c c c q 7 n + . . . . . . . . . . . . . . @ @ @ @         ",
". . . . . . . . . . . . . . . . + + - & ) [ } g o 0 3 p 5 5 5 c c c c c c c d q : r . . . . . . . . . . . . . . @ @ @ @         ",
". . . . . . . . . . . . . . . . + + - & ) [ | s 3 3 3 p 5 5 5 c c c c c c c c c m 7 t + . . . . . . . . . . . . @ @ @ @         ",
". . . . . . . . . . . . . . . . + + - & ) [ | s 3 3 3 p 5 5 5 c c c c c c c c c m 7 t + . . . . . . . . . . . . @ @ @ @         ",
". . . . . . . . . . . . . . . . + + - & ) [ | s 3 3 3 p 5 5 5 c c c c c c c c c m 7 t + . . . . . . . . . . . . @ @ @ @         ",
". . . . . . . . . . . . . . . + u - v v g w | s 3 3 3 p 5 5 5 x y c z n A c ] n ( B C + . . . . . . . . . . . . @ @ @ @         ",
". . . . . . . . . . . . . . . + D & v [ E | | s 3 3 3 p 5 5 5 F t c G + H c I + J 5 C + . . . . . . . . . . . . @ @ @ @         ",
". . . . . . . . . . . . . . . + D & g E | K L M 3 3 3 N O j 5 F P b J + H c I + J 5 C + . . . . . . . . @ @ @ @ @ @ @ @         ",
". . . . . . . . . . . . . . . + D ' g | | K + Q R R 3 3 3 a 4 S S 5 ] + T c I + J 5 C + . . . . . . . . @ @ @ @ @ @ @ @         ",
". . . . . . . . . . . + + . . + U [ w | | K + + + V 3 3 3 3 3 4 5 5 ] + W 5 X + J 5 C + . . . . . . . . @ @ @ @ @ @ @ @         ",
". . . . . . . . . . . Y Y . L Y U f w | U Z + + + V `  .3 3 3 a j 5 ^ ..+.5 I ..@.J C + . . . . . . . . @ @ @ @ @ @ @ @         ",
". . . . . . . . . + + | U + #.| | | | | L + . . @ @ + $.3 3 3 3 N 5 5 5 5 5 5 5 ..+ @ @ @ @ @ @ @ @ @ @ @ @ @ @ %.%.%.%.        ",
". . . . . . . . . + + | U #.&.| | | Z *.L + . . @ @ + V $. .3 3 N =.=.=.p p ] +.-.+ @ @ @ @ @ @ @ @ @ @ @ @ @ @ %.%.%.%.        ",
". . . . . . . . . + + | | | | | | | ;.+ . . . . @ @ @ + + ` 3 3 3 3 3 3 3 3 V + @ @ @ @ @ @ @ @ @ @ @ @ @ @ @ @ %.%.%.%.        ",
". . . . . . . . . . . >.>.>.>.>.>.>.Y . . . . . @ @ @ + + ,.o o '.).).).!.~.{.+ @ @ @ @ @ @ @ @ @ @ @ @ @ @ @ @ %.%.%.%.        ",
". . . . . . . . . . . + + + + + + + . . . . . . @ @ @ + + Z | | E [ [ [ ].& u + %.%.%.%.%.%.%.%.%.%.%.%.%.%.%.%.                ",
". . . . . . . . . . . . . . . . . . . . . . . . @ @ + I ] ^./.(.(.w g [ ) v ; - % + %.%.%.%.%.%.%.%.%.%.%.%.%.%.                ",
". . . . . . . . . . . . . . . . . . . . . . . . @ @ + +.5 5 5 _.:.| w [ [ [ <.& * + %.%.%.%.%.%.%.%.%.%.%.%.%.%.                ",
". . . . . . . . . . . . . . . . . . . . . . . . + V  .[.5 }.c |.1.R 0 E E E E E ;.+ + + + + + + + %.%.%.%.%.%.%.                ",
". . . . . . . . . . . . . . . . . . . . . . . . C 2.3 a b 3.4.|.1.3 2 5.5.5.5.5.6.t < < < < < < < . . . . . . .                 ",
". . . . . . . . . . . . . . . . . . . . . . + 7.3 3 3 b c [.3 1.1.3 8.5 5 5 5 5 4.c 9.0.0.0.0.0.0.a.+ . . . . .                 ",
". . . . . . . . . . . . . . . . . . . . . . + 7.3 3 3 b.k i c.1.1.3 8.5 5 5 5 5 6 4.d.e.e.e.e.f.0.a.+ . . . . .                 ",
". . . . . . . . . . . . . . . . . . . . . . + 7.3 3 3 g.h.h.h.h.1.3 8.5 5 5 5 5 5 5 6.i.i.i.i.j.0.a.+ . . . . .                 ",
". . . . . . . . . . . . . . . . . . . . . . + S k.k.k.l.m.m.m.h.1.3 i p a 5 5 5 5 5 6.i.i.i.i.j.0.a.+ . . . . . @ @ @ @         ",
". . . . . . . . . . . . . . . . . . . . . . + n.h.h.h.o.+ + + p.1.3 3 3 q.5 5 5 5 5 6.i.i.i.i.j.0.a.+ . . . . . @ @ @ @         ",
". . . . . . . . . . . . . . . . . . . . . . + S k.R 8.r.+ + + p.h.g.k.3 i s.s.s.s.s.@.@.i.i.i.j.0.a.+ . . . . . @ @ @ @         ",
". . . . . . . . . . . . . . . . . . . . . . + 7.3 s.5 W + + + p.h.h._.3 3 3 3 3 3 3 4 b.i.i.i.j.0.a.+ . . . . . @ @ @ @         ",
". . . . . . . . . . . . . . . . . . . . . . + 7.3 s.5 W + + + p.h.h.1._._._._._.c.3 h.t.^ ^ ^ u.0.a.+ . . . . . @ @ @ @         ",
". . . . . . . . . . . . . . . . . . . . . . + 7.3 s.5 W + + + p.h.h.h.h.h.h.h.h.c.3 v.w.5 5 5 e 0.a.+ . . . . . @ @ @ @         ",
". . . . . . . . . . . . . . . . . . . . . . + 7.3 s.5 W + x.y.~ 1 1 1 1 1 1 1 1 @.3 v.v.N ^ 5 e 0.a.+ + + + + + + @ @ @         ",
". . . . . . . . . . . . . . . . . . . . . . + Q R 8.j X + z.A.5.5.5.5.5.5.5.5.5.2 O w.l.O s.5 e 9.6.t t t Q Q B.B.@ @ @         ",
". . . . . . . . . . . . . . . . . . . . . . + n.h.h.h.o.+ C.D.( 5 5 5 5 5 5 5 5 5 5 5 5 5 5 5 5 5 5 5 5 5 c E.7 F.+ + @         ",
". . . . . . . . . . . . . . . . . . . . . . G.{.|.g.k.H.G.I.D.( 5 5 5 5 5 5 5 5 5 5 5 5 5 5 5 5 5 5 5 J.k l E.F.8 + @ @         ",
". . . . . . . . . . . . . . . . . . . . + # K.L.3 s.5 M.K.N.D.( 5 5 5 5 5 5 5 5 5 5 5 5 5 5 5 5 5 5 5 4.c 7 _ + + @ @ @         ",
". . . . . . . . . . . . . . . . . . . . + # K.L.3 s.5 M.K.N.D.F.O.O.O.O.O.O.O.O.O.O.O.O.O.O.O.}.c c c d P.8 : + @ @ @ @         ",
". . . . . . . . . . . . . . . . . . . . + # K.L.3 s.5 M.K.N.D.Q.c c c c c c c c c c c c c c c P.7 7 7 7 7 9 + . @ @ @ @         ",
". . . . . . . . . . . . . . . . . . . . . . R.S.V 2.X {.R.I.D.!.T.U.V.b.b.b.W.!.T.U.X.X.{ X.y T r r r r r . . . @ @ @ @         ",
". . . . . . . . . . . . . . . . . . . . . . + + + + + + + C.D.Y.E [ Z.3 3 3 o | f [ `.6.0.j.+ + + + + + + . . . @ @ @ @         ",
". . . . . . . . . . . . . . . . . . . . . . . . @ @ @ + +  +.+++5.@+#+3 3 3 G #+Z.w f.e.> > . . . . . . . . . . @ @ @ @         ",
". . . . . . . . . . . . . . . . . . . . @ @ @ @ @ @ @ + + ` 3 ++5.c 6 3 3 3 k c '.| $+e.+ + . . . . . . @ @ @ @ @ @ @ @         ",
". . . . . . . . . . . . . . . . . . . . @ @ @ @ @ @ + $.R _.h.h.:.9 S h.h.h.o.9 < + < < . . . . . . . . @ @ @ @ @ @ @ @         ",
". . . . . . . . . . . . . . . . . . . . @ @ @ @ @ @ + $.3 k.|.g.|.+ S 1._.|.o.+ + + + + . . . . . . . . @ @ @ @ @ @ @ @         ",
". . . . . . . . . . . . . . . . . . . . @ @ @ @ @ @ + $.3 a 5 c B + -.3 q.5 X + . . . . . . . . . . . . @ @ @ @ @ @ @ @         ",
"%.%.%.%.@ @ @ @ @ @ @ @ @ @ @ @ @ @ @ @ @ @ @ @ %.%.+ %+ .8.q./.^.+ 7. .3 q.r.+ @ @ @ @ @ @ @ @ @ @ @ @ @ @ @ @ %.%.%.%.        ",
"%.%.%.%.@ @ @ @ @ @ @ @ @ @ @ @ @ @ @ @ @ @ @ @ %.%.+ m.h.h.h.9 + + n.h.h.h.o.+ @ @ @ @ @ @ @ @ @ @ @ @ @ @ @ @ %.%.%.%.        ",
"%.%.%.%.@ @ @ @ @ @ @ @ @ @ @ @ @ @ @ @ @ @ @ @ %.%.+ w.g.R N C + + Q g.c.N V + @ @ @ @ @ @ @ @ @ @ @ @ @ @ @ @ %.%.%.%.        ",
"%.%.%.%.@ @ @ @ @ @ @ @ @ @ @ @ @ @ @ @ @ @ @ @ %.%.+ $.3 a 5 F + + -.3 q.5 X + @ @ @ @ @ @ @ @ @ @ @ @ @ @ @ @ %.%.%.%.        ",
"        %.%.%.%.%.%.%.%.%.%.%.%.%.%.%.%.%.%.%.%.    + $.3 8.^ ^.A + -.3 i ^ ^.^...+ %.%.%.%.%.%.%.%.%.%.%.%.%.%.                ",
"        %.%.%.%.%.%.%.%.%.%.%.%.%.%.%.%.%.%.%.%.    + $.3 3 3 4.B + -.3 3 3 b c 2.+ %.%.%.%.%.%.%.%.%.%.%.%.%.%.                ",
"        %.%.%.%.%.%.%.%.%.%.%.%.%.%.%.%.%.%.%.%.      P S S S ....    S S S -...%.%.%.%.%.%.%.%.%.%.%.%.%.%.%.%.                ",
"        %.%.%.%.%.%.%.%.%.%.%.%.%.%.%.%.%.%.%.%.      + + + + + +     + + + + + %.%.%.%.%.%.%.%.%.%.%.%.%.%.%.%.                "};
