/* XPM */
static char * 0_xpm[] = {
"64 64 14 1",
" 	c #001C40",
".	c #FFD156",
"+	c #D85D09",
"@	c #FFA61F",
"#	c #D7D7D7",
"$	c #D2D2D2",
"%	c #DADADA",
"&	c #DDDDDD",
"*	c #E0E0E0",
"=	c #E4E4E4",
"-	c #E9E9E9",
";	c #EDEDED",
">	c #F0F0F0",
",	c #F3F3F3",
"                                                                ",
"                                                                ",
"  ............................................................  ",
"  ............................................................  ",
"  ++..........................................................  ",
"  ++..........................................................  ",
"  ++++@@@@@@@@@@@@@@@@@@@@@@@@@@@@@@@@@@@@@@@@@@@@@@@@@@@@....  ",
"  ++++@@@@@@@@@@@@@##$$####%%#%%%%%%%&&%&%%#$@@@@@@@@@@@@@....  ",
"  ++++@@@@@@@@@@@@#$#$#$$%%%%%%%&%%%&%%&&%##$#@@@@@@@@@@@@....  ",
"  ++++@@@@@@@@%%%%&%&&&%&&&***&&%%&&&&*&&&%###%***@@@@@@@@....  ",
"  ++++@@@@@@@@%%%%&&&*&&&*==***&%%&&&***&&%%#%%&&*@@@@@@@@....  ",
"  ++++@@@@@@@@%%&%&&***&*&****&&&&%&&&%&%%&%%%&&**@@@@@@@@....  ",
"  ++++@@@@@@%%%&&&&*&*&&*%%&&&&&&&%%###%%%%%&&&&**&&@@@@@@....  ",
"  ++++@@@@@@%%&%&&&&*&&*&%%%&&&&%%%%%##%&&%%&&&&*&&&@@@@@@....  ",
"  ++++@@@$##%#%%%%%&&%%%%@@@@@@@@@@@@@@&&&*&&&&&&&&&&&&@@@....  ",
"  ++++@@@#$###%##%%&%%#%%@@@@@@@@@@@@@@&***&&&&&**&&&*&@@@....  ",
"  ++++@##$$$$#$###%#$$#@@@@@@@@@@@@@@@@@@*****&****&**=@@@....  ",
"  ++++@###$$$$#$#%##$$$@@@@@@@@@@@@@@@@@@*=*&***==**===@@@....  ",
"  ++++@##$$$$$$##%####@@@@@@@@@@@@@@@@@@@=******--=====-@@....  ",
"  ++++@$#$$#$$$$%%%#@@@@@@@@@@@@@@@@@@@@@=======--=====--@....  ",
"  ++++@##%%%#%%%%&&%@@@@@@@@@@@@@@@@@@@@@@@=-=-----=--;-;@....  ",
"  ++++@%&&*&***&***&@@@@@@@@@@@@@@@@@@@@@@@@--------;;;;;@....  ",
"  ++++@&&&*&***&**&*@@@@@@@@@@@@@@@@@@@@@@@@-----=---;;;;@....  ",
"  ++++@&&&&&****&&**@@@@@@@@@@@@@@@@@@@@@@@@***=****=----@....  ",
"  ++++@&&%%&*&&&&&&*@@@@@@@@@@@@@@@@@@@@@@@@**&*****====-@....  ",
"  ++++@**%%%&%&&&%&&@@@@@@@@@@@@@@@@@@@@@@@@&%%&****=-=--@....  ",
"  ++++@**&%%%%&%&&&&@@@@@@@@@@@@@@@@@@@@@@@@%%%&&****=--;@....  ",
"  ++++@*=*%%&&*&&*&&@@@@@@@@@@@@@@@@@@@@@@@@*&**==---;-;;@....  ",
"  ++++@==&&&&&*=***&@@@@@@@@@@@@@@@@@@@@@@@@====--;;>>>>>@....  ",
"  ++++@***&%&&****&&@@@@@@@@@@@@@@@@@@@@@@@@-===---;;;;;;@....  ",
"  ++++@**&&%%%&&&&%%@@@@@@@@@@@@@@@@@@@@@@@@==*=**-=---==@....  ",
"  ++++@&&&%%%%&&&%%%@@@@@@@@@@@@@@@@@@@@@@@@-=****==-=--=@....  ",
"  ++++@&&&&&%%%%%%%&@@@@@@@@@@@@@@@@@@@@@@@@---=---;;----@....  ",
"  ++++@&&&&%&&%%%%&&@@@@@@@@@@@@@@@@@@@@@@@@=--------;---@....  ",
"  ++++@&&%%%%&&%&&&&@@@@@@@@@@@@@@@@@@@@@@@@-;;;>>;>;;>;;@....  ",
"  ++++@&&&%%%&%&&&&&@@@@@@@@@@@@@@@@@@@@@@@@;;>>>,>>>>>>>@....  ",
"  ++++@*&&&&&&&&%%%%@@@@@@@@@@@@@@@@@@@@@@@@--;>>>;--;;;;@....  ",
"  ++++@=*&&&&&*&%%##@@@@@@@@@@@@@@@@@@@@@@@@=-;;;;**==--=@....  ",
"  ++++@==****&&%%#%#@@@@@@@@@@@@@@@@@@@@@@@@*-;-;-=**-==-@....  ",
"  ++++@==--=***&%%&&@@@@@@@@@@@@@@@@@@@@@@@@&==---**===--@....  ",
"  ++++@-----***&%&&&@@@@@@@@@@@@@@@@@@@@@@@@&*==--=*=-=-=@....  ",
"  ++++@=====***&&&**@@@@@@@@@@@@@@@@@@@@@@@@&&****=*=----@....  ",
"  ++++@=====*******=@@@@@@@@@@@@@@@@@@@@@@@@&&&&**===----@....  ",
"  ++++@***=*=**&*&&&&@@@@@@@@@@@@@@@@@@@@@@%&%%%&&&&*===-@....  ",
"  ++++@*****=*****&%%%&@@@@@@@@@@@@@@@@@@##%%%&%%%&&***=*@....  ",
"  ++++@@******&&&&%#%%%@@@@@@@@@@@@@@@@@@%&&*&&&*&&**===@@....  ",
"  ++++@@@&*&&*%%%%%##%#@@@@@@@@@@@@@@@@@@***==----===--@@@....  ",
"  ++++@@@*****&&&&&%&%%@@@@@@@@@@@@@@@@@@**===-=--===--@@@....  ",
"  ++++@@@=*=*======**&&****@@@@@@@@@@--====-----==--=--@@@....  ",
"  ++++@@@=======-=********=@@@@@@@@@@====-------=--=-=-@@@....  ",
"  ++++@@@@@@-=-=---=*******=*==-=====--*=**=------==@@@@@@....  ",
"  ++++@@@@@@-------==******=*========;-****=------==@@@@@@....  ",
"  ++++@@@@@@@@==*=*====****=-====*======***==---@@@@@@@@@@....  ",
"  ++++@@@@@@@@******=-=**=*===========*==*=*===-@@@@@@@@@@....  ",
"  ++++@@@@@@@@******=--=====--====-====-=*==*--@@@@@@@@@@@....  ",
"  ++++@@@@@@@@@@@@@@;;------;--=---------@@@@@@@@@@@@@@@@@....  ",
"  ++++@@@@@@@@@@@@@@-;----=-;;=--------=-@@@@@@@@@@@@@@@@@....  ",
"  ++++@@@@@@@@@@@@@@@@@@@@@@@@@@@@@@@@@@@@@@@@@@@@@@@@@@@@....  ",
"  ++++++++++++++++++++++++++++++++++++++++++++++++++++++++++..  ",
"  ++++++++++++++++++++++++++++++++++++++++++++++++++++++++++..  ",
"  ++++++++++++++++++++++++++++++++++++++++++++++++++++++++++++  ",
"  ++++++++++++++++++++++++++++++++++++++++++++++++++++++++++++  ",
"                                                                ",
"                                                                "};
