/* XPM */
static char * 1_xpm[] = {
"64 64 12 1",
" 	c #001C40",
".	c #FFD156",
"+	c #D85D09",
"@	c #FFA61F",
"#	c #EBEBEB",
"$	c #E5E5E5",
"%	c #DFDFDF",
"&	c #E3E3E3",
"*	c #ECECEC",
"=	c #F0F0F0",
"-	c #F7F7F7",
";	c #F8F8F8",
"                                                                ",
"                                                                ",
"  ............................................................  ",
"  ............................................................  ",
"  ++..........................................................  ",
"  ++..........................................................  ",
"  ++++@@@@@@@@@@@@@@@@@@@@@@@@@@@@@@@@@@@@@@@@@@@@@@@@@@@@....  ",
"  ++++@@@@@@@@@@@@@@@@@@@@@@@@@@@@@##@@@@@@@@@@@@@@@@@@@@@....  ",
"  ++++@@@@@@@@@@@@@@@@@@@@@@@@@@@@@##@@@@@@@@@@@@@@@@@@@@@....  ",
"  ++++@@@@@@@@@@@@@@@@@@@@@@@@@@@####@@@@@@@@@@@@@@@@@@@@@....  ",
"  ++++@@@@@@@@@@@@@@@@@@@@@@@@@@@$#$#@@@@@@@@@@@@@@@@@@@@@....  ",
"  ++++@@@@@@@@@@@@@@@@@@@@@@@%&%&&&&&@@@@@@@@@@@@@@@@@@@@@....  ",
"  ++++@@@@@@@@@@@@@@@@@@@@@@@&&&&&&&$@@@@@@@@@@@@@@@@@@@@@....  ",
"  ++++@@@@@@@@@@@@@@@@@@@@@&$$&$$$$$#@@@@@@@@@@@@@@@@@@@@@....  ",
"  ++++@@@@@@@@@@@@@@@@@@@@@&&&&$$$#$$@@@@@@@@@@@@@@@@@@@@@....  ",
"  ++++@@@@@@@@@@@@@@@@@@@$$%%%%&&$$$$@@@@@@@@@@@@@@@@@@@@@....  ",
"  ++++@@@@@@@@@@@@@@@@@@@$&%%%%%%$$#$@@@@@@@@@@@@@@@@@@@@@....  ",
"  ++++@@@@@@@@@@@@@@@@@@@&&%&%%%%&%&&@@@@@@@@@@@@@@@@@@@@@....  ",
"  ++++@@@@@@@@@@@@@@@@@@@&&&%&%%%&&&$@@@@@@@@@@@@@@@@@@@@@....  ",
"  ++++@@@@@@@@@@@@@@@@@@@&&$&&&%%%%&&@@@@@@@@@@@@@@@@@@@@@....  ",
"  ++++@@@@@@@@@@@@@@@@@@@&&$$$$%%%%%%@@@@@@@@@@@@@@@@@@@@@....  ",
"  ++++@@@@@@@@@@@@@@@@@@@%&$&&$&&&&$&@@@@@@@@@@@@@@@@@@@@@....  ",
"  ++++@@@@@@@@@@@@@@@@@@@&&$$#$$&$$$$@@@@@@@@@@@@@@@@@@@@@....  ",
"  ++++@@@@@@@@@@@@@@@@@@@***=*=######@@@@@@@@@@@@@@@@@@@@@....  ",
"  ++++@@@@@@@@@@@@@@@@@@@*=--==****##@@@@@@@@@@@@@@@@@@@@@....  ",
"  ++++@@@@@@@@@@@@@@@@@@@============@@@@@@@@@@@@@@@@@@@@@....  ",
"  ++++@@@@@@@@@@@@@@@@@@@=**=**=====*@@@@@@@@@@@@@@@@@@@@@....  ",
"  ++++@@@@@@@@@@@@@@@@@@@&&$#***=**#*@@@@@@@@@@@@@@@@@@@@@....  ",
"  ++++@@@@@@@@@@@@@@@@@@@&&$$#***##*#@@@@@@@@@@@@@@@@@@@@@....  ",
"  ++++@@@@@@@@@@@@@@@@@@@*##**===**#*@@@@@@@@@@@@@@@@@@@@@....  ",
"  ++++@@@@@@@@@@@@@@@@@@@##**===***#*@@@@@@@@@@@@@@@@@@@@@....  ",
"  ++++@@@@@@@@@@@@@@@@@@@=*======--*=@@@@@@@@@@@@@@@@@@@@@....  ",
"  ++++@@@@@@@@@@@@@@@@@@@=******=====@@@@@@@@@@@@@@@@@@@@@....  ",
"  ++++@@@@@@@@@@@@@@@@@@@$$$#$$$$##*#@@@@@@@@@@@@@@@@@@@@@....  ",
"  ++++@@@@@@@@@@@@@@@@@@@$$$$$#$#$###@@@@@@@@@@@@@@@@@@@@@....  ",
"  ++++@@@@@@@@@@@@@@@@@@@##*===**####@@@@@@@@@@@@@@@@@@@@@....  ",
"  ++++@@@@@@@@@@@@@@@@@@@****===*#***@@@@@@@@@@@@@@@@@@@@@....  ",
"  ++++@@@@@@@@@@@@@@@@@@@-------==*==@@@@@@@@@@@@@@@@@@@@@....  ",
"  ++++@@@@@@@@@@@@@@@@@@@--;;;;===*=*@@@@@@@@@@@@@@@@@@@@@....  ",
"  ++++@@@@@@@@@@@@@@@@@@@=======**===@@@@@@@@@@@@@@@@@@@@@....  ",
"  ++++@@@@@@@@@@@@@@@@@@@=*======**==@@@@@@@@@@@@@@@@@@@@@....  ",
"  ++++@@@@@@@@@@@@@@@@@@@***========*@@@@@@@@@@@@@@@@@@@@@....  ",
"  ++++@@@@@@@@@@@@@@@@@@@*****===**=*@@@@@@@@@@@@@@@@@@@@@....  ",
"  ++++@@@@@@@@@@@@@@@@@@@#**=*#==*=**@@@@@@@@@@@@@@@@@@@@@....  ",
"  ++++@@@@@@@@@@@@@@@@@@@##**#*=*****@@@@@@@@@@@@@@@@@@@@@....  ",
"  ++++@@@@@@@@@@@@@@@@@@@#####$######@@@@@@@@@@@@@@@@@@@@@....  ",
"  ++++@@@@@@@@@@@@@@@@@@@$$#$$###$##$@@@@@@@@@@@@@@@@@@@@@....  ",
"  ++++@@@@@@@@@@@@@@@@@@@####*===*===@@@@@@@@@@@@@@@@@@@@@....  ",
"  ++++@@@@@@@@@@@@@@@@@@@#$#***=====*@@@@@@@@@@@@@@@@@@@@@....  ",
"  ++++@@@@@@@@@@@@@@@@@@@$$$#$###$$$$@@@@@@@@@@@@@@@@@@@@@....  ",
"  ++++@@@@@@@@@@@@@@@@@@@$&&&$#$&$$$$@@@@@@@@@@@@@@@@@@@@@....  ",
"  ++++@@@@@@@@@@@@@@@@@@@$$&$$$&%&&$$@@@@@@@@@@@@@@@@@@@@@....  ",
"  ++++@@@@@@@@@@@@@@@@@@@$$$$$$&&&&$$@@@@@@@@@@@@@@@@@@@@@....  ",
"  ++++@@@@@@@@@@@@@@@@@@@**##**###*==@@@@@@@@@@@@@@@@@@@@@....  ",
"  ++++@@@@@@@@@@@@@@@@@@@=***=**===*=@@@@@@@@@@@@@@@@@@@@@....  ",
"  ++++@@@@@@@@@@@@@@@@@@@=-----;-;;--@@@@@@@@@@@@@@@@@@@@@....  ",
"  ++++@@@@@@@@@@@@@@@@@@@-;--;;;;;;;;@@@@@@@@@@@@@@@@@@@@@....  ",
"  ++++@@@@@@@@@@@@@@@@@@@@@@@@@@@@@@@@@@@@@@@@@@@@@@@@@@@@....  ",
"  ++++++++++++++++++++++++++++++++++++++++++++++++++++++++++..  ",
"  ++++++++++++++++++++++++++++++++++++++++++++++++++++++++++..  ",
"  ++++++++++++++++++++++++++++++++++++++++++++++++++++++++++++  ",
"  ++++++++++++++++++++++++++++++++++++++++++++++++++++++++++++  ",
"                                                                ",
"                                                                "};
