/* XPM */
static char * 2_xpm[] = {
"64 64 14 1",
" 	c #001C40",
".	c #FFD156",
"+	c #D85D09",
"@	c #FFA61F",
"#	c #EAEAEA",
"$	c #ECECEC",
"%	c #F0F0F0",
"&	c #F4F4F4",
"*	c #F8F8F8",
"=	c #FBFBFB",
"-	c #E7E7E7",
";	c #E2E2E2",
">	c #DEDEDE",
",	c #DADADA",
"                                                                ",
"                                                                ",
"  ............................................................  ",
"  ............................................................  ",
"  ++..........................................................  ",
"  ++..........................................................  ",
"  ++++@@@@@@@@@@@@@@@@@@@@@@@@@@@@@@@@@@@@@@@@@@@@@@@@@@@@....  ",
"  ++++@@@@@@@@@@@@@@@@@@@@@@@@@@@@@@@@@@@@@@@@@@@@@@@@@@@@....  ",
"  ++++@@@@@@@@@@@@@@@@@@@@@@@@@@@@@@@@@@@@@@@@@@@@@@@@@@@@....  ",
"  ++++@@@@@@@@@@####$$$%%%%$%%%%%$%$$%$&**==**@@@@@@@@@@@@....  ",
"  ++++@@@@@@@@@@#####$$$$%%$%%$$%$$$$$$&******@@@@@@@@@@@@....  ",
"  ++++@@@@@@@@@-------###-##########-###$%$%$%@@@@@@@@@@@@....  ",
"  ++++@@@@@@@---;--------;---#-###-------####-#$$--@@@@@@@....  ",
"  ++++@@@@@@--;;>;;>;;;;;;-;-;-#--;-;---------###-#-@@@@@@....  ",
"  ++++@@@@@@;;>>,,,,>,>>>>>>;>;>>;;;-;;------;-###--@@@@@@....  ",
"  ++++@@@@@;;>,>>,>,>>>>>;;;>>;>>;;---;--------;-----@@@@@....  ",
"  ++++@@@--;;>,,>,>,;>;-@@@@@@@@@@@@@@@@-----#-;-------@@@....  ",
"  ++++@@@;;;;>,,>>>>>;--@@@@@@@@@@@@@@@@---;--;;-------@@@....  ",
"  ++++@@@--;;;>;>;--;-@@@@@@@@@@@@@@@@@@@@----;;-----;-@@@....  ",
"  ++++@@@------;-----#@@@@@@@@@@@@@@@@@@@@---#;;;------@@@....  ",
"  ++++@##$$%%%$##$$##%@@@@@@@@@@@@@@@@@@@@#####--;-;---@@@....  ",
"  ++++@###%&&%%$$%%%$%@@@@@@@@@@@@@@@@@@@@$##$##-;---##@@@....  ",
"  ++++@@@@@&*&%%%&&&&%@@@@@@@@@@@@@@@@@@@@$%$$$$$####$$@@@....  ",
"  ++++@@@@@@*&%%%%**&*@@@@@@@@@@@@@@@@@@@@%%%$%%%%$$$$$@@@....  ",
"  ++++@@@@@@@@@@@@@@@@@@@@@@@@@@@@@@@@@@@@%%$$$$$%$$$$$@@@....  ",
"  ++++@@@@@@@@@@@@@@@@@@@@@@@@@@@@@@@@@@@@%%$$$$%$$$###@@@....  ",
"  ++++@@@@@@@@@@@@@@@@@@@@@@@@@@@@@@@@@@@@$%$$$$$%%$$#$@@@....  ",
"  ++++@@@@@@@@@@@@@@@@@@@@@@@@@@@@@@@@@@&%%%$$$$$%%%%%$@@@....  ",
"  ++++@@@@@@@@@@@@@@@@@@@@@@@@@@@@@@@@@@&&&%%$$$$%%&%%%@@@....  ",
"  ++++@@@@@@@@@@@@@@%%%%$$$$$%&*************&&%%%&&*@@@@@@....  ",
"  ++++@@@@@@@@@@@@@@&%%%%%$$%&&****&***&****%%%%%%&&@@@@@@....  ",
"  ++++@@@@@@@$$%%%%%%%&%%%%%%&%%%%&$$%$%%%&%%%%%%%%@@@@@@@....  ",
"  ++++@@@@@@@%%%&&%&&%&&&%%%%%%%&%$%$$$%%%%%%$%%%%%@@@@@@@....  ",
"  ++++@@@@@@%&**===**=******&%%%%$$##$$%&%%%%%@@@@@@@@@@@@....  ",
"  ++++@@@@@@%&*========******%%%%$$##$%%&%&%%%@@@@@@@@@@@@....  ",
"  ++++@@@**&&****====***&**@@@@@@@@@@@@@@@@@@@@@@@@@@@@@@@....  ",
"  ++++@@@**************&*&*@@@@@@@@@@@@@@@@@@@@@@@@@@@@@@@....  ",
"  ++++@@@**&&&&&&&&&%%@@@@@@@@@@@@@@@@@@@@@@@@@@@@@@@@@@@@....  ",
"  ++++@@@**&$%$%%%$$$$@@@@@@@@@@@@@@@@@@@@@@@@@@@@@@@@@@@@....  ",
"  ++++@@@&*&%%%%%%%%$$@@@@@@@@@@@@@@@@@@@@@@@@@@@@@@@@@@@@....  ",
"  ++++@%%%%%$%%%&&%%%%@@@@@@@@@@@@@@@@@@@@%&%&@@@@@@@@@@@@....  ",
"  ++++@%%%%%%%%%&&%%%%@@@@@@@@@@@@@@@@@@@@%&&&*@@@@@@@@@@@....  ",
"  ++++@%%%%$%%&%%%%%&%@@@@@@@@@@@@@@@@@@@@*&&*&******&*@@@....  ",
"  ++++@$%$%%$%%%%%&%&&@@@@@@@@@@@@@@@@@@@@&*&********&*@@@....  ",
"  ++++@$$$$$$$%%%&%&%%@@@@@@@@@@@@@@@@@@@@=******=***%&@@@....  ",
"  ++++@$####$$%%%%%%%%@@@@@@@@@@@@@@@@@@@@*=****====*&&@@@....  ",
"  ++++@&%%&&**%&%%&&&%@@@@@@@@@@@@@@@@@@@@&&&&&%%%%%%%%@@@....  ",
"  ++++@%&&%***%&%&%%%&@@@@@@@@@@@@@@@@@@@@%%%&%&&%%%%$%@@@....  ",
"  ++++@%&%%%&&%&%&%&%&@@@@@@@@@@@@@@@@@@@@$$$%%%$$$#$#$@@@....  ",
"  ++++@%%%&%%%&%&&&&%%@@@@@@@@@@@@@@@@@@@@$$$%$$$######@@@....  ",
"  ++++@%$%$%$%%&%%&%%&%@@@@@@@@@@@@@@@@@@%$$%%&%&%%$%%&@@@....  ",
"  ++++@##$$$$%&&%%%&%&%%%&%$###$$$$%$%$%%%%&&*=*==****=@@@....  ",
"  ++++@###$$$$%%%%%%&%%%%%$$#####$$$$$$$%%%%&&*********@@@....  ",
"  ++++@###$$$$%$$$$%%%$$$#$$#######$$$$$%%$%%%%%&&%&&%%@@@....  ",
"  ++++@###$$$$%%$$%%%&%%%$%$$$$$##$$$#$$$%$$%%%&%&&%%&&@@@....  ",
"  ++++@@@$$%%%%%%%&&********&%%$$$$$###$$$%$$$$$%%%%%%$@@@....  ",
"  ++++@@@%$%&%%&&%&&*****==*&&&%%%$###$$$$$$$$$$%&%%%$%@@@....  ",
"  ++++@@@@@@@@@@@@@@@@@@@@@@@@@@@@@@@@@@@@@@@@@@@@@@@@@@@@....  ",
"  ++++++++++++++++++++++++++++++++++++++++++++++++++++++++++..  ",
"  ++++++++++++++++++++++++++++++++++++++++++++++++++++++++++..  ",
"  ++++++++++++++++++++++++++++++++++++++++++++++++++++++++++++  ",
"  ++++++++++++++++++++++++++++++++++++++++++++++++++++++++++++  ",
"                                                                ",
"                                                                "};
