/* XPM */
static char * 3_xpm[] = {
"64 64 11 1",
" 	c #001C40",
".	c #FFD156",
"+	c #D85D09",
"@	c #FFA61F",
"#	c #FAFAFA",
"$	c #FCFCFC",
"%	c #F4F4F4",
"&	c #F0F0F0",
"*	c #EFEFEF",
"=	c #E6E6E6",
"-	c #E9E9E9",
"                                                                ",
"                                                                ",
"  ............................................................  ",
"  ............................................................  ",
"  ++..........................................................  ",
"  ++..........................................................  ",
"  ++++@@@@@@@@@@@@@@@@@@@@@@@@@@@@@@@@@@@@@@@@@@@@@@@@@@@@....  ",
"  ++++@@@@@@@@@@@@@@@@@@@@@@@@@@@@@@@@@@@@@@@@@@@@@@@@@@@@....  ",
"  ++++@@@@@@@@@@@@@@@@@@@@@@@@@@@@@@@@@@@@@@@@@@@@@@@@@@@@....  ",
"  ++++@@@@@@@@@@@@##$$$###%&&##&&#%#%#%###%#%#@@@@@@@@@@@@....  ",
"  ++++@@@@@@@@@@@@##$$$###%&&#%%&%#%#%#%###%#%@@@@@@@@@@@@....  ",
"  ++++@@@@@@@@@@@@#%#########$$#$$$$$$#####$$$@@@@@@@@@@@@....  ",
"  ++++@@@@@@@**&&&####$###$$$$$$$$$$$###$#$$$$$$$#$@@@@@@@....  ",
"  ++++@@@@@@=---*-*&&&%%##$$$$$$$$$$$$$$$$$$$$$$$$$$@@@@@@....  ",
"  ++++@@@@@@-===---*--*&%%$$$$$$$$$$$$$$$$$$$$$$$$$$@@@@@@....  ",
"  ++++@@@@@--===--*-*-*&%$$$$$$$$$$$$$$$$$$$$$$$$$$$$@@@@@....  ",
"  ++++@@@*----=---*&&*-*@@@@@@@@@@@@@@@@$$$$$$$$$$$$$$$@@@....  ",
"  ++++@@@---*----**&&**-@@@@@@@@@@@@@@@@$$$$$$$$$$$$$$$@@@....  ",
"  ++++@@@&&%%&&&&&%&%#@@@@@@@@@@@@@@@@@@@@$$$$$$$$$$$$$@@@....  ",
"  ++++@@@&&&&****&&%%%@@@@@@@@@@@@@@@@@@@@$$$$$$$$$$$$$@@@....  ",
"  ++++@@@&&&&*---**&&*@@@@@@@@@@@@@@@@@@@@$$$$$$$$$$$$$@@@....  ",
"  ++++@@@*&&*-----&&--@@@@@@@@@@@@@@@@@@@@$$$$$$$$$$$$$@@@....  ",
"  ++++@-----*-*******&@@@@@@@@@@@@@@@@@@@@$$$$$$$$$$$$$@@@....  ",
"  ++++@=--=---*****&&&@@@@@@@@@@@@@@@@@@@@$$$$$$$$$$$$$@@@....  ",
"  ++++@@@--***%&%%%%%%@@@@@@@@@@@@@@@@@@@@$$$#####$##$$@@@....  ",
"  ++++@@@****%##%#####@@@@@@@@@@@@@@@@@@@@%#%#&&&&###%#@@@....  ",
"  ++++@@@@**&%##%#%%%%@@@@@@@@@@@@@@@@@@@@&%%%&&%&%%###@@@....  ",
"  ++++@@@@@@@@@@#%&**&@@@@@@@@@@@@@@@@@@*-*&&&&&&&%####@@@....  ",
"  ++++@@@@@@@@@@%%**&&@@@@@@@@@@@@@@@@@@***&%%%&%%#####@@@....  ",
"  ++++@@@@@@@@@@@@@@@@@@@@@##$#$$$$$$$#%&&%#$$$$$$$#@@@@@@....  ",
"  ++++@@@@@@@@@@@@@@@@@@@@@##$###$$$$$##%#%##$$$$$$#@@@@@@....  ",
"  ++++@@@@@@@@@@@@@@@@@@@@@$$$$#$$$$$$$$##%##$$$$$$@@@@@@@....  ",
"  ++++@@@@@@@@@@@@@@@@@@@@@$$$$##$$$$$$$#####$$$$$$@@@@@@@....  ",
"  ++++@@@@@@@@@@@@@@@@@@@@@@@%%###$##$$###%#%##$####@@@@@@....  ",
"  ++++@@@@@@@@@@@@@@@@@@@@@@@&&######$$####%#%%%#%##@@@@@@....  ",
"  ++++@@@@@@@@@@@@@@@@@@@@@@@@@@@@@@@#####$$####$$$$@@@@@@....  ",
"  ++++@@@@@@@@@@@@@@@@@@@@@@@@@@@@@@@##$$$$$##$#$$$$@@@@@@....  ",
"  ++++@@@@@@#######$#@@@@@@@@@@@@@@@@@@$$$$$$$$$$$$$$$@@@@....  ",
"  ++++@@@@@@#########$@@@@@@@@@@@@@@@@@@$$$$$$$$$$$$$$$@@@....  ",
"  ++++@@@@@$$$$$######@@@@@@@@@@@@@@@@@@$$$$$$##$$$$$$$@@@....  ",
"  ++++@####$$$$$$#%#%#@@@@@@@@@@@@@@@@@@@@$#$$$###$$$$$@@@....  ",
"  ++++@######$$$######@@@@@@@@@@@@@@@@@@@@$$$$$$$$$$$$$@@@....  ",
"  ++++@#############$$@@@@@@@@@@@@@@@@@@@@$$$$$$$$$$$$$@@@....  ",
"  ++++@###############@@@@@@@@@@@@@@@@@@@@$$$$$$$$$$$$$@@@....  ",
"  ++++@@@%%&&%%%%%####@@@@@@@@@@@@@@@@@@@@#$$$$$$$$$$$$@@@....  ",
"  ++++@@@%%%%&%&%%##$#@@@@@@@@@@@@@@@@@@@@#$$$$$$$$$$$$@@@....  ",
"  ++++@@@&&&&&&&&%&&%&%%@@@@@@@@@@@@@@@@$$#$$$$$$$$$$$$@@@....  ",
"  ++++@@@&&&&&&%&&%&%&&%@@@@@@@@@@@@@@@@###$$$$$$$$$$$$@@@....  ",
"  ++++@@@@@&%%%%#%#####$##@@@@@@@@@@@@####$$$$$$$$$$$@@@@@....  ",
"  ++++@@@@@@%#####$$$$$$$##@@@@@@@@@@#####$$$$$$$$$$@@@@@@....  ",
"  ++++@@@@@@%%%###$$%##%#%#@@@@@@@@@@%%#%##$$##$$$$#@@@@@@....  ",
"  ++++@@@@@@#%&%####%&%%&%%&%%&&&####%&&&%####%%%#%%@@@@@@....  ",
"  ++++@@@@@@@@@%#%##&&%&&%%%&&&%&#####%%######%#%@@@@@@@@@....  ",
"  ++++@@@@@@@@@@#%##%&&%&%&&%&&&&%###$$$$$######@@@@@@@@@@....  ",
"  ++++@@@@@@@@@@%###%%%&%%%&#%%%%%#$$$$$$$$#####@@@@@@@@@@....  ",
"  ++++@@@@@@@@@@@@@@@@#%#######$$$$$$$$$$$@@@@@@@@@@@@@@@@....  ",
"  ++++@@@@@@@@@@@@@@@@#%##$##$#$$$$$$$$$$$@@@@@@@@@@@@@@@@....  ",
"  ++++@@@@@@@@@@@@@@@@@@@@@@@@@@@@@@@@@@@@@@@@@@@@@@@@@@@@....  ",
"  ++++++++++++++++++++++++++++++++++++++++++++++++++++++++++..  ",
"  ++++++++++++++++++++++++++++++++++++++++++++++++++++++++++..  ",
"  ++++++++++++++++++++++++++++++++++++++++++++++++++++++++++++  ",
"  ++++++++++++++++++++++++++++++++++++++++++++++++++++++++++++  ",
"                                                                ",
"                                                                "};
