/* XPM */
static char * 4_xpm[] = {
"64 64 8 1",
" 	c #001C40",
".	c #FFD156",
"+	c #D85D09",
"@	c #FFA61F",
"#	c #F3F3F3",
"$	c #F5F5F5",
"%	c #FBFBFB",
"&	c #FEFEFE",
"                                                                ",
"                                                                ",
"  ............................................................  ",
"  ............................................................  ",
"  ++..........................................................  ",
"  ++..........................................................  ",
"  ++++@@@@@@@@@@@@@@@@@@@@@@@@@@@@@@@@@@@@@@@@@@@@@@@@@@@@....  ",
"  ++++@@@@@@@@@@@@@@@@@@@@@@@@@@@@@@@@@@@@@@@@@@@@@@@@@@@@....  ",
"  ++++@@@@@@@@@@@@@@@@@@@@@@@@@@@@@@@@@@@@@@@@@@@@@@@@@@@@....  ",
"  ++++@@@@@####$$%$$%&&&@@@@@@@@@@@@&&&&&&&&&&&@@@@@@@@@@@....  ",
"  ++++@@@@@$$$$%$$%%%&&&@@@@@@@@@@@@&&&&&&&&&&&&@@@@@@@@@@....  ",
"  ++++@@@@@&&&&&&&%%%&&&@@@@@@@@@@@@&&&&&&&&&&&&@@@@@@@@@@....  ",
"  ++++@@@@@&&&&&&&%%&%&&@@@@@@@@@@@@&&&&&&&&&&&&@@@@@@@@@@....  ",
"  ++++@@@@@&&&&&&&&&&&&&@@@@@@@@@@@@&&&&&&&&&&&&@@@@@@@@@@....  ",
"  ++++@@@@@&&&&&&&&&&&&&@@@@@@@@@@@@&&&&&&&&&&&&@@@@@@@@@@....  ",
"  ++++@@@@@&&&&&&&&&&&&&@@@@@@@@@@@@&&&&&&&&&&&&@@@@@@@@@@....  ",
"  ++++@@@@@&&&&&&&&&&&&&@@@@@@@@@@@@&&&&&&&&&%%%@@@@@@@@@@....  ",
"  ++++@@@@@&&&&&&&&&&&&&@@@@@@@@@@@@&&&&&&&&%$%%@@@@@@@@@@....  ",
"  ++++@@@@@&&&&&&&&&&&&&@@@@@@@@@@@@&&&&&&&&&%%%@@@@@@@@@@....  ",
"  ++++@@@@@&&&&&&&&&&&&&@@@@@@@@@@@@&&&&&&&&&&&&@@@@@@@@@@....  ",
"  ++++@@@@@&&&&&&&&&&&&&@@@@@@@@@@@@&&&&&&&&&&&&@@@@@@@@@@....  ",
"  ++++@@@@@&&&&&&&&&&&&&@@@@@@@@@@@@&&&&&&&&&&&&@@@@@@@@@@....  ",
"  ++++@@@@@&&&&&&&&&&&&&@@@@@@@@@@@@&&&&&&&&&&&&@@@@@@@@@@....  ",
"  ++++@@@@@&&&&&&&&&&&&&@@@@@@@@@@@@&&&&&&&&&&&&@@@@@@@@@@....  ",
"  ++++@@@@@%%&&&&&&&&&&&@@@@@@@@@@@@&&&&&&&&&&&&@@@@@@@@@@....  ",
"  ++++@@@@@%$%%&&&&&&&&&@@@@@@@@@@@@&&&&&&&&&&&&@@@@@@@@@@....  ",
"  ++++@@@@@&&&&&%%&&&&&&@@@@@@@@@@@@&&&&&&&&&&&&@@@@@@@@@@....  ",
"  ++++@@@@@&&&&&&%&&&&&&@@@@@@@@@@@@&&&&&&&&&&&&@@@@@@@@@@....  ",
"  ++++@@@@@&&&&&&&&&&&&&@@@@@@@@@@@@&&&&&&&&&&&&@@@@@@@@@@....  ",
"  ++++@@@@@&&&&&&&&&&&&&@@@@@@@@@@@@&&&&&&&&&&&&@@@@@@@@@@....  ",
"  ++++@@@@@&&&&&&&&&&&&&@@@@@@@@@@@@&&&&&&&&&&&&@@@@@@@@@@....  ",
"  ++++@@@@@&&&&&&&&&&&&&@@@@@@@@@@@@&&&&&&&&&&&&@@@@@@@@@@....  ",
"  ++++@@@@@&&&&&&&&&&&&&@@@@@@@@@@@@&&&&&&&&&&&&@@@@@@@@@@....  ",
"  ++++@@@@@&&&&&&&&&&&&&@@@@@@@@@@@@&&&&&&&&&&&&@@@@@@@@@@....  ",
"  ++++@@@@@&&&&&&&&&&&&&@@@@@@@@@@@@&&&&&&&&&&&&@@@@@@@@@@....  ",
"  ++++@@@@@&&&&&&&&&&&&&@@@@@@@@@@@@&&&&&&&&&&&&@@@@@@@@@@....  ",
"  ++++@@@@@&&&&&&%&&&&&&&&&&&&&&&&&&&&&&&&&&&&&&&&&&&&&@@@....  ",
"  ++++@@@@@&&&&&&&&&&&&&&&&&&&&&&&&&&&&&&&&&&&&&&&&&&&@@@@....  ",
"  ++++@@@@@&&&&&&&&&&&&&&&&&&&&&&&&&&&&&&&&&&&&&&&&&&@@@@@....  ",
"  ++++@@@@@&&&&&&&&&&&&&&&&&&&&&&&&&&&&&&&&&&&&&&&&&&@@@@@....  ",
"  ++++@@@@@&&&&&&&&&&&&&&&&&&&&&&&&&&&&&&&&&&&&&&&&&@@@@@@....  ",
"  ++++@@@@@@@@@@@@@@@@@@@@@@@@@@@@@@&&&&&&&&&&&&@@@@@@@@@@....  ",
"  ++++@@@@@@@@@@@@@@@@@@@@@@@@@@@@@@&&&&&&&&&&&&@@@@@@@@@@....  ",
"  ++++@@@@@@@@@@@@@@@@@@@@@@@@@@@@@@&&&&&&&&&&&&@@@@@@@@@@....  ",
"  ++++@@@@@@@@@@@@@@@@@@@@@@@@@@@@@@&&&&&&&&&&&&@@@@@@@@@@....  ",
"  ++++@@@@@@@@@@@@@@@@@@@@@@@@@@@@@@&&&&&&&&&&&&@@@@@@@@@@....  ",
"  ++++@@@@@@@@@@@@@@@@@@@@@@@@@@@@@@&&&&&&&&&&&&@@@@@@@@@@....  ",
"  ++++@@@@@@@@@@@@@@@@@@@@@@@@@@@@@@&&&&&&&&&&&&@@@@@@@@@@....  ",
"  ++++@@@@@@@@@@@@@@@@@@@@@@@@@@@@@@&&&&&&&&&&&&@@@@@@@@@@....  ",
"  ++++@@@@@@@@@@@@@@@@@@@@@@@@@@@@@@&&&&&&&&&&&&@@@@@@@@@@....  ",
"  ++++@@@@@@@@@@@@@@@@@@@@@@@@@@@@@@&&&&&&&&&&&&@@@@@@@@@@....  ",
"  ++++@@@@@@@@@@@@@@@@@@@@@@@@@@@@@@&&&&&&&&&&&&@@@@@@@@@@....  ",
"  ++++@@@@@@@@@@@@@@@@@@@@@@@@@@@@@@@&&&&&&&&&&&@@@@@@@@@@....  ",
"  ++++@@@@@@@@@@@@@@@@@@@@@@@@@@@@@@@@@@&&&&&&&&@@@@@@@@@@....  ",
"  ++++@@@@@@@@@@@@@@@@@@@@@@@@@@@@@@@@@@&&&&&&&&@@@@@@@@@@....  ",
"  ++++@@@@@@@@@@@@@@@@@@@@@@@@@@@@@@@@@@@&&&&&&&@@@@@@@@@@....  ",
"  ++++@@@@@@@@@@@@@@@@@@@@@@@@@@@@@@@@@@@&&&&&&&@@@@@@@@@@....  ",
"  ++++@@@@@@@@@@@@@@@@@@@@@@@@@@@@@@@@@@@@@@@@@@@@@@@@@@@@....  ",
"  ++++++++++++++++++++++++++++++++++++++++++++++++++++++++++..  ",
"  ++++++++++++++++++++++++++++++++++++++++++++++++++++++++++..  ",
"  ++++++++++++++++++++++++++++++++++++++++++++++++++++++++++++  ",
"  ++++++++++++++++++++++++++++++++++++++++++++++++++++++++++++  ",
"                                                                ",
"                                                                "};
