/* XPM */
static char * 5_xpm[] = {
"64 64 7 1",
" 	c #001C40",
".	c #FFD156",
"+	c #D85D09",
"@	c #FFA61F",
"#	c #FFFFFF",
"$	c #FBFBFB",
"%	c #F7F7F7",
"                                                                ",
"                                                                ",
"  ............................................................  ",
"  ............................................................  ",
"  ++..........................................................  ",
"  ++..........................................................  ",
"  ++++@@@@@@@@@@@@@@@@@@@@@@@@@@@@@@@@@@@@@@@@@@@@@@@@@@@@....  ",
"  ++++@@@@@@@@@@@@@@@@@@@@@@@@@@@@@@@@@@@@@@@@@@@@@@@@@@@@....  ",
"  ++++@@@@@@@@@@@@@@@@@@@@@@@@@@@@@@@@@@@@@@@@@@@@@@@@@@@@....  ",
"  ++++@################################################@@@....  ",
"  ++++@################################################@@@....  ",
"  ++++@################################################@@@....  ",
"  ++++@###########$$###################################@@@....  ",
"  ++++@###$$##$$#$$#############$$#$###################@@@....  ",
"  ++++@$$%$$#$$%%$#$###########$#$$$%$$$###############@@@....  ",
"  ++++@$$$%$$$$%%$$$############$$$$$$$#######$$#######@@@....  ",
"  ++++@%%%%%%$%%%%$$$#@@@@@@@@@@@@@@@@@@@@$$$#%$#######@@@....  ",
"  ++++@%%%%%$$$$%%$$##@@@@@@@@@@@@@@@@@@@@#$#$$%#######@@@....  ",
"  ++++@%%#############@@@@@@@@@@@@@@@@@@@@#############@@@....  ",
"  ++++@%$$############@@@@@@@@@@@@@@@@@@@@#############@@@....  ",
"  ++++@###############@@@@@@@@@@@@@@@@@@@@#############@@@....  ",
"  ++++@###############@@@@@@@@@@@@@@@@@@@@#############@@@....  ",
"  ++++@###############@@@@@@@@@@@@@@@@@@@@#########@@@@@@@....  ",
"  ++++@###############@@@@@@@@@@@@@@@@@@@@########@@@@@@@@....  ",
"  ++++@###############@@@@@@@@@@@@@@@@@@@@@@@@@@@@@@@@@@@@....  ",
"  ++++@###############@@@@@@@@@@@@@@@@@@@@@@@@@@@@@@@@@@@@....  ",
"  ++++@###############@@@@@@@@@@@@@@@@@@@@@@@@@@@@@@@@@@@@....  ",
"  ++++@###############@@@@@@@@@@@@@@@@@@@@@@@@@@@@@@@@@@@@....  ",
"  ++++@###############@@@@@@@@@@@@@@@@@@@@@@@@@@@@@@@@@@@@....  ",
"  ++++@#####################################@@@@@@@@@@@@@@....  ",
"  ++++@#####################################@@@@@@@@@@@@@@....  ",
"  ++++@#########################################@@@@@@@@@@....  ",
"  ++++@#########################################@@@@@@@@@@....  ",
"  ++++@##############################################@@@@@....  ",
"  ++++@##############################################@@@@@....  ",
"  ++++@@@@@@@@@@@@@@@@@@@@@@@@@@@@@@@################@@@@@....  ",
"  ++++@@@@@@@@@@@@@@@@@@@@@@@@@@@@@@@################@@@@@....  ",
"  ++++@@@@@@@@@@@@@@@@@@@@@@@@@@@@@@@@@###############@@@@....  ",
"  ++++@@@@@@@@@@@@@@@@@@@@@@@@@@@@@@@@@@###############@@@....  ",
"  ++++@@@@@@@@@@@@@@@@@@@@@@@@@@@@@@@@@@###############@@@....  ",
"  ++++@@@@@@@@@@####@@@@@@@@@@@@@@@@@@@@@@#############@@@....  ",
"  ++++@@@@@@@@@@####@@@@@@@@@@@@@@@@@@@@@@#############@@@....  ",
"  ++++@@@#############@@@@@@@@@@@@@@@@@@@@#############@@@....  ",
"  ++++@@@#############@@@@@@@@@@@@@@@@@@@@#############@@@....  ",
"  ++++@###############@@@@@@@@@@@@@@@@@@@@#############@@@....  ",
"  ++++@###############@@@@@@@@@@@@@@@@@@@@#############@@@....  ",
"  ++++@@@#############@@@@@@@@@@@@@@@@@@###############@@@....  ",
"  ++++@@@#############@@@@@@@@@@@@@@@@@@###############@@@....  ",
"  ++++@@@#################@@@@@@@@@##################@@@@@....  ",
"  ++++@@@##################@@@@@@@@##################@@@@@....  ",
"  ++++@@@@@########################$#$###############@@@@@....  ",
"  ++++@@@@@########################$$$$$##$##########@@@@@....  ",
"  ++++@@@@@@#####################$#$#$$#############@@@@@@....  ",
"  ++++@@@@@@@@##################################@@@@@@@@@@....  ",
"  ++++@@@@@@@@##################################@@@@@@@@@@....  ",
"  ++++@@@@@@@@@@@@@@@@####################@@@@@@@@@@@@@@@@....  ",
"  ++++@@@@@@@@@@@@@@@@####################@@@@@@@@@@@@@@@@....  ",
"  ++++@@@@@@@@@@@@@@@@@@@@@@@@@@@@@@@@@@@@@@@@@@@@@@@@@@@@....  ",
"  ++++++++++++++++++++++++++++++++++++++++++++++++++++++++++..  ",
"  ++++++++++++++++++++++++++++++++++++++++++++++++++++++++++..  ",
"  ++++++++++++++++++++++++++++++++++++++++++++++++++++++++++++  ",
"  ++++++++++++++++++++++++++++++++++++++++++++++++++++++++++++  ",
"                                                                ",
"                                                                "};
