/* XPM */
static char * 6_xpm[] = {
"64 64 7 1",
" 	c #001C40",
".	c #FFD156",
"+	c #D85D09",
"@	c #FFA61F",
"#	c #FFFFFF",
"$	c #FBFBFB",
"%	c #F8F8F8",
"                                                                ",
"                                                                ",
"  ............................................................  ",
"  ............................................................  ",
"  ++..........................................................  ",
"  ++..........................................................  ",
"  ++++@@@@@@@@@@@@@@@@@@@@@@@@@@@@@@@@@@@@@@@@@@@@@@@@@@@@....  ",
"  ++++@@@@@@@@@@@@@@@@@@@@@@@@@@@@@@@@@@@@@@@@@@@@@@@@@@@@....  ",
"  ++++@@@@@@@@@@@@@@@@@@@@@@@@@@@@@@@@@@@@@@@@@@@@@@@@@@@@....  ",
"  ++++@@@@@@@@@@######$#$$$$##################@@@@@@@@@@@@....  ",
"  ++++@@@@@@@@@@########$$$$##################@@@@@@@@@@@@....  ",
"  ++++@@@@@@@@@############$##################@@@@@@@@@@@@....  ",
"  ++++@@@@@@#######################################@@@@@@@....  ",
"  ++++@@@@##########################################@@@@@@....  ",
"  ++++@@@###########################################@@@@@@....  ",
"  ++++@@@############################################@@@@@....  ",
"  ++++@@@###############@@@@@@@@@@@@@@@@###############@@@....  ",
"  ++++@@@###############@@@@@@@@@@@@@@@@###############@@@....  ",
"  ++++@###############@@@@@@@@@@@@@@@@@@@@#############@@@....  ",
"  ++++@###############@@@@@@@@@@@@@@@@@@@@#############@@@....  ",
"  ++++@###############@@@@@@@@@@@@@@@@@@@@#############@@@....  ",
"  ++++@###############@@@@@@@@@@@@@@@@@@@@#############@@@....  ",
"  ++++@###############@@@@@@@@@@@@@@@@@@@@#########@@@@@@@....  ",
"  ++++@###############@@@@@@@@@@@@@@@@@@@@#########@@@@@@@....  ",
"  ++++@###############@@@@@@@@@@@@@@@@@@@@@@@@@@@@@@@@@@@@....  ",
"  ++++@###############@@@@@@@@@@@@@@@@@@@@@@@@@@@@@@@@@@@@....  ",
"  ++++@###############@@@@@@@@@@@@@@@@@@@@@@@@@@@@@@@@@@@@....  ",
"  ++++@###############@@@@@@@@@@@@@@@@@@@@@@@@@@@@@@@@@@@@....  ",
"  ++++@################@@@@@@@@@@@@@@@@@@@@@@@@@@@@@@@@@@@....  ",
"  ++++@###################################@@@@@@@@@@@@@@@@....  ",
"  ++++@###################################@@@@@@@@@@@@@@@@....  ",
"  ++++@#########################################@@@@@@@@@@....  ",
"  ++++@##########################################@@@@@@@@@....  ",
"  ++++@#############################################@@@@@@....  ",
"  ++++@#############################################@@@@@@....  ",
"  ++++@#################@@@@@@@@@@@@@###############@@@@@@....  ",
"  ++++@#################@@@@@@@@@@@@@###############@@@@@@....  ",
"  ++++@###############@@@@@@@@@@@@@@@@@###############@@@@....  ",
"  ++++@###############@@@@@@@@@@@@@@@@@@###############@@@....  ",
"  ++++@###############@@@@@@@@@@@@@@@@@@###############@@@....  ",
"  ++++@###############@@@@@@@@@@@@@@@@@@@@#############@@@....  ",
"  ++++@###############@@@@@@@@@@@@@@@@@@@@#######$$####@@@....  ",
"  ++++@###############@@@@@@@@@@@@@@@@@@@@######$%%%$##@@@....  ",
"  ++++@###############@@@@@@@@@@@@@@@@@@@@######$%%$###@@@....  ",
"  ++++@###############@@@@@@@@@@@@@@@@@@@@########$####@@@....  ",
"  ++++@###############@@@@@@@@@@@@@@@@@@@@#############@@@....  ",
"  ++++@@@#############@@@@@@@@@@@@@@@@@@###############@@@....  ",
"  ++++@@@#############@@@@@@@@@@@@@@@@@@###############@@@....  ",
"  ++++@@@#################@@@@@@@@@##################@@@@@....  ",
"  ++++@@@##################@@@@@@@@#################@@@@@@....  ",
"  ++++@@@@#################@@@@@@@@#################@@@@@@....  ",
"  ++++@@@@@@########################################@@@@@@....  ",
"  ++++@@@@@@@####################################@@@@@@@@@....  ",
"  ++++@@@@@@@###################################@@@@@@@@@@....  ",
"  ++++@@@@@@@@################$#################@@@@@@@@@@....  ",
"  ++++@@@@@@@@@@@@@@@@#######$$%$#########@@@@@@@@@@@@@@@@....  ",
"  ++++@@@@@@@@@@@@@@@@#######$$%$$########@@@@@@@@@@@@@@@@....  ",
"  ++++@@@@@@@@@@@@@@@@@@@@@@@@@@@@@@@@@@@@@@@@@@@@@@@@@@@@....  ",
"  ++++++++++++++++++++++++++++++++++++++++++++++++++++++++++..  ",
"  ++++++++++++++++++++++++++++++++++++++++++++++++++++++++++..  ",
"  ++++++++++++++++++++++++++++++++++++++++++++++++++++++++++++  ",
"  ++++++++++++++++++++++++++++++++++++++++++++++++++++++++++++  ",
"                                                                ",
"                                                                "};
