/* XPM */
static char * 7_xpm[] = {
"64 64 6 1",
" 	c #001C40",
".	c #FFD156",
"+	c #D85D09",
"@	c #FFA61F",
"#	c #FFFFFF",
"$	c #FAFAFA",
"                                                                ",
"                                                                ",
"  ............................................................  ",
"  ............................................................  ",
"  ++..........................................................  ",
"  ++..........................................................  ",
"  ++++@@@@@@@@@@@@@@@@@@@@@@@@@@@@@@@@@@@@@@@@@@@@@@@@@@@@....  ",
"  ++++@@@@@@@@@@@@@@@@@@@@@@@@@@@@@@@@@@@@@@@@@@@@@@@@@@@@....  ",
"  ++++@@@@@@@@@@@@@@@@@@@@@@@@@@@@@@@@@@@@@@@@@@@@@@@@@@@@....  ",
"  ++++@@@@###############################################@....  ",
"  ++++@@@################################################@....  ",
"  ++++@@@##########################################$##$##@....  ",
"  ++++@@@##########################################$$#$@@@....  ",
"  ++++@@@##########################################$#@@@@@....  ",
"  ++++@@@#####$#####################################@@@@@@....  ",
"  ++++@@@@####$#####################################@@@@@@....  ",
"  ++++@@@@@@@@@@@@@@@@@@@@@@@@@@@@@#################@@@@@@....  ",
"  ++++@@@@@@@@@@@@@@@@@@@@@@@@@@@@@###############$$@@@@@@....  ",
"  ++++@@@@@@@@@@@@@@@@@@@@@@@@@@@##################@@@@@@@....  ",
"  ++++@@@@@@@@@@@@@@@@@@@@@@@@@@@#################@@@@@@@@....  ",
"  ++++@@@@@@@@@@@@@@@@@@@@@@@@@$$$$$#############@@@@@@@@@....  ",
"  ++++@@@@@@@@@@@@@@@@@@@@@@@@@$$$$$$$##########@@@@@@@@@@....  ",
"  ++++@@@@@@@@@@@@@@@@@@@@@@@@@################@@@@@@@@@@@....  ",
"  ++++@@@@@@@@@@@@@@@@@@@@@@@@@###############@@@@@@@@@@@@....  ",
"  ++++@@@@@@@@@@@@@@@@@@@@@@@#######$#########@@@@@@@@@@@@....  ",
"  ++++@@@@@@@@@@@@@@@@@@@@@@@#####$#$#########@@@@@@@@@@@@....  ",
"  ++++@@@@@@@@@@@@@@@@@@@@@@#######$#######$##@@@@@@@@@@@@....  ",
"  ++++@@@@@@@@@@@@@@@@@@@@@###############$$@@@@@@@@@@@@@@....  ",
"  ++++@@@@@@@@@@@@@@@@@@@@################$$@@@@@@@@@@@@@@....  ",
"  ++++@@@@@@@@@@@@@@@@@@##################@@@@@@@@@@@@@@@@....  ",
"  ++++@@@@@@@@@@@@@@@@@@##################@@@@@@@@@@@@@@@@....  ",
"  ++++@@@@@@@@@@@@@@@@@@################@@@@@@@@@@@@@@@@@@....  ",
"  ++++@@@@@@@@@@@@@@@@@@################@@@@@@@@@@@@@@@@@@....  ",
"  ++++@@@@@@@@@@@@@@@@##################@@@@@@@@@@@@@@@@@@....  ",
"  ++++@@@@@@@@@@@@@@@@##################@@@@@@@@@@@@@@@@@@....  ",
"  ++++@@@@@@@@@@@@@@##################@@@@@@@@@@@@@@@@@@@@....  ",
"  ++++@@@@@@@@@@@@@@#################@@@@@@@@@@@@@@@@@@@@@....  ",
"  ++++@@@@@@@@@@@@@@################@@@@@@@@@@@@@@@@@@@@@@....  ",
"  ++++@@@@@@@@@@@@@@###############@@@@@@@@@@@@@@@@@@@@@@@....  ",
"  ++++@@@@@@@@@@@@@@###############@@@@@@@@@@@@@@@@@@@@@@@....  ",
"  ++++@@@@@@@@@@@@#################@@@@@@@@@@@@@@@@@@@@@@@....  ",
"  ++++@@@@@@@@@@@##################@@@@@@@@@@@@@@@@@@@@@@@....  ",
"  ++++@@@@@@@@@@#######$#########@@@@@@@@@@@@@@@@@@@@@@@@@....  ",
"  ++++@@@@@@@@@##################@@@@@@@@@@@@@@@@@@@@@@@@@....  ",
"  ++++@@@@@@@@#################@@@@@@@@@@@@@@@@@@@@@@@@@@@....  ",
"  ++++@@@@@@@##################@@@@@@@@@@@@@@@@@@@@@@@@@@@....  ",
"  ++++@@@@@@@################@@@@@@@@@@@@@@@@@@@@@@@@@@@@@....  ",
"  ++++@@@@@@@################@@@@@@@@@@@@@@@@@@@@@@@@@@@@@....  ",
"  ++++@@@@@@#################@@@@@@@@@@@@@@@@@@@@@@@@@@@@@....  ",
"  ++++@@@@@@#################@@@@@@@@@@@@@@@@@@@@@@@@@@@@@....  ",
"  ++++@@@@@##################@@@@@@@@@@@@@@@@@@@@@@@@@@@@@....  ",
"  ++++@@@##################@@@@@@@@@@@@@@@@@@@@@@@@@@@@@@@....  ",
"  ++++@##################@@@@@@@@@@@@@@@@@@@@@@@@@@@@@@@@@....  ",
"  ++++@#################@@@@@@@@@@@@@@@@@@@@@@@@@@@@@@@@@@....  ",
"  ++++@#################@@@@@@@@@@@@@@@@@@@@@@@@@@@@@@@@@@....  ",
"  ++++@###############@@@@@@@@@@@@@@@@@@@@@@@@@@@@@@@@@@@@....  ",
"  ++++@###############@@@@@@@@@@@@@@@@@@@@@@@@@@@@@@@@@@@@....  ",
"  ++++@@@@@@@@@@@@@@@@@@@@@@@@@@@@@@@@@@@@@@@@@@@@@@@@@@@@....  ",
"  ++++++++++++++++++++++++++++++++++++++++++++++++++++++++++..  ",
"  ++++++++++++++++++++++++++++++++++++++++++++++++++++++++++..  ",
"  ++++++++++++++++++++++++++++++++++++++++++++++++++++++++++++  ",
"  ++++++++++++++++++++++++++++++++++++++++++++++++++++++++++++  ",
"                                                                ",
"                                                                "};
