/* XPM */
static char * 8_xpm[] = {
"64 64 11 1",
" 	c #001C40",
".	c #FFD156",
"+	c #D85D09",
"@	c #FFA61F",
"#	c #EBEBEB",
"$	c #EDEDED",
"%	c #F1F1F1",
"&	c #F7F7F7",
"*	c #FAFAFA",
"=	c #FDFDFD",
"-	c #E8E8E8",
"                                                                ",
"                                                                ",
"  ............................................................  ",
"  ............................................................  ",
"  ++..........................................................  ",
"  ++..........................................................  ",
"  ++++@@@@@@@@@@@@@@@@@@@@@@@@@@@@@@@@@@@@@@@@@@@@@@@@@@@@....  ",
"  ++++@@@@@@@@@@@@@@@@@@@@@@@@@@@@@@@@@@@@@@@@@@@@@@@@@@@@....  ",
"  ++++@@@@@@@@@@@@@@@@@@@@@@@@@@@@@@@@@@@@@@@@@@@@@@@@@@@@....  ",
"  ++++@@@@@@@@@@@@#$$$%%%%%%$%$$$$$%$%%%$#%%%&%%@@@@@@@@@@....  ",
"  ++++@@@@@@@@@@@@##$$$%%%$$%$$$#$$$$%%%$$%%&%%%@@@@@@@@@@....  ",
"  ++++@@@@@@@@@@@@%$%%%%%%%%%%$$$%$%%$%$%%$%%&%%%@@@@@@@@@....  ",
"  ++++@@@@@@@&*&&%&%%%%%%%%%%%$$%$%%%%%%$$%%$%$%$$$@@@@@@@....  ",
"  ++++@@@@@@===**************%*&%%%&%&%%%%%&%%%%%&%&@@@@@@....  ",
"  ++++@@@@@@===================*=**&&&&&&&****&&%%&&@@@@@@....  ",
"  ++++@@@@@**===================*&*&*&&*&&%*&*&%&%&&%@@@@@....  ",
"  ++++@@@**&***=========@@@@@@@@@@@@@@@@&%&&%%&&%&%%&%%@@@....  ",
"  ++++@@@**=**==========@@@@@@@@@@@@@@@@&*&%&%&%&&%&%%%@@@....  ",
"  ++++@@@=============@@@@@@@@@@@@@@@@@@@@======*****&&@@@....  ",
"  ++++@@@=============@@@@@@@@@@@@@@@@@@@@=*======**&&&@@@....  ",
"  ++++@@@=============@@@@@@@@@@@@@@@@@@@@****===******%&@....  ",
"  ++++@@@=============@@@@@@@@@@@@@@@@@@@@*&**===******&%@....  ",
"  ++++@@@=============@@@@@@@@@@@@@@@@@@@@************=**@....  ",
"  ++++@@@=============@@@@@@@@@@@@@@@@@@@@*=***&***==****@....  ",
"  ++++@@@=============@@@@@@@@@@@@@@@@@@@@======***==*=@@@....  ",
"  ++++@@@=============@@@@@@@@@@@@@@@@@@@@=============@@@....  ",
"  ++++@@@*====*==*====@@@@@@@@@@@@@@@@@@@@&=*==========@@@....  ",
"  ++++@@@**&**&***&&&**=@@@@@@@@@@@@@@@@%&&&***=**=====@@@....  ",
"  ++++@@@&&**&**&******=@@@@@@@@@@@@@@@@&%***=*========@@@....  ",
"  ++++@@@@@@===*&*&&&&&&%%%&&%%&&&&%%%%%%&&&*=======@@@@@@....  ",
"  ++++@@@@@@==****&&&&%%&&&&&&%%&&*%%%%$%%%*========@@@@@@....  ",
"  ++++@@@@@@@****&*****&&&&&%&&*&&&%$%$$%%%&*=======@@@@@@....  ",
"  ++++@@@@@@@************&*&&%&&&&%%%%$$%%&&*=======@@@@@@....  ",
"  ++++@@@@@@*====***&*====*****&&&&&&&%&%%&%&&&=**==@@@@@@....  ",
"  ++++@@@@@@======***&=====****&*&&&&**%%%%%&%&***==@@@@@@....  ",
"  ++++@@@##$%&&***&****=***@@@@@@@@@@&&%%%%%%%%%%%%%%%%@@@....  ",
"  ++++@@@##$%$*&&&&&*&**&**@@@@@@@@@@%%&%%%%$%$%%%$$$%$@@@....  ",
"  ++++@@@%&%&**===****@@@@@@@@@@@@@@@@@@@@%%%%%%%%%%%&&@@@....  ",
"  ++++@@@**&*=======*=@@@@@@@@@@@@@@@@@@@@%%&&%&&%&%%**@@@....  ",
"  ++++@@@&***=========@@@@@@@@@@@@@@@@@@@@%&%&&&%%%%%*&@@@....  ",
"  ++++@@@=============@@@@@@@@@@@@@@@@@@@@***&%%&&&&&&*@@@....  ",
"  ++++@@@==*======**==@@@@@@@@@@@@@@@@@@@@*&&&%%&%%%%&%@@@....  ",
"  ++++@@@&&**&********@@@@@@@@@@@@@@@@@@@@%%%$%$%%#$#####@....  ",
"  ++++@@@=*&****&**&**@@@@@@@@@@@@@@@@@@@@$%%$$$$######$$@....  ",
"  ++++@@@=========****@@@@@@@@@@@@@@@@@@@@#############@@@....  ",
"  ++++@@@======*==***&@@@@@@@@@@@@@@@@@@@@###########-#@@@....  ",
"  ++++@@@=====*===*****=@@@@@@@@@@@@@@@@@@$#$$$$$##-###@@@....  ",
"  ++++@@@=====*===*****=@@@@@@@@@@@@@@@@@@$$###$%$$#$$$@@@....  ",
"  ++++@@@==*==*===========@@@@@@@@@@@@***&%&&&&&&%&%%%%@@@....  ",
"  ++++@@@******=======*====@@@@@@@@@@******=******%&&&%@@@....  ",
"  ++++@@@@==*==============@@@@@@@@@@*********&%&&*%%&@@@@....  ",
"  ++++@@@@@@===============*&%&%%%%&&&**&*&&&&&&&&*&@@@@@@....  ",
"  ++++@@@@@@@@@========**=***&&&&&***&**&&%%&&%&%%%@@@@@@@....  ",
"  ++++@@@@@@@@@@=====*****=*======*****&%%%%%%$$$%%@@@@@@@....  ",
"  ++++@@@@@@@@@@=====*****======*==***&%%$%%%%#$%%@@@@@@@@....  ",
"  ++++@@@@@@@@@@@@@@@@*****====*=====*%%$%@@@@@@@@@@@@@@@@....  ",
"  ++++@@@@@@@@@@@@@@@@****=====*=====*%%%$@@@@@@@@@@@@@@@@....  ",
"  ++++@@@@@@@@@@@@@@@@@@@@@@@@@@@@@@@@@@@@@@@@@@@@@@@@@@@@....  ",
"  ++++++++++++++++++++++++++++++++++++++++++++++++++++++++++..  ",
"  ++++++++++++++++++++++++++++++++++++++++++++++++++++++++++..  ",
"  ++++++++++++++++++++++++++++++++++++++++++++++++++++++++++++  ",
"  ++++++++++++++++++++++++++++++++++++++++++++++++++++++++++++  ",
"                                                                ",
"                                                                "};
