/* XPM */
static char * 9_xpm[] = {
"64 64 12 1",
" 	c #001C40",
".	c #FFD156",
"+	c #D85D09",
"@	c #FFA61F",
"#	c #EDEDED",
"$	c #F1F1F1",
"%	c #EAEAEA",
"&	c #E6E6E6",
"*	c #F5F5F5",
"=	c #E3E3E3",
"-	c #F8F8F8",
";	c #FAFAFA",
"                                                                ",
"                                                                ",
"  ............................................................  ",
"  ............................................................  ",
"  ++..........................................................  ",
"  ++..........................................................  ",
"  ++++@@@@@@@@@@@@@@@@@@@@@@@@@@@@@@@@@@@@@@@@@@@@@@@@@@@@....  ",
"  ++++@@@@@@@@@@@@@@@@@@@@@@@@@@@@@@@@@@@@@@@@@@@@@@@@@@@@....  ",
"  ++++@@@@@@@@@@@@@@@@@@@@@@@@@@@@@@@@@@@@@@@@@@@@@@@@@@@@....  ",
"  ++++@@@@@@@@@@@@####$$$$##############$$#$##@@@@@@@@@@@@....  ",
"  ++++@@@@@@@@@@@@####$$$$$####%########$$####@@@@@@@@@@@@....  ",
"  ++++@@@@@@@@@@@@#%###$####%###%#########$###@@@@@@@@@@@@....  ",
"  ++++@@@@@@@#%%%%%%###########%%%#################@@@@@@@....  ",
"  ++++@@@@@@$###########################$######%####@@@@@@....  ",
"  ++++@@@@@@$$$$$$$########%#########$####$###%#####@@@@@@....  ",
"  ++++@@@@@###%####%#%######################%%%%%%%#%@@@@@....  ",
"  ++++@@@%%%%%%%%%%%%%%%@@@@@@@@@@@@@@@@###%&&&&&%%%%%%@@@....  ",
"  ++++@@@%%%%%&&%%%%%%%%@@@@@@@@@@@@@@@@##%%&&&&&&%%%%%@@@....  ",
"  ++++@@@$$##%%%%&%%&%@@@@@@@@@@@@@@@@@@@@&%&&&&&&&%&%%@@@....  ",
"  ++++@@@$$##%%%&%%&%%@@@@@@@@@@@@@@@@@@@@%%&&&&&&%%&%%@@@....  ",
"  ++++@@@#########%%%%@@@@@@@@@@@@@@@@@@@@%&%&%%#%%%%%&%%@....  ",
"  ++++@@@#########%%%%@@@@@@@@@@@@@@@@@@@@%%%%%####%%%%%%@....  ",
"  ++++@@@#########%%%%@@@@@@@@@@@@@@@@@@@@%%%%##%%%%%%%%%@....  ",
"  ++++@@@$########%%%#@@@@@@@@@@@@@@@@@@@@##%%%#%%%%%#%%%@....  ",
"  ++++@@@**$$#########@@@@@@@@@@@@@@@@@@@@##%%%#%%%%%%%%%@....  ",
"  ++++@@@*$*$$########@@@@@@@@@@@@@@@@@@@@%%%%%%%%%%%%%%&@....  ",
"  ++++@@@**$$#########@@@@@@@@@@@@@@@@@@@@%%%%%%%%%%%%%%%@....  ",
"  ++++@@@*$$$$#####%%%%%@@@@@@@@@@@@@@@@%%%%%%%%%#%%%%%#%@....  ",
"  ++++@@@**$$$####%%%%%%@@@@@@@@@@@@@@@@%%%%%%%%%%%%%%%%#@....  ",
"  ++++@@@@@@$#######%%%%&%&&&&&&%&%%&%%%%%%%%%#%%%%####%#@....  ",
"  ++++@@@@@@$$###$##%%%%%&%&%&&&%%&%%%&%%%%%##%%%%#%%%%%%@....  ",
"  ++++@@@@@@@$$$$$$$$########%%%####%%%%#%#%#%%%%&%%&&&&%@....  ",
"  ++++@@@@@@@#$$$$$$$$$###$##%#####%#%%#%%%%%%%#&%&&%&&&&@....  ",
"  ++++@@@@@@@@@@@@***$$$$##$######%%###%%%%%%%%%&&&&%&&&&@....  ",
"  ++++@@@@@@@@@@@@**$***$#$#$$##%%%%%#%%%%%&%&%%&&&&&&&&=@....  ",
"  ++++@@@@@@@@@@@@@@@@@@@@@@@@@@@@@@@@@@@%&&&&%%%&%&&&&&%@....  ",
"  ++++@@@@@@@@@@@@@@@@@@@@@@@@@@@@@@@@@@@@%%%%&&%%%%&&%&&@....  ",
"  ++++@@@@@@@@@@@@@@@@@@@@@@@@@@@@@@@@@@@@%&%&%&%&%&&&&&&@....  ",
"  ++++@@@@@@@@@@@@@@@@@@@@@@@@@@@@@@@@@@@@%&&%&%&&&&&=&&&@....  ",
"  ++++@@@@@@@@@@@@@@@@@@@@@@@@@@@@@@@@@@@@%%%&%&&&%&&&&&=@....  ",
"  ++++@@@@@@@@@@@@$$$$@@@@@@@@@@@@@@@@@@@@##%%%%%&%&&&&&=@....  ",
"  ++++@@@@@@@@@@@#$$$#@@@@@@@@@@@@@@@@@@@@%%%%%&&&&&&&&&=@....  ",
"  ++++@@@$$*$$$#$$#$$$@@@@@@@@@@@@@@@@@@@@&%&&&&&==&&====@....  ",
"  ++++@@@$*$$$#$#$##$$@@@@@@@@@@@@@@@@@@@@&&%%&&=&=&&&===@....  ",
"  ++++@@@***$$$$$#$###@@@@@@@@@@@@@@@@@@@@&&&&&%&&%&&%&@@@....  ",
"  ++++@@@***$$$$##$###@@@@@@@@@@@@@@@@@@@@%&%&%&%&&%%%%@@@....  ",
"  ++++@@@*********$$$##$@@@@@@@@@@@@@@@@@@%%%%%%%&%&&&&@@@....  ",
"  ++++@@@*****-***$$$$#$@@@@@@@@@@@@@@@@@@%%%%%%&&&%&&&@@@....  ",
"  ++++@@@****-;-***$$$$#$#@@@@@@@@@@@@%%%%%%%&&&&&&&==&@@@....  ",
"  ++++@@@***----*-**$$##$$$@@@@@@@@@@&&%%%%%&&=&&&&====@@@....  ",
"  ++++@@@@----;---***$$$$#$@@@@@@@@@@&%&&%&&&=&=&=====@@@@....  ",
"  ++++@@@@@@--;---****$$$$###%%%%&%&&&&%&&&&========@@@@@@....  ",
"  ++++@@@@@@@@@---****$$$#$##%%%%%&&&&%&%&&&=======@@@@@@@....  ",
"  ++++@@@@@@@@@@-*****$$$$$$##%%%&&%%%%%%%&%&&=====@@@@@@@....  ",
"  ++++@@@@@@@@@@-**$**$$$##$$#%#%%%%#%%%%%%&=&====@@@@@@@@....  ",
"  ++++@@@@@@@@@@@@@@@@$$$$#$####%%%####%%%@@@@@@@@@@@@@@@@....  ",
"  ++++@@@@@@@@@@@@@@@@$$$$$$$#$#%#%$##%##%@@@@@@@@@@@@@@@@....  ",
"  ++++@@@@@@@@@@@@@@@@@@@@@@@@@@@@@@@@@@@@@@@@@@@@@@@@@@@@....  ",
"  ++++++++++++++++++++++++++++++++++++++++++++++++++++++++++..  ",
"  ++++++++++++++++++++++++++++++++++++++++++++++++++++++++++..  ",
"  ++++++++++++++++++++++++++++++++++++++++++++++++++++++++++++  ",
"  ++++++++++++++++++++++++++++++++++++++++++++++++++++++++++++  ",
"                                                                ",
"                                                                "};
